%TF.GenerationSoftware,KiCad,Pcbnew,9.0.6*%
%TF.CreationDate,2026-01-30T22:56:41+01:00*%
%TF.ProjectId,fed_training_1,6665645f-7472-4616-996e-696e675f312e,rev?*%
%TF.SameCoordinates,Original*%
%TF.FileFunction,Copper,L1,Top*%
%TF.FilePolarity,Positive*%
%FSLAX46Y46*%
G04 Gerber Fmt 4.6, Leading zero omitted, Abs format (unit mm)*
G04 Created by KiCad (PCBNEW 9.0.6) date 2026-01-30 22:56:41*
%MOMM*%
%LPD*%
G01*
G04 APERTURE LIST*
G04 Aperture macros list*
%AMRoundRect*
0 Rectangle with rounded corners*
0 $1 Rounding radius*
0 $2 $3 $4 $5 $6 $7 $8 $9 X,Y pos of 4 corners*
0 Add a 4 corners polygon primitive as box body*
4,1,4,$2,$3,$4,$5,$6,$7,$8,$9,$2,$3,0*
0 Add four circle primitives for the rounded corners*
1,1,$1+$1,$2,$3*
1,1,$1+$1,$4,$5*
1,1,$1+$1,$6,$7*
1,1,$1+$1,$8,$9*
0 Add four rect primitives between the rounded corners*
20,1,$1+$1,$2,$3,$4,$5,0*
20,1,$1+$1,$4,$5,$6,$7,0*
20,1,$1+$1,$6,$7,$8,$9,0*
20,1,$1+$1,$8,$9,$2,$3,0*%
G04 Aperture macros list end*
%TA.AperFunction,SMDPad,CuDef*%
%ADD10RoundRect,0.150000X-0.150000X0.587500X-0.150000X-0.587500X0.150000X-0.587500X0.150000X0.587500X0*%
%TD*%
%TA.AperFunction,SMDPad,CuDef*%
%ADD11RoundRect,0.237500X-0.250000X-0.237500X0.250000X-0.237500X0.250000X0.237500X-0.250000X0.237500X0*%
%TD*%
%TA.AperFunction,SMDPad,CuDef*%
%ADD12RoundRect,0.237500X0.250000X0.237500X-0.250000X0.237500X-0.250000X-0.237500X0.250000X-0.237500X0*%
%TD*%
%TA.AperFunction,SMDPad,CuDef*%
%ADD13RoundRect,0.112500X-0.237500X0.112500X-0.237500X-0.112500X0.237500X-0.112500X0.237500X0.112500X0*%
%TD*%
%TA.AperFunction,SMDPad,CuDef*%
%ADD14RoundRect,0.100000X-0.217500X-0.100000X0.217500X-0.100000X0.217500X0.100000X-0.217500X0.100000X0*%
%TD*%
%TA.AperFunction,ComponentPad*%
%ADD15R,1.700000X1.700000*%
%TD*%
%TA.AperFunction,ComponentPad*%
%ADD16C,1.700000*%
%TD*%
%TA.AperFunction,ComponentPad*%
%ADD17R,1.000000X1.000000*%
%TD*%
%TA.AperFunction,ComponentPad*%
%ADD18C,1.000000*%
%TD*%
%TA.AperFunction,SMDPad,CuDef*%
%ADD19RoundRect,0.062500X0.075000X0.062500X-0.075000X0.062500X-0.075000X-0.062500X0.075000X-0.062500X0*%
%TD*%
%TA.AperFunction,SMDPad,CuDef*%
%ADD20RoundRect,0.062500X0.062500X0.075000X-0.062500X0.075000X-0.062500X-0.075000X0.062500X-0.075000X0*%
%TD*%
%TA.AperFunction,SMDPad,CuDef*%
%ADD21R,0.900000X1.500000*%
%TD*%
%TA.AperFunction,SMDPad,CuDef*%
%ADD22RoundRect,0.237500X-0.237500X0.250000X-0.237500X-0.250000X0.237500X-0.250000X0.237500X0.250000X0*%
%TD*%
%TA.AperFunction,SMDPad,CuDef*%
%ADD23RoundRect,0.150000X-0.512500X-0.150000X0.512500X-0.150000X0.512500X0.150000X-0.512500X0.150000X0*%
%TD*%
%TA.AperFunction,SMDPad,CuDef*%
%ADD24RoundRect,0.250000X-0.457500X-0.445000X0.457500X-0.445000X0.457500X0.445000X-0.457500X0.445000X0*%
%TD*%
%TA.AperFunction,ComponentPad*%
%ADD25R,0.850000X0.850000*%
%TD*%
%TA.AperFunction,ComponentPad*%
%ADD26C,0.850000*%
%TD*%
%TA.AperFunction,SMDPad,CuDef*%
%ADD27RoundRect,0.100000X0.100000X-0.217500X0.100000X0.217500X-0.100000X0.217500X-0.100000X-0.217500X0*%
%TD*%
%TA.AperFunction,SMDPad,CuDef*%
%ADD28R,1.350000X0.400000*%
%TD*%
%TA.AperFunction,ComponentPad*%
%ADD29O,1.550000X1.000000*%
%TD*%
%TA.AperFunction,ComponentPad*%
%ADD30O,0.950000X1.250000*%
%TD*%
%TA.AperFunction,SMDPad,CuDef*%
%ADD31RoundRect,0.243750X0.243750X0.456250X-0.243750X0.456250X-0.243750X-0.456250X0.243750X-0.456250X0*%
%TD*%
%TA.AperFunction,SMDPad,CuDef*%
%ADD32RoundRect,0.250000X-0.445000X0.457500X-0.445000X-0.457500X0.445000X-0.457500X0.445000X0.457500X0*%
%TD*%
%TA.AperFunction,SMDPad,CuDef*%
%ADD33RoundRect,0.100000X0.100000X-0.850000X0.100000X0.850000X-0.100000X0.850000X-0.100000X-0.850000X0*%
%TD*%
%TA.AperFunction,SMDPad,CuDef*%
%ADD34RoundRect,0.150000X0.150000X-0.587500X0.150000X0.587500X-0.150000X0.587500X-0.150000X-0.587500X0*%
%TD*%
%TA.AperFunction,ViaPad*%
%ADD35C,0.600000*%
%TD*%
%TA.AperFunction,Conductor*%
%ADD36C,0.500000*%
%TD*%
%TA.AperFunction,Conductor*%
%ADD37C,0.250000*%
%TD*%
%TA.AperFunction,Conductor*%
%ADD38C,0.300000*%
%TD*%
%TA.AperFunction,Conductor*%
%ADD39C,0.400000*%
%TD*%
G04 APERTURE END LIST*
D10*
%TO.P,Q2,1,G*%
%TO.N,/LED_G*%
X170490000Y-91282500D03*
%TO.P,Q2,2,S*%
%TO.N,GND*%
X168590000Y-91282500D03*
%TO.P,Q2,3,D*%
%TO.N,Net-(Q2-D)*%
X169540000Y-93157500D03*
%TD*%
D11*
%TO.P,R2,1*%
%TO.N,+5V_USB*%
X124363900Y-93543928D03*
%TO.P,R2,2*%
%TO.N,Net-(J2-Pad2)*%
X126188900Y-93543928D03*
%TD*%
D12*
%TO.P,R6,1*%
%TO.N,Net-(D3-A)*%
X130312500Y-94000000D03*
%TO.P,R6,2*%
%TO.N,+5V_USB*%
X128487500Y-94000000D03*
%TD*%
D13*
%TO.P,D2,1*%
%TO.N,+VBAT*%
X127818182Y-90800000D03*
%TO.P,D2,2*%
%TO.N,+5V_USB*%
X127818182Y-92100000D03*
%TO.P,D2,3*%
%TO.N,VIN*%
X129818182Y-91450000D03*
%TD*%
D14*
%TO.P,C5,1*%
%TO.N,+3.3V*%
X136402500Y-90580000D03*
%TO.P,C5,2*%
%TO.N,GND*%
X137217500Y-90580000D03*
%TD*%
D15*
%TO.P,J4,1,Pin_1*%
%TO.N,/I2C1_SDA*%
X157898454Y-98300000D03*
D16*
%TO.P,J4,2,Pin_2*%
%TO.N,/I2C1_SCL*%
X160438454Y-98300000D03*
%TO.P,J4,3,Pin_3*%
%TO.N,GND*%
X162978454Y-98300000D03*
%TO.P,J4,4,Pin_4*%
%TO.N,/BUTTON*%
X165518454Y-98300000D03*
%TD*%
D12*
%TO.P,R3,1*%
%TO.N,+5V_USB*%
X126112500Y-96767542D03*
%TO.P,R3,2*%
%TO.N,Net-(J2-Pad3)*%
X124287500Y-96767542D03*
%TD*%
D17*
%TO.P,J7,1,Pin_1*%
%TO.N,/G_LED_CON*%
X178030000Y-98990000D03*
D18*
%TO.P,J7,2,Pin_2*%
%TO.N,/B_LED_CON*%
X176760000Y-98990000D03*
%TD*%
D19*
%TO.P,U2,1,ADDR*%
%TO.N,GND*%
X159258855Y-93857233D03*
%TO.P,U2,2,SDA*%
%TO.N,/I2C1_SDA*%
X159258855Y-93357233D03*
%TO.P,U2,3,IO_VDD*%
%TO.N,+3.3V*%
X159258855Y-92857233D03*
%TO.P,U2,4,RES*%
%TO.N,GND*%
X159258855Y-92357233D03*
D20*
%TO.P,U2,5,INT*%
%TO.N,/ISR*%
X158746355Y-92344733D03*
%TO.P,U2,6,GND*%
%TO.N,GND*%
X158246355Y-92344733D03*
D19*
%TO.P,U2,7,VDD*%
%TO.N,+3.3V*%
X157733855Y-92357233D03*
%TO.P,U2,8,GND*%
%TO.N,GND*%
X157733855Y-92857233D03*
%TO.P,U2,9,GND*%
X157733855Y-93357233D03*
%TO.P,U2,10,VDD*%
%TO.N,+3.3V*%
X157733855Y-93857233D03*
D20*
%TO.P,U2,11,IO_VDD*%
X158246355Y-93869733D03*
%TO.P,U2,12,SCL*%
%TO.N,/I2C1_SCL*%
X158746355Y-93869733D03*
%TD*%
D11*
%TO.P,R5,1*%
%TO.N,Net-(J2-Pad4)*%
X124087500Y-98300000D03*
%TO.P,R5,2*%
%TO.N,GND*%
X125912500Y-98300000D03*
%TD*%
D21*
%TO.P,D1,1,A*%
%TO.N,VIN*%
X176650000Y-93310000D03*
%TO.P,D1,2,RK*%
%TO.N,/R_LED_CON*%
X178050000Y-93310000D03*
%TO.P,D1,3,BK*%
%TO.N,/B_LED_CON*%
X176650000Y-96410000D03*
%TO.P,D1,4,GK*%
%TO.N,/G_LED_CON*%
X178050000Y-96410000D03*
%TD*%
D22*
%TO.P,R8,1*%
%TO.N,Net-(Q2-D)*%
X171350000Y-93887500D03*
%TO.P,R8,2*%
%TO.N,/G_LED_CON*%
X171350000Y-95712500D03*
%TD*%
D16*
%TO.P,SW1,1,1*%
%TO.N,/BUTTON*%
X154800000Y-91803688D03*
%TO.P,SW1,2,2*%
%TO.N,GND*%
X150300000Y-91803688D03*
%TO.P,SW1,3,K*%
X150300000Y-98303688D03*
%TO.P,SW1,4,A*%
%TO.N,/BUTTON*%
X154800000Y-98303688D03*
%TD*%
D22*
%TO.P,R12,1*%
%TO.N,+3.3V*%
X136500000Y-97187500D03*
%TO.P,R12,2*%
%TO.N,/MCL#{slash}VPP*%
X136500000Y-99012500D03*
%TD*%
D12*
%TO.P,R11,1*%
%TO.N,+3.3V*%
X148412500Y-97400000D03*
%TO.P,R11,2*%
%TO.N,/I2C1_SCL*%
X146587500Y-97400000D03*
%TD*%
%TO.P,R7,1*%
%TO.N,Net-(Q3-D)*%
X166512500Y-95600000D03*
%TO.P,R7,2*%
%TO.N,/R_LED_CON*%
X164687500Y-95600000D03*
%TD*%
D23*
%TO.P,U3,1,IN*%
%TO.N,VIN*%
X132225000Y-92000000D03*
%TO.P,U3,2,GND*%
%TO.N,GND*%
X132225000Y-92950000D03*
%TO.P,U3,3,EN*%
X132225000Y-93900000D03*
%TO.P,U3,4,BP*%
%TO.N,unconnected-(U3-BP-Pad4)*%
X134500000Y-93900000D03*
%TO.P,U3,5,OUT*%
%TO.N,+3.3V*%
X134500000Y-92000000D03*
%TD*%
D24*
%TO.P,C4,1*%
%TO.N,+5V_USB*%
X127900000Y-95800000D03*
%TO.P,C4,2*%
%TO.N,GND*%
X130605000Y-95800000D03*
%TD*%
D10*
%TO.P,Q1,1,G*%
%TO.N,/LED_B*%
X166934061Y-91957698D03*
%TO.P,Q1,2,S*%
%TO.N,GND*%
X165034061Y-91957698D03*
%TO.P,Q1,3,D*%
%TO.N,Net-(Q1-D)*%
X165984061Y-93832698D03*
%TD*%
D25*
%TO.P,J3,1,Pin_1*%
%TO.N,/MCL#{slash}VPP*%
X134674676Y-99125000D03*
D26*
%TO.P,J3,2,Pin_2*%
%TO.N,+3.3V*%
X133674676Y-99125000D03*
%TO.P,J3,3,Pin_3*%
%TO.N,GND*%
X132674676Y-99125000D03*
%TO.P,J3,4,Pin_4*%
%TO.N,/ISCPSDAT*%
X131674676Y-99125000D03*
%TO.P,J3,5,Pin_5*%
%TO.N,/ISCPSCLK*%
X130674676Y-99125000D03*
%TD*%
D17*
%TO.P,J6,1,Pin_1*%
%TO.N,VIN*%
X176810000Y-90680000D03*
D18*
%TO.P,J6,2,Pin_2*%
%TO.N,/R_LED_CON*%
X178080000Y-90680000D03*
%TD*%
D27*
%TO.P,C1,1*%
%TO.N,GND*%
X130900000Y-92640000D03*
%TO.P,C1,2*%
%TO.N,VIN*%
X130900000Y-91825000D03*
%TD*%
D28*
%TO.P,J2,1*%
%TO.N,+5V_USB*%
X122175000Y-93484473D03*
%TO.P,J2,2*%
%TO.N,Net-(J2-Pad2)*%
X122175000Y-94134473D03*
%TO.P,J2,3*%
%TO.N,Net-(J2-Pad3)*%
X122175000Y-94784473D03*
%TO.P,J2,4*%
%TO.N,Net-(J2-Pad4)*%
X122175000Y-95434473D03*
%TO.P,J2,5*%
%TO.N,GND*%
X122175000Y-96084473D03*
D29*
%TO.P,J2,SH*%
X119475000Y-91284473D03*
D30*
X122175000Y-92284473D03*
X122175000Y-97284473D03*
D29*
X119475000Y-98284473D03*
%TD*%
D31*
%TO.P,D3,1,K*%
%TO.N,GND*%
X134237500Y-96100000D03*
%TO.P,D3,2,A*%
%TO.N,Net-(D3-A)*%
X132362500Y-96100000D03*
%TD*%
D32*
%TO.P,C2,1*%
%TO.N,+3.3V*%
X136500000Y-91947500D03*
%TO.P,C2,2*%
%TO.N,GND*%
X136500000Y-94652500D03*
%TD*%
D33*
%TO.P,U1,1,RA3/MCLR/VPP*%
%TO.N,/MCL#{slash}VPP*%
X138650000Y-98522906D03*
%TO.P,U1,2,RC5*%
%TO.N,Net-(U1-RC5)*%
X139300000Y-98522906D03*
%TO.P,U1,3,RC4*%
%TO.N,unconnected-(U1-RC4-Pad3)*%
X139950000Y-98522906D03*
%TO.P,U1,4,RC3*%
%TO.N,Net-(U1-RC3)*%
X140600000Y-98522906D03*
%TO.P,U1,5,RC6*%
%TO.N,Net-(U1-RC6)*%
X141250000Y-98522906D03*
%TO.P,U1,6,RC7*%
%TO.N,unconnected-(U1-RC7-Pad6)*%
X141900000Y-98522906D03*
%TO.P,U1,7,RB7*%
%TO.N,/BUTTON*%
X142550000Y-98522906D03*
%TO.P,U1,8,RB6*%
%TO.N,/I2C1_SCL*%
X143200000Y-98522906D03*
%TO.P,U1,9,RB5*%
%TO.N,unconnected-(U1-RB5-Pad9)*%
X143850000Y-98522906D03*
%TO.P,U1,10,RB4*%
%TO.N,/I2C1_SDA*%
X144500000Y-98522906D03*
%TO.P,U1,11,RC2*%
%TO.N,unconnected-(U1-RC2-Pad11)*%
X144500000Y-91522906D03*
%TO.P,U1,12,RC1*%
%TO.N,unconnected-(U1-RC1-Pad12)*%
X143850000Y-91522906D03*
%TO.P,U1,13,RC0*%
%TO.N,unconnected-(U1-RC0-Pad13)*%
X143200000Y-91522906D03*
%TO.P,U1,14,RA2*%
%TO.N,/ISR*%
X142550000Y-91522906D03*
%TO.P,U1,15,RA1/ICSPCLK*%
%TO.N,/ISCPSCLK*%
X141900000Y-91522906D03*
%TO.P,U1,16,RA0/ICSPDAT*%
%TO.N,/ISCPSDAT*%
X141250000Y-91522906D03*
%TO.P,U1,17,VSS*%
%TO.N,GND*%
X140600000Y-91522906D03*
%TO.P,U1,18,VDD*%
%TO.N,+3.3V*%
X139950000Y-91522906D03*
%TO.P,U1,19,RA5*%
%TO.N,unconnected-(U1-RA5-Pad19)*%
X139300000Y-91522906D03*
%TO.P,U1,20,RA4*%
%TO.N,unconnected-(U1-RA4-Pad20)*%
X138650000Y-91522906D03*
%TD*%
D11*
%TO.P,R9,1*%
%TO.N,Net-(Q1-D)*%
X168007087Y-95132089D03*
%TO.P,R9,2*%
%TO.N,/B_LED_CON*%
X169832087Y-95132089D03*
%TD*%
D34*
%TO.P,Q3,1,G*%
%TO.N,/LED_R*%
X168595000Y-98737500D03*
%TO.P,Q3,2,S*%
%TO.N,GND*%
X170495000Y-98737500D03*
%TO.P,Q3,3,D*%
%TO.N,Net-(Q3-D)*%
X169545000Y-96862500D03*
%TD*%
D27*
%TO.P,C3,1*%
%TO.N,GND*%
X163890802Y-92758195D03*
%TO.P,C3,2*%
%TO.N,+3.3V*%
X163890802Y-91943195D03*
%TD*%
D32*
%TO.P,C6,1*%
%TO.N,+3.3V*%
X162306000Y-91581579D03*
%TO.P,C6,2*%
%TO.N,GND*%
X162306000Y-94286579D03*
%TD*%
D15*
%TO.P,J5,1,Pin_1*%
%TO.N,VIN*%
X173850000Y-90840000D03*
D16*
%TO.P,J5,2,Pin_2*%
%TO.N,/R_LED_CON*%
X173850000Y-93380000D03*
%TO.P,J5,3,Pin_3*%
%TO.N,/G_LED_CON*%
X173850000Y-95920000D03*
%TO.P,J5,4,Pin_4*%
%TO.N,/B_LED_CON*%
X173850000Y-98460000D03*
%TD*%
D11*
%TO.P,R10,1*%
%TO.N,/I2C1_SDA*%
X146587500Y-95800000D03*
%TO.P,R10,2*%
%TO.N,+3.3V*%
X148412500Y-95800000D03*
%TD*%
D17*
%TO.P,J1,1,Pin_1*%
%TO.N,GND*%
X124700000Y-91200000D03*
D18*
%TO.P,J1,2,Pin_2*%
%TO.N,+VBAT*%
X125970000Y-91200000D03*
%TD*%
D35*
%TO.N,GND*%
X121100000Y-98500000D03*
X127200000Y-98500000D03*
X129700000Y-97500000D03*
X165026204Y-90631224D03*
X122166120Y-98511031D03*
X163890802Y-93420122D03*
X160620318Y-91222003D03*
X160527805Y-93972195D03*
X152178000Y-97822000D03*
X132500000Y-97600000D03*
X124700000Y-90200000D03*
X163830000Y-94300000D03*
X156900000Y-92900000D03*
X157900000Y-91300000D03*
X122390640Y-90764385D03*
X137900000Y-91200000D03*
X171450000Y-98298000D03*
X140300000Y-93350000D03*
X119977640Y-92796385D03*
X152146000Y-92000000D03*
X130200000Y-93000000D03*
X162052000Y-97028000D03*
X132900000Y-94800000D03*
%TO.N,VIN*%
X131900000Y-90900000D03*
X130900000Y-90900000D03*
%TO.N,+3.3V*%
X157995964Y-94628740D03*
X138600000Y-93400000D03*
X135210000Y-90810000D03*
X148370000Y-98740000D03*
X163878252Y-91060000D03*
X133760000Y-90740000D03*
%TO.N,/R_LED_CON*%
X165100000Y-94615000D03*
%TO.N,Net-(J2-Pad3)*%
X123900000Y-95300000D03*
%TO.N,Net-(J2-Pad2)*%
X127343928Y-93543928D03*
%TO.N,/ISCPSCLK*%
X141880000Y-94710000D03*
%TO.N,/ISCPSDAT*%
X139380000Y-95590000D03*
%TO.N,/I2C1_SCL*%
X143860000Y-96960000D03*
X155448000Y-96612000D03*
X160300000Y-94800000D03*
X146560000Y-98690000D03*
%TO.N,/I2C1_SDA*%
X150830000Y-95630000D03*
X160713922Y-93245652D03*
%TO.N,/BUTTON*%
X153300000Y-95130000D03*
%TO.N,/LED_B*%
X167290000Y-90647776D03*
%TO.N,/LED_G*%
X171570000Y-91100000D03*
%TO.N,/LED_R*%
X155000000Y-95340000D03*
%TO.N,/ISR*%
X142900000Y-93400000D03*
X158938645Y-91232253D03*
%TO.N,Net-(U1-RC6)*%
X143716866Y-94657227D03*
%TO.N,Net-(U1-RC5)*%
X139880000Y-96900000D03*
%TO.N,Net-(U1-RC3)*%
X141350000Y-96360000D03*
%TD*%
D36*
%TO.N,GND*%
X151696312Y-98303688D02*
X150493545Y-98303688D01*
D37*
X157900000Y-91300000D02*
X157696352Y-91503648D01*
D38*
X137280000Y-90580000D02*
X137217500Y-90580000D01*
D37*
X160412842Y-93857233D02*
X159258855Y-93857233D01*
D36*
X152000000Y-92000000D02*
X151803688Y-91803688D01*
D38*
X137900000Y-91200000D02*
X137280000Y-90580000D01*
D36*
X151803688Y-91803688D02*
X150493545Y-91803688D01*
D38*
X170940000Y-98740000D02*
X170937500Y-98737500D01*
X156942767Y-92857233D02*
X156900000Y-92900000D01*
D36*
X162052000Y-97028000D02*
X162052000Y-97552000D01*
X162052000Y-97552000D02*
X162652918Y-98152918D01*
D38*
X171008000Y-98740000D02*
X170940000Y-98740000D01*
D36*
X162319421Y-94300000D02*
X162306000Y-94286579D01*
X163830000Y-94300000D02*
X162319421Y-94300000D01*
D37*
X157696352Y-91503648D02*
X157696352Y-91631076D01*
D38*
X165034061Y-91957698D02*
X165034061Y-90639081D01*
X170937500Y-98737500D02*
X170495000Y-98737500D01*
D36*
X152178000Y-97822000D02*
X151696312Y-98303688D01*
D37*
X157696352Y-91631076D02*
X158246355Y-92181079D01*
X160394085Y-91222003D02*
X160620318Y-91222003D01*
D38*
X171450000Y-98298000D02*
X171008000Y-98740000D01*
D37*
X158246355Y-92181079D02*
X158246355Y-92344733D01*
X160527805Y-93972195D02*
X160412842Y-93857233D01*
D38*
X140600000Y-91522906D02*
X140600000Y-93050000D01*
D37*
X159258855Y-92357233D02*
X160394085Y-91222003D01*
D36*
X152146000Y-92000000D02*
X152000000Y-92000000D01*
D38*
X163890802Y-93420122D02*
X163890802Y-92626695D01*
D36*
X162652918Y-98152918D02*
X162978454Y-98152918D01*
D38*
X157733855Y-92857233D02*
X156942767Y-92857233D01*
D37*
X165034061Y-90639081D02*
X165026204Y-90631224D01*
D38*
X140600000Y-93050000D02*
X140300000Y-93350000D01*
%TO.N,VIN*%
X130368182Y-90900000D02*
X130900000Y-90900000D01*
X130900000Y-91825000D02*
X130900000Y-90900000D01*
X129818182Y-91450000D02*
X130368182Y-90900000D01*
X132225000Y-92000000D02*
X132225000Y-91225000D01*
X132225000Y-91225000D02*
X131900000Y-90900000D01*
X176810000Y-93150000D02*
X176650000Y-93310000D01*
X176810000Y-90680000D02*
X176810000Y-93150000D01*
D36*
%TO.N,+3.3V*%
X136087500Y-97600000D02*
X136500000Y-97187500D01*
X136500000Y-97187500D02*
X138600000Y-95087500D01*
X134175000Y-97600000D02*
X136087500Y-97600000D01*
D38*
X148412500Y-98697500D02*
X148370000Y-98740000D01*
X157733855Y-94374886D02*
X157733855Y-93857233D01*
D36*
X133674676Y-98100324D02*
X134175000Y-97600000D01*
X134500000Y-91200000D02*
X134500000Y-92000000D01*
D37*
X161300654Y-90576233D02*
X162306000Y-91581579D01*
D38*
X162306000Y-91581579D02*
X163397686Y-91581579D01*
D37*
X157437054Y-90576233D02*
X161300654Y-90576233D01*
X157070352Y-91263824D02*
X157070352Y-90942935D01*
X157995964Y-94628740D02*
X156604740Y-94628740D01*
D38*
X157987709Y-94628740D02*
X157733855Y-94374886D01*
D37*
X157070352Y-90942935D02*
X157437054Y-90576233D01*
D39*
X137952500Y-93400000D02*
X136500000Y-91947500D01*
D37*
X156210000Y-94234000D02*
X156210000Y-92124176D01*
D38*
X163878252Y-91060000D02*
X163878252Y-92049695D01*
D37*
X157070352Y-91693730D02*
X157070352Y-91000000D01*
D38*
X135210000Y-90810000D02*
X135440000Y-90580000D01*
X161671000Y-91821000D02*
X160655000Y-91821000D01*
D37*
X157070352Y-91000000D02*
X157070352Y-90942935D01*
X156604740Y-94628740D02*
X156210000Y-94234000D01*
D38*
X148412500Y-97400000D02*
X148412500Y-98697500D01*
D36*
X133674676Y-99125000D02*
X133674676Y-98100324D01*
X134040000Y-90740000D02*
X134500000Y-91200000D01*
D37*
X158246355Y-93869733D02*
X157746355Y-93869733D01*
D38*
X163878252Y-92049695D02*
X163890802Y-92049695D01*
X163397686Y-91581579D02*
X163890802Y-92074695D01*
D37*
X156210000Y-92124176D02*
X157070352Y-91263824D01*
D36*
X133760000Y-90740000D02*
X134040000Y-90740000D01*
D38*
X157995964Y-94628740D02*
X157987709Y-94628740D01*
X148412500Y-95800000D02*
X148412500Y-97400000D01*
D39*
X139950000Y-92534198D02*
X139084198Y-93400000D01*
X138600000Y-93400000D02*
X137952500Y-93400000D01*
D38*
X161910421Y-91581579D02*
X161671000Y-91821000D01*
D39*
X139950000Y-91522906D02*
X139950000Y-92534198D01*
D37*
X157733855Y-92357233D02*
X157070352Y-91693730D01*
D39*
X139084198Y-93400000D02*
X138600000Y-93400000D01*
D38*
X135440000Y-90580000D02*
X136402500Y-90580000D01*
X160655000Y-91821000D02*
X159633609Y-92842391D01*
D36*
X138600000Y-95087500D02*
X138600000Y-93400000D01*
D38*
X159633609Y-92842391D02*
X159482218Y-92842391D01*
X162306000Y-91581579D02*
X161910421Y-91581579D01*
%TO.N,/B_LED_CON*%
X172600000Y-98500000D02*
X173693523Y-98500000D01*
D37*
X173693523Y-98500000D02*
X173693523Y-98861596D01*
X173100000Y-98500000D02*
X173693523Y-98500000D01*
D38*
X169832087Y-95132089D02*
X169832087Y-95732087D01*
X169832087Y-95732087D02*
X172600000Y-98500000D01*
D37*
X169599198Y-95353322D02*
X169953322Y-95353322D01*
D38*
X176760000Y-98990000D02*
X176650000Y-98880000D01*
X176650000Y-98880000D02*
X176650000Y-96410000D01*
%TO.N,/G_LED_CON*%
X171350000Y-95712500D02*
X173642500Y-95712500D01*
X178030000Y-96430000D02*
X178050000Y-96410000D01*
X178030000Y-98990000D02*
X178030000Y-96430000D01*
X173642500Y-95712500D02*
X173850000Y-95920000D01*
%TO.N,/R_LED_CON*%
X164687500Y-95027500D02*
X165100000Y-94615000D01*
X178080000Y-93280000D02*
X178050000Y-93310000D01*
X178080000Y-90680000D02*
X178080000Y-93280000D01*
X164687500Y-95600000D02*
X164687500Y-95027500D01*
%TO.N,Net-(D3-A)*%
X132362500Y-96100000D02*
X132362500Y-95400001D01*
X130962499Y-94000000D02*
X130312500Y-94000000D01*
X132362500Y-95400001D02*
X130962499Y-94000000D01*
%TO.N,Net-(J2-Pad4)*%
X122175000Y-95434473D02*
X123150000Y-95434473D01*
X123150000Y-95434473D02*
X123400000Y-95684473D01*
X123400000Y-97612500D02*
X124087500Y-98300000D01*
X123400000Y-95684473D02*
X123400000Y-97612500D01*
%TO.N,Net-(J2-Pad3)*%
X122175000Y-94784473D02*
X123384473Y-94784473D01*
X124287500Y-95687500D02*
X123900000Y-95300000D01*
X123384473Y-94784473D02*
X123900000Y-95300000D01*
X124287500Y-96767542D02*
X124287500Y-95687500D01*
%TO.N,Net-(J2-Pad2)*%
X126188900Y-93543928D02*
X125244828Y-94488000D01*
X123635473Y-94134473D02*
X122175000Y-94134473D01*
X123989000Y-94488000D02*
X123635473Y-94134473D01*
X125244828Y-94488000D02*
X123989000Y-94488000D01*
X127343928Y-93543928D02*
X126188900Y-93543928D01*
%TO.N,/ISCPSCLK*%
X141880000Y-94710000D02*
X141900000Y-94690000D01*
X141900000Y-94690000D02*
X141900000Y-91522906D01*
%TO.N,/MCL#{slash}VPP*%
X136500000Y-99012500D02*
X138160406Y-99012500D01*
X136500000Y-99012500D02*
X134787176Y-99012500D01*
X138160406Y-99012500D02*
X138650000Y-98522906D01*
X134787176Y-99012500D02*
X134674676Y-99125000D01*
%TO.N,/ISCPSDAT*%
X139380000Y-95590000D02*
X139610000Y-95590000D01*
X139610000Y-95590000D02*
X141250000Y-93950000D01*
X141250000Y-93950000D02*
X141250000Y-91522906D01*
%TO.N,/I2C1_SCL*%
X158746355Y-93869733D02*
X158800000Y-93923378D01*
X146587500Y-98662500D02*
X146560000Y-98690000D01*
X143510000Y-96960000D02*
X143200000Y-97270000D01*
X143860000Y-96960000D02*
X143510000Y-96960000D01*
X146587500Y-97400000D02*
X146587500Y-98662500D01*
X160200000Y-94900000D02*
X160300000Y-94800000D01*
X155448000Y-96612000D02*
X155746000Y-96910000D01*
X159048454Y-96910000D02*
X160438454Y-98300000D01*
X158800000Y-93923378D02*
X158800000Y-94700000D01*
X155746000Y-96910000D02*
X159048454Y-96910000D01*
X143200000Y-97270000D02*
X143200000Y-98522906D01*
X158800000Y-94700000D02*
X159000000Y-94900000D01*
X159000000Y-94900000D02*
X160200000Y-94900000D01*
%TO.N,/I2C1_SDA*%
X146545500Y-95758000D02*
X146587500Y-95800000D01*
X150830000Y-95630000D02*
X150830000Y-95458000D01*
X160602341Y-93357233D02*
X160713922Y-93245652D01*
X144500000Y-97308000D02*
X146050000Y-95758000D01*
X146558000Y-94742000D02*
X146558000Y-95770500D01*
X159258855Y-93357233D02*
X160602341Y-93357233D01*
X150830000Y-95458000D02*
X149860000Y-94488000D01*
X149860000Y-94488000D02*
X146812000Y-94488000D01*
X144500000Y-98522906D02*
X144500000Y-97308000D01*
X146050000Y-95758000D02*
X146545500Y-95758000D01*
X146558000Y-95770500D02*
X146587500Y-95800000D01*
X146812000Y-94488000D02*
X146558000Y-94742000D01*
%TO.N,/BUTTON*%
X153130000Y-95130000D02*
X151472000Y-93472000D01*
X164800000Y-98300000D02*
X162512000Y-96012000D01*
X153300000Y-95130000D02*
X153130000Y-95130000D01*
X154432000Y-97935688D02*
X154800000Y-98303688D01*
X165518454Y-98300000D02*
X164800000Y-98300000D01*
X154800000Y-93630000D02*
X154800000Y-91803688D01*
X153300000Y-95130000D02*
X154432000Y-96262000D01*
X154432000Y-96262000D02*
X154432000Y-97935688D01*
X151472000Y-93472000D02*
X146360190Y-93472000D01*
X142550000Y-97282190D02*
X142550000Y-98522906D01*
X154682000Y-96012000D02*
X154432000Y-96262000D01*
X146360190Y-93472000D02*
X142550000Y-97282190D01*
X153300000Y-95130000D02*
X154800000Y-93630000D01*
X162512000Y-96012000D02*
X154682000Y-96012000D01*
%TO.N,/LED_B*%
X166934061Y-91957698D02*
X166934061Y-91003715D01*
X166934061Y-91003715D02*
X167290000Y-90647776D01*
%TO.N,Net-(Q1-D)*%
X165984061Y-93832698D02*
X166707696Y-93832698D01*
X166707696Y-93832698D02*
X168007087Y-95132089D01*
%TO.N,/LED_G*%
X171387500Y-91282500D02*
X171570000Y-91100000D01*
X170490000Y-91282500D02*
X171387500Y-91282500D01*
%TO.N,Net-(Q2-D)*%
X170270000Y-93887500D02*
X169540000Y-93157500D01*
X171350000Y-93887500D02*
X170270000Y-93887500D01*
%TO.N,/LED_R*%
X166457500Y-96600000D02*
X168595000Y-98737500D01*
X155000000Y-95340000D02*
X155119000Y-95459000D01*
X155119000Y-95459000D02*
X162759000Y-95459000D01*
X162759000Y-95459000D02*
X163900000Y-96600000D01*
X163900000Y-96600000D02*
X166457500Y-96600000D01*
%TO.N,Net-(Q3-D)*%
X167775000Y-96862500D02*
X169545000Y-96862500D01*
X166512500Y-95600000D02*
X167775000Y-96862500D01*
%TO.N,/ISR*%
X142550000Y-93050000D02*
X142900000Y-93400000D01*
X142550000Y-91522906D02*
X142550000Y-93050000D01*
X158746355Y-92344733D02*
X158746355Y-91424543D01*
X158746355Y-91424543D02*
X158938645Y-91232253D01*
%TO.N,Net-(U1-RC6)*%
X141250000Y-97510000D02*
X141250000Y-98522906D01*
X143716866Y-95043134D02*
X141250000Y-97510000D01*
X143716866Y-94657227D02*
X143716866Y-95043134D01*
%TO.N,Net-(U1-RC5)*%
X139300000Y-97480000D02*
X139300000Y-98522906D01*
X139880000Y-96900000D02*
X139300000Y-97480000D01*
%TO.N,Net-(U1-RC3)*%
X140600000Y-97110000D02*
X141350000Y-96360000D01*
X140600000Y-98522906D02*
X140600000Y-97110000D01*
%TD*%
%TA.AperFunction,Conductor*%
%TO.N,+VBAT*%
G36*
X125709936Y-91399554D02*
G01*
X125770446Y-91460064D01*
X125821741Y-91489679D01*
X125569503Y-91741918D01*
X125548850Y-91752440D01*
X125543086Y-91756628D01*
X125638418Y-91820328D01*
X125638430Y-91820334D01*
X125733073Y-91859536D01*
X125779599Y-91899272D01*
X125793883Y-91958767D01*
X125770468Y-92015295D01*
X125718300Y-92047265D01*
X125695188Y-92050000D01*
X125464906Y-92050000D01*
X125406715Y-92031093D01*
X125370751Y-91981593D01*
X125365933Y-91953303D01*
X125365168Y-91920407D01*
X125363497Y-91848568D01*
X125380155Y-91791269D01*
X125388867Y-91778231D01*
X125388867Y-91778230D01*
X125391448Y-91774368D01*
X125434077Y-91740764D01*
X125419407Y-91730105D01*
X125416938Y-91722507D01*
X125411290Y-91716859D01*
X125400500Y-91671914D01*
X125400500Y-91669084D01*
X125419407Y-91610893D01*
X125429497Y-91599080D01*
X125680319Y-91348257D01*
X125709936Y-91399554D01*
G37*
%TD.AperFunction*%
%TA.AperFunction,Conductor*%
G36*
X128626927Y-89948658D02*
G01*
X128684833Y-89968419D01*
X128720065Y-90018442D01*
X128724252Y-90041062D01*
X128765102Y-90653799D01*
X128804442Y-91243906D01*
X128804469Y-91244300D01*
X128789474Y-91303619D01*
X128742476Y-91342796D01*
X128705688Y-91349885D01*
X128304503Y-91349885D01*
X128303755Y-91349929D01*
X128303586Y-91349885D01*
X128301599Y-91349885D01*
X128301599Y-91349366D01*
X128244555Y-91334471D01*
X128205747Y-91287167D01*
X128202155Y-91226088D01*
X128232191Y-91179184D01*
X128231565Y-91178558D01*
X128234420Y-91175702D01*
X128235151Y-91174562D01*
X128236849Y-91173273D01*
X128315617Y-91094505D01*
X128362190Y-90994631D01*
X128362190Y-90994630D01*
X128368181Y-90949121D01*
X128368182Y-90949120D01*
X128368182Y-90900001D01*
X128368181Y-90900000D01*
X127918183Y-90900000D01*
X127918182Y-90900001D01*
X127918182Y-91224998D01*
X127918183Y-91224999D01*
X128082343Y-91224999D01*
X128083000Y-91225212D01*
X128083661Y-91225008D01*
X128112018Y-91234640D01*
X128140534Y-91243906D01*
X128140940Y-91244465D01*
X128141595Y-91244688D01*
X128158870Y-91269143D01*
X128176498Y-91293406D01*
X128176498Y-91294098D01*
X128176897Y-91294663D01*
X128176498Y-91324614D01*
X128176498Y-91354592D01*
X128176091Y-91355151D01*
X128176082Y-91355843D01*
X128169949Y-91363605D01*
X128140534Y-91404092D01*
X128139462Y-91404860D01*
X128137283Y-91406398D01*
X128114261Y-91420865D01*
X128108141Y-91426984D01*
X128101238Y-91431861D01*
X128079698Y-91438543D01*
X128059606Y-91448781D01*
X128044119Y-91450000D01*
X127596983Y-91450000D01*
X127538792Y-91431093D01*
X127533537Y-91426997D01*
X127532053Y-91425758D01*
X127503980Y-91408985D01*
X127463724Y-91362908D01*
X127458240Y-91301968D01*
X127489623Y-91249444D01*
X127545885Y-91225397D01*
X127554758Y-91224999D01*
X127718182Y-91224999D01*
X127718182Y-90900001D01*
X127718181Y-90900000D01*
X127268184Y-90900000D01*
X127268183Y-90900001D01*
X127268183Y-90949127D01*
X127274172Y-90994625D01*
X127274173Y-90994630D01*
X127320746Y-91094505D01*
X127404799Y-91178558D01*
X127403000Y-91180356D01*
X127432017Y-91218858D01*
X127433089Y-91280034D01*
X127397998Y-91330156D01*
X127340147Y-91350080D01*
X127333729Y-91349885D01*
X127331848Y-91349885D01*
X127155260Y-91349885D01*
X127155254Y-91349885D01*
X127129918Y-91351455D01*
X127129884Y-91351458D01*
X127105626Y-91354476D01*
X127105619Y-91354478D01*
X127021534Y-91384483D01*
X126969763Y-91417067D01*
X126953169Y-91429722D01*
X126895432Y-91449973D01*
X126893137Y-91450000D01*
X126868182Y-91450000D01*
X126854227Y-91617448D01*
X126853648Y-91624395D01*
X126851434Y-91634130D01*
X126845819Y-91718351D01*
X126845748Y-91719205D01*
X126825747Y-91959221D01*
X126802073Y-92015641D01*
X126749757Y-92047370D01*
X126727089Y-92050000D01*
X126244812Y-92050000D01*
X126186621Y-92031093D01*
X126150657Y-91981593D01*
X126150657Y-91920407D01*
X126186621Y-91870907D01*
X126206927Y-91859536D01*
X126301571Y-91820333D01*
X126389894Y-91761317D01*
X126118257Y-91489680D01*
X126169554Y-91460064D01*
X126230064Y-91399554D01*
X126259680Y-91348257D01*
X126531317Y-91619894D01*
X126590333Y-91531571D01*
X126643098Y-91404183D01*
X126669999Y-91268944D01*
X126670000Y-91268942D01*
X126670000Y-91131057D01*
X126669999Y-91131055D01*
X126643098Y-90995816D01*
X126590334Y-90868430D01*
X126590328Y-90868418D01*
X126531317Y-90780103D01*
X126259679Y-91051741D01*
X126230064Y-91000446D01*
X126169554Y-90939936D01*
X126118257Y-90910319D01*
X126377699Y-90650878D01*
X127268182Y-90650878D01*
X127268182Y-90699999D01*
X127268183Y-90700000D01*
X127718181Y-90700000D01*
X127718182Y-90699999D01*
X127718182Y-90375001D01*
X127918182Y-90375001D01*
X127918182Y-90699999D01*
X127918183Y-90700000D01*
X128368180Y-90700000D01*
X128368181Y-90699999D01*
X128368181Y-90650883D01*
X128368180Y-90650872D01*
X128362191Y-90605374D01*
X128362190Y-90605369D01*
X128315617Y-90505494D01*
X128237687Y-90427564D01*
X128137812Y-90380991D01*
X128092303Y-90375000D01*
X127918183Y-90375000D01*
X127918182Y-90375001D01*
X127718182Y-90375001D01*
X127718181Y-90375000D01*
X127544066Y-90375000D01*
X127544054Y-90375001D01*
X127498556Y-90380990D01*
X127498551Y-90380991D01*
X127398676Y-90427564D01*
X127320746Y-90505494D01*
X127274173Y-90605368D01*
X127274173Y-90605369D01*
X127268182Y-90650878D01*
X126377699Y-90650878D01*
X126389895Y-90638682D01*
X126301571Y-90579666D01*
X126174183Y-90526901D01*
X126038944Y-90500000D01*
X125901055Y-90500000D01*
X125765816Y-90526901D01*
X125638425Y-90579667D01*
X125544239Y-90642599D01*
X125569504Y-90658081D01*
X125821742Y-90910319D01*
X125770446Y-90939936D01*
X125709936Y-91000446D01*
X125680320Y-91051741D01*
X125429496Y-90800917D01*
X125425870Y-90793800D01*
X125419407Y-90789105D01*
X125412242Y-90767055D01*
X125401719Y-90746401D01*
X125400500Y-90730914D01*
X125400500Y-90728085D01*
X125419407Y-90669894D01*
X125434076Y-90659235D01*
X125427181Y-90653799D01*
X125412469Y-90648372D01*
X125391445Y-90625628D01*
X125388867Y-90621770D01*
X125388867Y-90621769D01*
X125349011Y-90562122D01*
X125332354Y-90509425D01*
X125321463Y-90041062D01*
X125320573Y-90002803D01*
X125338122Y-89944188D01*
X125386773Y-89907083D01*
X125421001Y-89901512D01*
X128626927Y-89948658D01*
G37*
%TD.AperFunction*%
%TD*%
%TA.AperFunction,Conductor*%
%TO.N,+3.3V*%
G36*
X135911982Y-90090866D02*
G01*
X135969956Y-90110427D01*
X136005360Y-90160329D01*
X136004671Y-90221511D01*
X135980871Y-90259863D01*
X135933214Y-90307520D01*
X135887909Y-90410127D01*
X135885000Y-90435202D01*
X135885000Y-90479999D01*
X135885001Y-90480000D01*
X136303500Y-90480000D01*
X136318412Y-90484845D01*
X136334093Y-90484845D01*
X136346778Y-90494061D01*
X136361691Y-90498907D01*
X136370907Y-90511592D01*
X136383593Y-90520809D01*
X136388438Y-90535721D01*
X136397655Y-90548407D01*
X136402500Y-90579000D01*
X136402500Y-90580000D01*
X136403500Y-90580000D01*
X136461691Y-90598907D01*
X136497655Y-90648407D01*
X136502500Y-90679000D01*
X136502500Y-90925268D01*
X136535385Y-90946172D01*
X136559191Y-90953907D01*
X136595155Y-91003407D01*
X136600000Y-91034000D01*
X136600000Y-91847499D01*
X136600001Y-91847500D01*
X137394998Y-91847500D01*
X137394999Y-91847499D01*
X137394999Y-91641820D01*
X137413906Y-91583629D01*
X137463406Y-91547665D01*
X137524592Y-91547665D01*
X137564000Y-91571814D01*
X137592686Y-91600500D01*
X137592688Y-91600501D01*
X137592690Y-91600503D01*
X137706810Y-91666390D01*
X137706808Y-91666390D01*
X137706812Y-91666391D01*
X137706814Y-91666392D01*
X137834108Y-91700500D01*
X137834110Y-91700500D01*
X137965890Y-91700500D01*
X137965892Y-91700500D01*
X138093186Y-91666392D01*
X138100998Y-91661882D01*
X138160846Y-91649159D01*
X138216742Y-91674044D01*
X138247336Y-91727031D01*
X138249500Y-91747617D01*
X138249500Y-92417766D01*
X138249501Y-92417769D01*
X138252414Y-92442896D01*
X138259618Y-92459211D01*
X138297794Y-92545671D01*
X138324156Y-92572033D01*
X138320000Y-92630000D01*
X138386722Y-92629301D01*
X138418714Y-92643427D01*
X138418716Y-92643428D01*
X138436583Y-92651316D01*
X138480009Y-92670491D01*
X138505135Y-92673406D01*
X138794864Y-92673405D01*
X138819991Y-92670491D01*
X138881283Y-92643428D01*
X138907458Y-92631871D01*
X138946405Y-92623440D01*
X139000244Y-92622877D01*
X139041261Y-92631305D01*
X139130009Y-92670491D01*
X139155135Y-92673406D01*
X139444864Y-92673405D01*
X139469991Y-92670491D01*
X139572765Y-92625112D01*
X139572765Y-92625111D01*
X139573249Y-92624898D01*
X139612195Y-92616469D01*
X140012895Y-92612273D01*
X140071279Y-92630571D01*
X140107759Y-92679691D01*
X140108400Y-92740873D01*
X140089348Y-92775401D01*
X139101348Y-93937255D01*
X139049248Y-93969337D01*
X139009655Y-93970775D01*
X138308543Y-93853923D01*
X138297594Y-93851453D01*
X135450295Y-93037072D01*
X135450293Y-93037072D01*
X135394973Y-93037692D01*
X133721622Y-93056468D01*
X133663222Y-93038214D01*
X133626706Y-92989121D01*
X133622687Y-92972686D01*
X133541812Y-92452321D01*
X133551559Y-92391920D01*
X133594948Y-92348781D01*
X133655408Y-92339384D01*
X133709642Y-92367116D01*
X133781312Y-92438786D01*
X133886251Y-92490087D01*
X133954284Y-92499999D01*
X134399998Y-92499999D01*
X134400000Y-92499998D01*
X134400000Y-92100001D01*
X134600000Y-92100001D01*
X134600000Y-92499998D01*
X134600001Y-92499999D01*
X135045713Y-92499999D01*
X135045716Y-92499998D01*
X135113750Y-92490087D01*
X135218688Y-92438785D01*
X135301286Y-92356187D01*
X135352587Y-92251248D01*
X135362500Y-92183215D01*
X135362500Y-92100001D01*
X135362499Y-92100000D01*
X134600001Y-92100000D01*
X134600000Y-92100001D01*
X134400000Y-92100001D01*
X134400000Y-92047501D01*
X135605001Y-92047501D01*
X135605001Y-92459203D01*
X135607850Y-92489600D01*
X135607850Y-92489602D01*
X135652654Y-92617647D01*
X135733207Y-92726790D01*
X135733209Y-92726792D01*
X135842352Y-92807345D01*
X135970398Y-92852149D01*
X136000789Y-92854999D01*
X136399998Y-92854999D01*
X136400000Y-92854998D01*
X136400000Y-92047501D01*
X136600000Y-92047501D01*
X136600000Y-92854998D01*
X136600001Y-92854999D01*
X136999203Y-92854999D01*
X137029600Y-92852149D01*
X137029602Y-92852149D01*
X137157647Y-92807345D01*
X137266790Y-92726792D01*
X137266792Y-92726790D01*
X137347345Y-92617647D01*
X137392149Y-92489601D01*
X137394999Y-92459211D01*
X137395000Y-92459210D01*
X137395000Y-92047501D01*
X137394999Y-92047500D01*
X136600001Y-92047500D01*
X136600000Y-92047501D01*
X136400000Y-92047501D01*
X136399999Y-92047500D01*
X135605002Y-92047500D01*
X135605001Y-92047501D01*
X134400000Y-92047501D01*
X134400000Y-91500001D01*
X134600000Y-91500001D01*
X134600000Y-91899999D01*
X134600001Y-91900000D01*
X135362498Y-91900000D01*
X135362499Y-91899999D01*
X135362499Y-91816786D01*
X135362498Y-91816783D01*
X135352587Y-91748749D01*
X135301285Y-91643811D01*
X135218687Y-91561213D01*
X135113748Y-91509912D01*
X135045716Y-91500000D01*
X134600001Y-91500000D01*
X134600000Y-91500001D01*
X134400000Y-91500001D01*
X134399999Y-91500000D01*
X133954286Y-91500000D01*
X133954283Y-91500001D01*
X133886249Y-91509912D01*
X133781311Y-91561214D01*
X133698713Y-91643812D01*
X133647412Y-91748751D01*
X133638213Y-91811888D01*
X133611113Y-91866745D01*
X133556944Y-91895196D01*
X133496398Y-91886374D01*
X133452601Y-91843649D01*
X133442421Y-91812818D01*
X133442276Y-91811888D01*
X133383823Y-91435788D01*
X135605000Y-91435788D01*
X135605000Y-91847499D01*
X135605001Y-91847500D01*
X136399999Y-91847500D01*
X136400000Y-91847499D01*
X136400000Y-91094731D01*
X136367114Y-91073827D01*
X136343309Y-91066093D01*
X136307345Y-91016593D01*
X136302500Y-90986000D01*
X136302500Y-90680000D01*
X135885002Y-90680000D01*
X135885001Y-90680001D01*
X135885001Y-90724791D01*
X135887909Y-90749874D01*
X135933213Y-90852477D01*
X135972467Y-90891731D01*
X136000244Y-90946248D01*
X135990673Y-91006680D01*
X135947408Y-91049945D01*
X135935161Y-91055179D01*
X135842354Y-91087653D01*
X135733209Y-91168207D01*
X135733207Y-91168209D01*
X135652654Y-91277352D01*
X135607850Y-91405398D01*
X135605000Y-91435788D01*
X133383823Y-91435788D01*
X133187953Y-90175513D01*
X133197700Y-90115109D01*
X133241089Y-90071970D01*
X133286889Y-90061315D01*
X135911982Y-90090866D01*
G37*
%TD.AperFunction*%
%TD*%
%TA.AperFunction,Conductor*%
%TO.N,VIN*%
G36*
X132116502Y-90176050D02*
G01*
X132735798Y-90403126D01*
X132951479Y-90482209D01*
X132999604Y-90519993D01*
X133013142Y-90549979D01*
X133073067Y-90777845D01*
X133075149Y-90787820D01*
X133113913Y-91037233D01*
X133177825Y-91448459D01*
X133178609Y-91453502D01*
X133180761Y-91467348D01*
X133195096Y-91559584D01*
X133185349Y-91619988D01*
X133141959Y-91663127D01*
X133081500Y-91672524D01*
X133027266Y-91644792D01*
X132943687Y-91561213D01*
X132838748Y-91509912D01*
X132770716Y-91500000D01*
X132325001Y-91500000D01*
X132325000Y-91500001D01*
X132325000Y-91900000D01*
X133087498Y-91900000D01*
X133100399Y-91887099D01*
X133154915Y-91859321D01*
X133215347Y-91868892D01*
X133255737Y-91909281D01*
X133256272Y-91908937D01*
X133257874Y-91911418D01*
X133258612Y-91912156D01*
X133259384Y-91913704D01*
X133259488Y-91913917D01*
X133259489Y-91913919D01*
X133309102Y-91990749D01*
X133352899Y-92033474D01*
X133366172Y-92044278D01*
X133387514Y-92061651D01*
X133386983Y-92062302D01*
X133391801Y-92064177D01*
X133404283Y-92083594D01*
X133419684Y-92100784D01*
X133424887Y-92115645D01*
X133433818Y-92149603D01*
X133430333Y-92210689D01*
X133408169Y-92244546D01*
X133408175Y-92244552D01*
X133408144Y-92244585D01*
X133407888Y-92244977D01*
X133406677Y-92246180D01*
X133406670Y-92246188D01*
X133382979Y-92274398D01*
X133382979Y-92274399D01*
X133357202Y-92338124D01*
X133339660Y-92359011D01*
X133323617Y-92381093D01*
X133320177Y-92382210D01*
X133317853Y-92384978D01*
X133265426Y-92400000D01*
X133163463Y-92400000D01*
X133105272Y-92381093D01*
X133069308Y-92331593D01*
X133069308Y-92270407D01*
X133074521Y-92257521D01*
X133077587Y-92251247D01*
X133087500Y-92183215D01*
X133087500Y-92100001D01*
X133087499Y-92100000D01*
X132324000Y-92100000D01*
X132309088Y-92095155D01*
X132293407Y-92095155D01*
X132280721Y-92085938D01*
X132265809Y-92081093D01*
X132256592Y-92068407D01*
X132243907Y-92059191D01*
X132239061Y-92044278D01*
X132229845Y-92031593D01*
X132225000Y-92001000D01*
X132225000Y-92000000D01*
X132224000Y-92000000D01*
X132165809Y-91981093D01*
X132129845Y-91931593D01*
X132125000Y-91901000D01*
X132125000Y-91500001D01*
X132124999Y-91500000D01*
X131679286Y-91500000D01*
X131679283Y-91500001D01*
X131611249Y-91509912D01*
X131506310Y-91561214D01*
X131466043Y-91601481D01*
X131411526Y-91629258D01*
X131351094Y-91619686D01*
X131307830Y-91576421D01*
X131297699Y-91542877D01*
X131297090Y-91537626D01*
X131251786Y-91435022D01*
X131172477Y-91355713D01*
X131069872Y-91310409D01*
X131044797Y-91307500D01*
X131000001Y-91307500D01*
X131000000Y-91307501D01*
X131000000Y-91726000D01*
X130995155Y-91740911D01*
X130995155Y-91756593D01*
X130985938Y-91769278D01*
X130981093Y-91784191D01*
X130968407Y-91793407D01*
X130959191Y-91806093D01*
X130944278Y-91810938D01*
X130931593Y-91820155D01*
X130901000Y-91825000D01*
X130900000Y-91825000D01*
X130900000Y-91826000D01*
X130881093Y-91884191D01*
X130831593Y-91920155D01*
X130801000Y-91925000D01*
X130500002Y-91925000D01*
X130500001Y-91925001D01*
X130500001Y-92087291D01*
X130502909Y-92112374D01*
X130502910Y-92112376D01*
X130524385Y-92161013D01*
X130530593Y-92221882D01*
X130499836Y-92274776D01*
X130443864Y-92299489D01*
X130433820Y-92300000D01*
X129459622Y-92300000D01*
X129401431Y-92281093D01*
X129365467Y-92231593D01*
X129364289Y-92227693D01*
X129357389Y-92203051D01*
X129286704Y-91950601D01*
X129289221Y-91889470D01*
X129327191Y-91841491D01*
X129386110Y-91824994D01*
X129423877Y-91834186D01*
X129498553Y-91869008D01*
X129498551Y-91869008D01*
X129544061Y-91874999D01*
X129718182Y-91874999D01*
X129718182Y-91550001D01*
X129918182Y-91550001D01*
X129918182Y-91874998D01*
X129918183Y-91874999D01*
X130092299Y-91874999D01*
X130092309Y-91874998D01*
X130137807Y-91869009D01*
X130137812Y-91869008D01*
X130237687Y-91822435D01*
X130315616Y-91744506D01*
X130320702Y-91733599D01*
X130362429Y-91688849D01*
X130422489Y-91677172D01*
X130477943Y-91703028D01*
X130480432Y-91705431D01*
X130500001Y-91725000D01*
X130800000Y-91725000D01*
X130800000Y-91307499D01*
X130755212Y-91307500D01*
X130755207Y-91307501D01*
X130730125Y-91310409D01*
X130627522Y-91355713D01*
X130550256Y-91432979D01*
X130542599Y-91447733D01*
X130516228Y-91507461D01*
X130475428Y-91553057D01*
X130415619Y-91565963D01*
X130379465Y-91550000D01*
X129918183Y-91550000D01*
X129918182Y-91550001D01*
X129718182Y-91550001D01*
X129718182Y-91025001D01*
X129918182Y-91025001D01*
X129918182Y-91349999D01*
X129918183Y-91350000D01*
X130368180Y-91350000D01*
X130368181Y-91349999D01*
X130368181Y-91300883D01*
X130368180Y-91300872D01*
X130362191Y-91255374D01*
X130362190Y-91255369D01*
X130315617Y-91155494D01*
X130237687Y-91077564D01*
X130137812Y-91030991D01*
X130092303Y-91025000D01*
X129918183Y-91025000D01*
X129918182Y-91025001D01*
X129718182Y-91025001D01*
X129718181Y-91025000D01*
X129544066Y-91025000D01*
X129544054Y-91025001D01*
X129498556Y-91030990D01*
X129498551Y-91030991D01*
X129398676Y-91077564D01*
X129369004Y-91107237D01*
X129314487Y-91135014D01*
X129254055Y-91125443D01*
X129210790Y-91082178D01*
X129200000Y-91037233D01*
X129200000Y-90403126D01*
X129218907Y-90344935D01*
X129268407Y-90308971D01*
X129292821Y-90304319D01*
X130800000Y-90210121D01*
X130882256Y-90177118D01*
X130919119Y-90170000D01*
X132082422Y-90170000D01*
X132116502Y-90176050D01*
G37*
%TD.AperFunction*%
%TD*%
%TA.AperFunction,Conductor*%
%TO.N,GND*%
G36*
X123612640Y-90355385D02*
G01*
X123562640Y-92105385D01*
X123462640Y-92805385D01*
X122712640Y-92955385D01*
X122624946Y-92959111D01*
X122624946Y-92954380D01*
X122649097Y-92914969D01*
X122699309Y-92864756D01*
X122773178Y-92754202D01*
X122824059Y-92631364D01*
X122824059Y-92631362D01*
X122849999Y-92500957D01*
X122850000Y-92500953D01*
X122850000Y-92384474D01*
X122849999Y-92384473D01*
X122450000Y-92384473D01*
X122450000Y-92184473D01*
X122849999Y-92184473D01*
X122850000Y-92184472D01*
X122850000Y-92067992D01*
X122849999Y-92067988D01*
X122824059Y-91937583D01*
X122824059Y-91937581D01*
X122773178Y-91814743D01*
X122699309Y-91704189D01*
X122605283Y-91610163D01*
X122494729Y-91536294D01*
X122371890Y-91485413D01*
X122275000Y-91466140D01*
X122275000Y-91878236D01*
X122229701Y-91859473D01*
X122120299Y-91859473D01*
X122075000Y-91878236D01*
X122075000Y-91466140D01*
X121978110Y-91485413D01*
X121978108Y-91485413D01*
X121855270Y-91536294D01*
X121744716Y-91610163D01*
X121650690Y-91704189D01*
X121576821Y-91814743D01*
X121525940Y-91937581D01*
X121525940Y-91937583D01*
X121500000Y-92067988D01*
X121500000Y-92184472D01*
X121500001Y-92184473D01*
X121900000Y-92184473D01*
X121900000Y-92384473D01*
X121500001Y-92384473D01*
X121500000Y-92384474D01*
X121500000Y-92500957D01*
X121525940Y-92631362D01*
X121525940Y-92631364D01*
X121576821Y-92754202D01*
X121650690Y-92864756D01*
X121700903Y-92914969D01*
X121728680Y-92969486D01*
X121724261Y-92997381D01*
X121662640Y-93000000D01*
X120612640Y-93155385D01*
X118585640Y-93221385D01*
X118653491Y-91726532D01*
X118656271Y-91730693D01*
X118753779Y-91828201D01*
X118868428Y-91904806D01*
X118995816Y-91957571D01*
X119131055Y-91984472D01*
X119131057Y-91984473D01*
X119374999Y-91984473D01*
X119375000Y-91984472D01*
X119375000Y-91534473D01*
X119575000Y-91534473D01*
X119575000Y-91984472D01*
X119575001Y-91984473D01*
X119818943Y-91984473D01*
X119818944Y-91984472D01*
X119911665Y-91966029D01*
X119911666Y-91966028D01*
X119954181Y-91957571D01*
X119954183Y-91957571D01*
X120081571Y-91904806D01*
X120196220Y-91828201D01*
X120293728Y-91730693D01*
X120370333Y-91616044D01*
X120423098Y-91488656D01*
X120423098Y-91488654D01*
X120443822Y-91384473D01*
X120029177Y-91384473D01*
X120050000Y-91334201D01*
X120050000Y-91234745D01*
X120029177Y-91184473D01*
X120443822Y-91184473D01*
X120423098Y-91080291D01*
X120423098Y-91080289D01*
X120370333Y-90952901D01*
X120293728Y-90838252D01*
X120196220Y-90740744D01*
X120081571Y-90664139D01*
X119954183Y-90611374D01*
X119818944Y-90584473D01*
X119575001Y-90584473D01*
X119575000Y-90584474D01*
X119575000Y-91034473D01*
X119375000Y-91034473D01*
X119375000Y-90584474D01*
X119374999Y-90584473D01*
X119131055Y-90584473D01*
X118995816Y-90611374D01*
X118868428Y-90664139D01*
X118753776Y-90740746D01*
X118695595Y-90798926D01*
X118717855Y-90308509D01*
X123612640Y-90355385D01*
G37*
%TD.AperFunction*%
%TD*%
%TA.AperFunction,Conductor*%
%TO.N,GND*%
G36*
X133298634Y-92613627D02*
G01*
X133325257Y-92620261D01*
X133327476Y-92622905D01*
X133330763Y-92623963D01*
X133346951Y-92646108D01*
X133364592Y-92667126D01*
X133365971Y-92672127D01*
X133366871Y-92673358D01*
X133366876Y-92675410D01*
X133370631Y-92689021D01*
X133419621Y-93004227D01*
X133423069Y-93021503D01*
X133425101Y-93029809D01*
X133427088Y-93037935D01*
X133427089Y-93037938D01*
X133427090Y-93037940D01*
X133436628Y-93058216D01*
X133461818Y-93111767D01*
X133497654Y-93159945D01*
X133497872Y-94451040D01*
X133697872Y-94551040D01*
X133697872Y-95151040D01*
X132577001Y-95118821D01*
X132027184Y-94569003D01*
X131999407Y-94514486D01*
X132008978Y-94454054D01*
X132052243Y-94410789D01*
X132097188Y-94399999D01*
X132124999Y-94399999D01*
X132125000Y-94399998D01*
X132125000Y-94000001D01*
X132325000Y-94000001D01*
X132325000Y-94399998D01*
X132325001Y-94399999D01*
X132770713Y-94399999D01*
X132770716Y-94399998D01*
X132838750Y-94390087D01*
X132943688Y-94338785D01*
X133026286Y-94256187D01*
X133077587Y-94151248D01*
X133087500Y-94083215D01*
X133087500Y-94000001D01*
X133087499Y-94000000D01*
X132325001Y-94000000D01*
X132325000Y-94000001D01*
X132125000Y-94000001D01*
X132125000Y-93799999D01*
X132325000Y-93799999D01*
X132325001Y-93800000D01*
X133087498Y-93800000D01*
X133087499Y-93799999D01*
X133087499Y-93716786D01*
X133087498Y-93716783D01*
X133077587Y-93648749D01*
X133026285Y-93543811D01*
X132977478Y-93495004D01*
X132949701Y-93440487D01*
X132959272Y-93380055D01*
X132977478Y-93354996D01*
X133026286Y-93306187D01*
X133077587Y-93201248D01*
X133087500Y-93133215D01*
X133087500Y-93050001D01*
X133087499Y-93050000D01*
X132325000Y-93050000D01*
X132325000Y-93799999D01*
X132125000Y-93799999D01*
X132125000Y-93049000D01*
X132143907Y-92990809D01*
X132193407Y-92954845D01*
X132224000Y-92950000D01*
X132225000Y-92950000D01*
X132225000Y-92949000D01*
X132243907Y-92890809D01*
X132293407Y-92854845D01*
X132324000Y-92850000D01*
X133087498Y-92850000D01*
X133087499Y-92849999D01*
X133087499Y-92766786D01*
X133087498Y-92766785D01*
X133080504Y-92718773D01*
X133084292Y-92696636D01*
X133084227Y-92674182D01*
X133089349Y-92667088D01*
X133090825Y-92658464D01*
X133106899Y-92642783D01*
X133120046Y-92624577D01*
X133128338Y-92621869D01*
X133134623Y-92615739D01*
X133178181Y-92605500D01*
X133265426Y-92605500D01*
X133267275Y-92605240D01*
X133272517Y-92605225D01*
X133298634Y-92613627D01*
G37*
%TD.AperFunction*%
%TA.AperFunction,Conductor*%
G36*
X130482684Y-92524407D02*
G01*
X130494497Y-92534496D01*
X130500001Y-92540000D01*
X130801000Y-92540000D01*
X130859191Y-92558907D01*
X130895155Y-92608407D01*
X130900000Y-92639000D01*
X130900000Y-92640000D01*
X130901000Y-92640000D01*
X130959191Y-92658907D01*
X130995155Y-92708407D01*
X131000000Y-92739000D01*
X131000000Y-93157498D01*
X131000001Y-93157499D01*
X131044790Y-93157499D01*
X131044791Y-93157498D01*
X131069874Y-93154590D01*
X131172478Y-93109286D01*
X131195769Y-93085995D01*
X131250285Y-93058216D01*
X131310718Y-93067787D01*
X131353983Y-93111050D01*
X131363740Y-93141724D01*
X131372412Y-93201250D01*
X131423714Y-93306188D01*
X131472522Y-93354996D01*
X131500299Y-93409513D01*
X131490728Y-93469945D01*
X131472522Y-93495004D01*
X131423713Y-93543812D01*
X131372412Y-93648751D01*
X131367099Y-93685218D01*
X131339999Y-93740075D01*
X131285830Y-93768526D01*
X131225284Y-93759704D01*
X131199131Y-93740949D01*
X131177713Y-93719532D01*
X131177712Y-93719531D01*
X131177711Y-93719530D01*
X131097787Y-93673386D01*
X131035299Y-93656642D01*
X130983985Y-93623319D01*
X130967480Y-93593717D01*
X130954116Y-93555525D01*
X130954115Y-93555523D01*
X130954114Y-93555521D01*
X130875714Y-93449293D01*
X130875713Y-93449292D01*
X130875711Y-93449289D01*
X130863785Y-93440487D01*
X130769477Y-93370884D01*
X130741715Y-93361169D01*
X130697872Y-93313673D01*
X129697872Y-93313673D01*
X129570389Y-92740001D01*
X130500001Y-92740001D01*
X130500001Y-92902291D01*
X130502909Y-92927374D01*
X130548213Y-93029977D01*
X130627522Y-93109286D01*
X130687315Y-93135687D01*
X130757768Y-93157499D01*
X130800000Y-93157498D01*
X130800000Y-92740000D01*
X130500002Y-92740000D01*
X130500001Y-92740001D01*
X129570389Y-92740001D01*
X129521697Y-92520889D01*
X129572602Y-92505500D01*
X130424493Y-92505500D01*
X130482684Y-92524407D01*
G37*
%TD.AperFunction*%
%TD*%
%TA.AperFunction,Conductor*%
%TO.N,GND*%
G36*
X133498331Y-93160856D02*
G01*
X133498336Y-93160863D01*
X133522881Y-93188329D01*
X133522883Y-93188331D01*
X133601914Y-93234356D01*
X133660314Y-93252610D01*
X133723928Y-93261955D01*
X133759568Y-93261555D01*
X133817964Y-93279807D01*
X133854482Y-93328900D01*
X133855169Y-93390081D01*
X133819764Y-93439982D01*
X133804159Y-93449488D01*
X133781019Y-93460800D01*
X133698301Y-93543518D01*
X133646927Y-93648604D01*
X133643477Y-93672288D01*
X133637000Y-93716740D01*
X133637000Y-94083260D01*
X133641223Y-94112246D01*
X133646927Y-94151395D01*
X133680187Y-94219428D01*
X133698302Y-94256483D01*
X133781017Y-94339198D01*
X133811768Y-94354231D01*
X133886104Y-94390572D01*
X133886105Y-94390572D01*
X133886107Y-94390573D01*
X133954240Y-94400500D01*
X133954243Y-94400500D01*
X135045757Y-94400500D01*
X135045760Y-94400500D01*
X135113893Y-94390573D01*
X135218983Y-94339198D01*
X135301698Y-94256483D01*
X135353073Y-94151393D01*
X135354618Y-94140788D01*
X135605000Y-94140788D01*
X135605000Y-94552499D01*
X135605001Y-94552500D01*
X136399999Y-94552500D01*
X136400000Y-94552499D01*
X136400000Y-93745001D01*
X136399999Y-93745000D01*
X136000796Y-93745000D01*
X135970399Y-93747850D01*
X135970397Y-93747850D01*
X135842352Y-93792654D01*
X135733209Y-93873207D01*
X135733207Y-93873209D01*
X135652654Y-93982352D01*
X135607850Y-94110398D01*
X135605000Y-94140788D01*
X135354618Y-94140788D01*
X135363000Y-94083260D01*
X135363000Y-93716740D01*
X135353073Y-93648607D01*
X135351874Y-93646155D01*
X135325981Y-93593190D01*
X135301698Y-93543517D01*
X135218983Y-93460802D01*
X135162666Y-93433270D01*
X135118693Y-93390728D01*
X135108123Y-93330462D01*
X135134995Y-93275494D01*
X135189045Y-93246818D01*
X135205032Y-93245336D01*
X135408168Y-93243057D01*
X135436503Y-93246868D01*
X135814549Y-93354996D01*
X136566862Y-93570171D01*
X136617610Y-93604351D01*
X136638575Y-93661832D01*
X136621750Y-93720659D01*
X136609642Y-93735357D01*
X136600000Y-93744999D01*
X136600000Y-94552499D01*
X136600001Y-94552500D01*
X137394998Y-94552500D01*
X137394999Y-94552499D01*
X137394999Y-94140796D01*
X137392149Y-94110399D01*
X137392149Y-94110397D01*
X137347344Y-93982352D01*
X137343221Y-93976765D01*
X137323879Y-93918717D01*
X137342350Y-93860386D01*
X137391580Y-93824053D01*
X137450097Y-93822793D01*
X138077725Y-94002306D01*
X138128472Y-94036485D01*
X138149437Y-94093966D01*
X138149500Y-94097488D01*
X138149500Y-94859889D01*
X138130593Y-94918080D01*
X138120504Y-94929893D01*
X136579893Y-96470504D01*
X136525376Y-96498281D01*
X136509889Y-96499500D01*
X136209733Y-96499500D01*
X136180155Y-96502274D01*
X136180147Y-96502276D01*
X136055523Y-96545884D01*
X135949293Y-96624285D01*
X135949285Y-96624293D01*
X135870884Y-96730523D01*
X135827276Y-96855147D01*
X135827274Y-96855155D01*
X135824500Y-96884733D01*
X135824500Y-97050500D01*
X135805593Y-97108691D01*
X135756093Y-97144655D01*
X135725500Y-97149500D01*
X134712069Y-97149500D01*
X134653878Y-97130593D01*
X134617914Y-97081093D01*
X134617914Y-97019907D01*
X134653878Y-96970407D01*
X134679371Y-96957056D01*
X134690938Y-96953008D01*
X134690943Y-96953005D01*
X134798569Y-96873575D01*
X134798575Y-96873569D01*
X134878005Y-96765943D01*
X134878008Y-96765938D01*
X134922186Y-96639684D01*
X134922188Y-96639675D01*
X134924999Y-96609703D01*
X134925000Y-96609702D01*
X134925000Y-96200001D01*
X134924999Y-96200000D01*
X133550002Y-96200000D01*
X133550001Y-96200001D01*
X133550001Y-96609695D01*
X133552811Y-96639678D01*
X133596991Y-96765938D01*
X133596994Y-96765943D01*
X133676424Y-96873569D01*
X133676430Y-96873575D01*
X133784056Y-96953005D01*
X133784061Y-96953008D01*
X133910315Y-96997186D01*
X133910324Y-96997188D01*
X133940296Y-96999999D01*
X133943739Y-96999999D01*
X134001933Y-97018896D01*
X134037905Y-97068390D01*
X134037916Y-97129575D01*
X134001961Y-97179082D01*
X133993257Y-97184735D01*
X133898388Y-97239509D01*
X133314183Y-97823714D01*
X133254876Y-97926436D01*
X133254876Y-97926437D01*
X133254877Y-97926438D01*
X133227365Y-98029116D01*
X133224176Y-98041016D01*
X133224176Y-98555266D01*
X133218986Y-98586899D01*
X133159046Y-98764656D01*
X133154087Y-98771324D01*
X133147551Y-98788025D01*
X133141852Y-98796554D01*
X133129541Y-98811555D01*
X132907438Y-99033657D01*
X132886616Y-98983386D01*
X132816290Y-98913060D01*
X132766015Y-98892235D01*
X132978835Y-98679416D01*
X133007143Y-98595466D01*
X132970721Y-98571130D01*
X132856983Y-98524019D01*
X132736233Y-98500000D01*
X132613118Y-98500000D01*
X132492368Y-98524019D01*
X132378630Y-98571130D01*
X132316534Y-98612620D01*
X132358711Y-98667612D01*
X132583335Y-98892236D01*
X132533062Y-98913060D01*
X132462736Y-98983386D01*
X132441912Y-99033658D01*
X132219808Y-98811554D01*
X132207497Y-98796552D01*
X132203594Y-98790711D01*
X132160534Y-98726267D01*
X132104672Y-98670405D01*
X132073417Y-98639149D01*
X132073412Y-98639145D01*
X132073409Y-98639142D01*
X131970962Y-98570689D01*
X131970963Y-98570689D01*
X131970961Y-98570688D01*
X131857126Y-98523536D01*
X131736284Y-98499500D01*
X131736282Y-98499500D01*
X131613070Y-98499500D01*
X131613067Y-98499500D01*
X131492225Y-98523536D01*
X131378390Y-98570688D01*
X131275943Y-98639142D01*
X131275939Y-98639145D01*
X131244680Y-98670405D01*
X131190163Y-98698182D01*
X131129731Y-98688611D01*
X131104672Y-98670405D01*
X131073412Y-98639145D01*
X131073409Y-98639142D01*
X130970962Y-98570689D01*
X130970963Y-98570689D01*
X130970961Y-98570688D01*
X130857126Y-98523536D01*
X130736284Y-98499500D01*
X130736282Y-98499500D01*
X130613070Y-98499500D01*
X130613067Y-98499500D01*
X130492225Y-98523536D01*
X130378390Y-98570688D01*
X130275943Y-98639142D01*
X130275939Y-98639145D01*
X130188821Y-98726263D01*
X130188818Y-98726267D01*
X130120364Y-98828714D01*
X130073212Y-98942549D01*
X130049176Y-99063391D01*
X130049176Y-99186608D01*
X130073212Y-99307450D01*
X130118909Y-99417770D01*
X130120365Y-99421286D01*
X130123777Y-99426393D01*
X130136544Y-99445499D01*
X130153152Y-99504387D01*
X130131974Y-99561790D01*
X130081100Y-99595783D01*
X130054228Y-99599500D01*
X118609500Y-99599500D01*
X118551309Y-99580593D01*
X118515345Y-99531093D01*
X118510500Y-99500500D01*
X118510500Y-98823930D01*
X118529407Y-98765739D01*
X118578907Y-98729775D01*
X118640093Y-98729775D01*
X118679504Y-98753926D01*
X118712640Y-98787062D01*
X118712640Y-99305385D01*
X123062640Y-99255385D01*
X123062640Y-97707682D01*
X123068830Y-97730784D01*
X123068830Y-97730786D01*
X123073383Y-97747782D01*
X123073384Y-97747784D01*
X123073385Y-97747787D01*
X123073386Y-97747788D01*
X123119530Y-97827712D01*
X123370505Y-98078687D01*
X123398281Y-98133202D01*
X123399500Y-98148689D01*
X123399500Y-98590266D01*
X123402274Y-98619844D01*
X123402276Y-98619852D01*
X123445884Y-98744476D01*
X123524021Y-98850348D01*
X123524289Y-98850711D01*
X123524292Y-98850713D01*
X123524293Y-98850714D01*
X123630523Y-98929115D01*
X123630524Y-98929115D01*
X123630525Y-98929116D01*
X123755151Y-98972725D01*
X123779412Y-98975000D01*
X123784733Y-98975499D01*
X123784738Y-98975500D01*
X123784744Y-98975500D01*
X124390262Y-98975500D01*
X124390265Y-98975499D01*
X124419849Y-98972725D01*
X124544475Y-98929116D01*
X124650711Y-98850711D01*
X124729116Y-98744475D01*
X124772725Y-98619849D01*
X124775500Y-98590256D01*
X124775500Y-98400001D01*
X125225000Y-98400001D01*
X125225000Y-98590201D01*
X125227771Y-98619758D01*
X125227772Y-98619759D01*
X125271330Y-98744240D01*
X125349641Y-98850348D01*
X125349651Y-98850358D01*
X125455759Y-98928669D01*
X125580240Y-98972227D01*
X125580241Y-98972228D01*
X125609799Y-98975000D01*
X125812499Y-98975000D01*
X125812500Y-98974999D01*
X125812500Y-98400001D01*
X126012500Y-98400001D01*
X126012500Y-98974999D01*
X126012501Y-98975000D01*
X126215201Y-98975000D01*
X126244758Y-98972228D01*
X126244759Y-98972227D01*
X126369240Y-98928669D01*
X126475348Y-98850358D01*
X126475358Y-98850348D01*
X126553669Y-98744240D01*
X126597227Y-98619759D01*
X126597228Y-98619758D01*
X126600000Y-98590201D01*
X126600000Y-98400001D01*
X126599999Y-98400000D01*
X126012501Y-98400000D01*
X126012500Y-98400001D01*
X125812500Y-98400001D01*
X125812499Y-98400000D01*
X125225001Y-98400000D01*
X125225000Y-98400001D01*
X124775500Y-98400001D01*
X124775500Y-98009744D01*
X124775500Y-98009738D01*
X124775499Y-98009733D01*
X124772725Y-97980155D01*
X124772725Y-97980151D01*
X124764831Y-97957594D01*
X124763458Y-97896425D01*
X124798302Y-97846130D01*
X124856054Y-97825921D01*
X124904512Y-97837357D01*
X124981037Y-97877778D01*
X125040142Y-97893600D01*
X125104083Y-97900306D01*
X125104085Y-97900305D01*
X125104086Y-97900306D01*
X125108664Y-97900064D01*
X125121441Y-97899392D01*
X125180544Y-97915212D01*
X125219062Y-97962752D01*
X125225216Y-98007484D01*
X125225000Y-98009790D01*
X125225000Y-98199999D01*
X125225001Y-98200000D01*
X126599999Y-98200000D01*
X126600000Y-98199999D01*
X126600000Y-98009798D01*
X126597228Y-97980241D01*
X126586368Y-97949206D01*
X126584994Y-97888037D01*
X126619838Y-97837742D01*
X126674604Y-97817646D01*
X126902790Y-97805637D01*
X126907993Y-97805500D01*
X127016146Y-97805500D01*
X127026650Y-97805108D01*
X127031430Y-97804930D01*
X127046128Y-97803833D01*
X127046129Y-97803833D01*
X127060037Y-97800001D01*
X127122649Y-97782751D01*
X127177387Y-97755414D01*
X127208737Y-97736066D01*
X127267914Y-97666336D01*
X127296131Y-97612045D01*
X127316492Y-97551058D01*
X127360147Y-97289113D01*
X127388363Y-97234824D01*
X127443101Y-97207486D01*
X127458140Y-97206390D01*
X127981120Y-97208192D01*
X128524718Y-97210066D01*
X128524718Y-97210065D01*
X128524732Y-97210066D01*
X128583090Y-97201815D01*
X128637036Y-97186048D01*
X128666458Y-97174942D01*
X128738599Y-97118729D01*
X128777284Y-97071325D01*
X128809642Y-97015766D01*
X128871553Y-96856289D01*
X128882382Y-96817479D01*
X128889067Y-96779429D01*
X128890875Y-96766878D01*
X128890769Y-96765938D01*
X128880636Y-96676001D01*
X128880634Y-96675992D01*
X128872133Y-96651701D01*
X128860427Y-96618245D01*
X128845190Y-96584701D01*
X128791612Y-96526085D01*
X128783398Y-96508003D01*
X128771325Y-96492231D01*
X128771311Y-96481391D01*
X128766308Y-96470377D01*
X128769794Y-96431065D01*
X128770459Y-96428827D01*
X128805146Y-96329699D01*
X128807540Y-96304173D01*
X128810308Y-96294869D01*
X128822423Y-96277284D01*
X128830888Y-96257683D01*
X128839405Y-96252637D01*
X128845022Y-96244485D01*
X128865157Y-96237380D01*
X128883529Y-96226497D01*
X128901866Y-96224152D01*
X128953379Y-96222421D01*
X129012539Y-96206809D01*
X129031320Y-96200001D01*
X129047174Y-96194254D01*
X129047174Y-96194253D01*
X129047176Y-96194253D01*
X129119317Y-96138040D01*
X129158002Y-96090636D01*
X129190360Y-96035077D01*
X129242797Y-95900001D01*
X129697501Y-95900001D01*
X129697501Y-96299203D01*
X129700350Y-96329600D01*
X129700350Y-96329602D01*
X129745154Y-96457647D01*
X129825707Y-96566790D01*
X129825709Y-96566792D01*
X129934852Y-96647345D01*
X130062898Y-96692149D01*
X130093289Y-96694999D01*
X130504998Y-96694999D01*
X130505000Y-96694998D01*
X130505000Y-95900001D01*
X130504999Y-95900000D01*
X129697502Y-95900000D01*
X129697501Y-95900001D01*
X129242797Y-95900001D01*
X129268366Y-95834138D01*
X129290646Y-95799972D01*
X129516314Y-95574306D01*
X129525805Y-95564038D01*
X129579191Y-95534145D01*
X129639952Y-95541340D01*
X129684879Y-95582875D01*
X129697500Y-95631244D01*
X129697500Y-95699999D01*
X129697501Y-95700000D01*
X130504999Y-95700000D01*
X130505000Y-95699999D01*
X130505000Y-94905001D01*
X130504999Y-94905000D01*
X130093296Y-94905000D01*
X130062899Y-94907850D01*
X130062897Y-94907850D01*
X129934852Y-94952654D01*
X129825709Y-95033207D01*
X129825707Y-95033209D01*
X129784155Y-95089510D01*
X129734387Y-95125102D01*
X129673203Y-95124644D01*
X129623974Y-95088310D01*
X129605500Y-95030721D01*
X129605500Y-94640697D01*
X129624407Y-94582506D01*
X129673907Y-94546542D01*
X129735093Y-94546542D01*
X129763282Y-94561038D01*
X129855525Y-94629116D01*
X129980151Y-94672725D01*
X130007441Y-94675284D01*
X130009733Y-94675499D01*
X130009738Y-94675500D01*
X130009744Y-94675500D01*
X130615262Y-94675500D01*
X130615265Y-94675499D01*
X130644849Y-94672725D01*
X130769475Y-94629116D01*
X130875711Y-94550711D01*
X130875716Y-94550703D01*
X130876610Y-94549811D01*
X130877646Y-94549282D01*
X130881680Y-94546306D01*
X130882174Y-94546975D01*
X130931124Y-94522029D01*
X130991557Y-94531596D01*
X131016623Y-94549806D01*
X131204000Y-94737184D01*
X131231777Y-94791700D01*
X131222206Y-94852132D01*
X131178941Y-94895397D01*
X131124752Y-94905755D01*
X131116701Y-94905000D01*
X130705001Y-94905000D01*
X130705000Y-94905001D01*
X130705000Y-96694998D01*
X130705001Y-96694999D01*
X131116703Y-96694999D01*
X131147100Y-96692149D01*
X131147102Y-96692149D01*
X131275147Y-96647345D01*
X131384290Y-96566792D01*
X131384292Y-96566790D01*
X131464844Y-96457647D01*
X131482055Y-96408463D01*
X131519121Y-96359782D01*
X131577721Y-96342185D01*
X131635473Y-96362393D01*
X131670317Y-96412687D01*
X131674500Y-96441160D01*
X131674500Y-96609773D01*
X131677313Y-96639768D01*
X131677315Y-96639777D01*
X131721543Y-96766175D01*
X131721544Y-96766176D01*
X131721545Y-96766179D01*
X131801070Y-96873930D01*
X131908821Y-96953455D01*
X132035226Y-96997686D01*
X132065226Y-97000499D01*
X132065230Y-97000500D01*
X132065236Y-97000500D01*
X132659770Y-97000500D01*
X132659772Y-97000499D01*
X132689774Y-96997686D01*
X132816179Y-96953455D01*
X132923930Y-96873930D01*
X133003455Y-96766179D01*
X133047686Y-96639774D01*
X133050499Y-96609772D01*
X133050500Y-96609770D01*
X133050500Y-95590296D01*
X133550000Y-95590296D01*
X133550000Y-95999999D01*
X133550001Y-96000000D01*
X134137499Y-96000000D01*
X134137500Y-95999999D01*
X134137500Y-95200001D01*
X134337500Y-95200001D01*
X134337500Y-95999999D01*
X134337501Y-96000000D01*
X134924998Y-96000000D01*
X134924999Y-95999999D01*
X134924999Y-95590304D01*
X134922188Y-95560321D01*
X134878008Y-95434061D01*
X134878005Y-95434056D01*
X134798575Y-95326430D01*
X134798569Y-95326424D01*
X134690943Y-95246994D01*
X134690938Y-95246991D01*
X134564684Y-95202813D01*
X134564675Y-95202811D01*
X134534703Y-95200000D01*
X134337501Y-95200000D01*
X134337500Y-95200001D01*
X134137500Y-95200001D01*
X134137499Y-95200000D01*
X133940303Y-95200000D01*
X133910321Y-95202811D01*
X133784061Y-95246991D01*
X133784056Y-95246994D01*
X133676430Y-95326424D01*
X133676424Y-95326430D01*
X133596994Y-95434056D01*
X133596991Y-95434061D01*
X133552813Y-95560315D01*
X133552811Y-95560324D01*
X133550000Y-95590296D01*
X133050500Y-95590296D01*
X133050500Y-95590230D01*
X133050499Y-95590226D01*
X133049517Y-95579756D01*
X133047686Y-95560226D01*
X133003455Y-95433821D01*
X132923930Y-95326070D01*
X132816179Y-95246545D01*
X132816176Y-95246544D01*
X132816175Y-95246543D01*
X132689777Y-95202315D01*
X132689776Y-95202314D01*
X132689774Y-95202314D01*
X132689771Y-95202313D01*
X132683889Y-95201029D01*
X132684356Y-95198889D01*
X132636810Y-95178349D01*
X132632231Y-95174051D01*
X132577712Y-95119531D01*
X132577002Y-95118821D01*
X133697872Y-95151040D01*
X133697872Y-94752501D01*
X135605001Y-94752501D01*
X135605001Y-95164203D01*
X135607850Y-95194600D01*
X135607850Y-95194602D01*
X135652654Y-95322647D01*
X135733207Y-95431790D01*
X135733209Y-95431792D01*
X135842352Y-95512345D01*
X135970398Y-95557149D01*
X136000789Y-95559999D01*
X136399998Y-95559999D01*
X136400000Y-95559998D01*
X136400000Y-94752501D01*
X136600000Y-94752501D01*
X136600000Y-95559998D01*
X136600001Y-95559999D01*
X136999203Y-95559999D01*
X137029600Y-95557149D01*
X137029602Y-95557149D01*
X137157647Y-95512345D01*
X137266790Y-95431792D01*
X137266792Y-95431790D01*
X137347345Y-95322647D01*
X137392149Y-95194601D01*
X137394999Y-95164211D01*
X137395000Y-95164210D01*
X137395000Y-94752501D01*
X137394999Y-94752500D01*
X136600001Y-94752500D01*
X136600000Y-94752501D01*
X136400000Y-94752501D01*
X136399999Y-94752500D01*
X135605002Y-94752500D01*
X135605001Y-94752501D01*
X133697872Y-94752501D01*
X133697872Y-94551040D01*
X133497872Y-94451040D01*
X133497654Y-93159945D01*
X133498331Y-93160856D01*
G37*
%TD.AperFunction*%
%TA.AperFunction,Conductor*%
G36*
X151344001Y-93841407D02*
G01*
X151355814Y-93851496D01*
X152832732Y-95328414D01*
X152848462Y-95348914D01*
X152899500Y-95437314D01*
X152992686Y-95530500D01*
X152992688Y-95530501D01*
X152992690Y-95530503D01*
X153106810Y-95596390D01*
X153106808Y-95596390D01*
X153106812Y-95596391D01*
X153106814Y-95596392D01*
X153234108Y-95630500D01*
X153263810Y-95630500D01*
X153322001Y-95649407D01*
X153333814Y-95659496D01*
X154052504Y-96378186D01*
X154080281Y-96432703D01*
X154081500Y-96448190D01*
X154081500Y-97495548D01*
X154062593Y-97553739D01*
X154052504Y-97565551D01*
X153984022Y-97634033D01*
X153869058Y-97806090D01*
X153789869Y-97997269D01*
X153749500Y-98200220D01*
X153749500Y-98407155D01*
X153789869Y-98610106D01*
X153869058Y-98801285D01*
X153983610Y-98972725D01*
X153984023Y-98973343D01*
X154130345Y-99119665D01*
X154302402Y-99234629D01*
X154493580Y-99313818D01*
X154696535Y-99354188D01*
X154696536Y-99354188D01*
X154903464Y-99354188D01*
X154903465Y-99354188D01*
X155106420Y-99313818D01*
X155297598Y-99234629D01*
X155469655Y-99119665D01*
X155615977Y-98973343D01*
X155730941Y-98801286D01*
X155810130Y-98610108D01*
X155850500Y-98407153D01*
X155850500Y-98200223D01*
X155810130Y-97997268D01*
X155730941Y-97806090D01*
X155615977Y-97634033D01*
X155469655Y-97487711D01*
X155469651Y-97487708D01*
X155297597Y-97372746D01*
X155106418Y-97293557D01*
X154903467Y-97253188D01*
X154903465Y-97253188D01*
X154881500Y-97253188D01*
X154823309Y-97234281D01*
X154787345Y-97184781D01*
X154782500Y-97154188D01*
X154782500Y-96814083D01*
X154801407Y-96755892D01*
X154850907Y-96719928D01*
X154912093Y-96719928D01*
X154961593Y-96755892D01*
X154977127Y-96788461D01*
X154981609Y-96805189D01*
X155047496Y-96919309D01*
X155047498Y-96919311D01*
X155047500Y-96919314D01*
X155140686Y-97012500D01*
X155140688Y-97012501D01*
X155140690Y-97012503D01*
X155254810Y-97078390D01*
X155254808Y-97078390D01*
X155254812Y-97078391D01*
X155254814Y-97078392D01*
X155382108Y-97112500D01*
X155411810Y-97112500D01*
X155412770Y-97112811D01*
X155413735Y-97112519D01*
X155419755Y-97115081D01*
X155470001Y-97131407D01*
X155471547Y-97132554D01*
X155476992Y-97136674D01*
X155530788Y-97190470D01*
X155598444Y-97229531D01*
X155610712Y-97236614D01*
X155699856Y-97260500D01*
X155699857Y-97260500D01*
X155792144Y-97260500D01*
X156761088Y-97260500D01*
X156819279Y-97279407D01*
X156855243Y-97328907D01*
X156858185Y-97378812D01*
X156853822Y-97400754D01*
X156847954Y-97430251D01*
X156847954Y-99169746D01*
X156847955Y-99169758D01*
X156859586Y-99228227D01*
X156859588Y-99228233D01*
X156903899Y-99294548D01*
X156903902Y-99294552D01*
X156970223Y-99338867D01*
X157014685Y-99347711D01*
X157028695Y-99350498D01*
X157028700Y-99350498D01*
X157028706Y-99350500D01*
X157028707Y-99350500D01*
X158768201Y-99350500D01*
X158768202Y-99350500D01*
X158826685Y-99338867D01*
X158893006Y-99294552D01*
X158937321Y-99228231D01*
X158948954Y-99169748D01*
X158948954Y-97545190D01*
X158967861Y-97486999D01*
X159017361Y-97451035D01*
X159078547Y-97451035D01*
X159117958Y-97475186D01*
X159442479Y-97799707D01*
X159470256Y-97854224D01*
X159463939Y-97907596D01*
X159428324Y-97993578D01*
X159428324Y-97993580D01*
X159387954Y-98196532D01*
X159387954Y-98403467D01*
X159428323Y-98606418D01*
X159507512Y-98797597D01*
X159622259Y-98969329D01*
X159622477Y-98969655D01*
X159768799Y-99115977D01*
X159940856Y-99230941D01*
X160132034Y-99310130D01*
X160334989Y-99350500D01*
X160334990Y-99350500D01*
X160541918Y-99350500D01*
X160541919Y-99350500D01*
X160744874Y-99310130D01*
X160936052Y-99230941D01*
X161108109Y-99115977D01*
X161254431Y-98969655D01*
X161369395Y-98797598D01*
X161448584Y-98606420D01*
X161488954Y-98403465D01*
X161488954Y-98196535D01*
X161448584Y-97993580D01*
X161369395Y-97802402D01*
X161254431Y-97630345D01*
X161108109Y-97484023D01*
X161108105Y-97484020D01*
X160936051Y-97369058D01*
X160744872Y-97289869D01*
X160541921Y-97249500D01*
X160541919Y-97249500D01*
X160334989Y-97249500D01*
X160334986Y-97249500D01*
X160132034Y-97289870D01*
X160132032Y-97289870D01*
X160046050Y-97325485D01*
X159985053Y-97330285D01*
X159938161Y-97304025D01*
X159603543Y-96969407D01*
X159263666Y-96629530D01*
X159183742Y-96583386D01*
X159183741Y-96583385D01*
X159183740Y-96583385D01*
X159178681Y-96582030D01*
X159178681Y-96582029D01*
X159120054Y-96566321D01*
X159094598Y-96559500D01*
X159094596Y-96559500D01*
X159088330Y-96557821D01*
X159088736Y-96556303D01*
X159040534Y-96533311D01*
X159011340Y-96479540D01*
X159019327Y-96418878D01*
X159061444Y-96374497D01*
X159108682Y-96362500D01*
X162325810Y-96362500D01*
X162384001Y-96381407D01*
X162395814Y-96391496D01*
X163085314Y-97080996D01*
X163113091Y-97135513D01*
X163103520Y-97195945D01*
X163060255Y-97239210D01*
X163015310Y-97250000D01*
X162875035Y-97250000D01*
X162672181Y-97290349D01*
X162481093Y-97369501D01*
X162481084Y-97369505D01*
X162309119Y-97484410D01*
X162306702Y-97486825D01*
X162702087Y-97882210D01*
X162671447Y-97899901D01*
X162578355Y-97992993D01*
X162560664Y-98023633D01*
X162165279Y-97628248D01*
X162162864Y-97630665D01*
X162047959Y-97802630D01*
X162047955Y-97802639D01*
X161968803Y-97993727D01*
X161928454Y-98196581D01*
X161928454Y-98403418D01*
X161968803Y-98606272D01*
X162047955Y-98797360D01*
X162047962Y-98797374D01*
X162162859Y-98969329D01*
X162165280Y-98971750D01*
X162560664Y-98576365D01*
X162578355Y-98607007D01*
X162671447Y-98700099D01*
X162702086Y-98717788D01*
X162306703Y-99113173D01*
X162309124Y-99115594D01*
X162481079Y-99230491D01*
X162481093Y-99230498D01*
X162672181Y-99309650D01*
X162875035Y-99349999D01*
X162875040Y-99350000D01*
X163081868Y-99350000D01*
X163081872Y-99349999D01*
X163284726Y-99309650D01*
X163475814Y-99230498D01*
X163475820Y-99230495D01*
X163647787Y-99115591D01*
X163650204Y-99113173D01*
X163254820Y-98717789D01*
X163285461Y-98700099D01*
X163378553Y-98607007D01*
X163396243Y-98576366D01*
X163791627Y-98971750D01*
X163794045Y-98969333D01*
X163908949Y-98797366D01*
X163908952Y-98797360D01*
X163988104Y-98606272D01*
X164028453Y-98403418D01*
X164028454Y-98403413D01*
X164028454Y-98263144D01*
X164047361Y-98204953D01*
X164096861Y-98168989D01*
X164158047Y-98168989D01*
X164197458Y-98193140D01*
X164461659Y-98457341D01*
X164488753Y-98508031D01*
X164508323Y-98606417D01*
X164508325Y-98606423D01*
X164587512Y-98797597D01*
X164702259Y-98969329D01*
X164702477Y-98969655D01*
X164848799Y-99115977D01*
X165020856Y-99230941D01*
X165212034Y-99310130D01*
X165414989Y-99350500D01*
X165414990Y-99350500D01*
X165621918Y-99350500D01*
X165621919Y-99350500D01*
X165824874Y-99310130D01*
X166016052Y-99230941D01*
X166188109Y-99115977D01*
X166334431Y-98969655D01*
X166449395Y-98797598D01*
X166528584Y-98606420D01*
X166568954Y-98403465D01*
X166568954Y-98196535D01*
X166528584Y-97993580D01*
X166449395Y-97802402D01*
X166334431Y-97630345D01*
X166188109Y-97484023D01*
X166188105Y-97484020D01*
X166016051Y-97369058D01*
X165824872Y-97289869D01*
X165621921Y-97249500D01*
X165621919Y-97249500D01*
X165414989Y-97249500D01*
X165414986Y-97249500D01*
X165212035Y-97289869D01*
X165020856Y-97369058D01*
X164848799Y-97484022D01*
X164734255Y-97598566D01*
X164679739Y-97626343D01*
X164619307Y-97616771D01*
X164594248Y-97598566D01*
X164115186Y-97119504D01*
X164087409Y-97064987D01*
X164096980Y-97004555D01*
X164140245Y-96961290D01*
X164185190Y-96950500D01*
X166271310Y-96950500D01*
X166329501Y-96969407D01*
X166341314Y-96979496D01*
X168065504Y-98703686D01*
X168093281Y-98758203D01*
X168094500Y-98773690D01*
X168094500Y-99358260D01*
X168099262Y-99390941D01*
X168104427Y-99426395D01*
X168119399Y-99457020D01*
X168127970Y-99517602D01*
X168099294Y-99571652D01*
X168044326Y-99598524D01*
X168030458Y-99599500D01*
X144980372Y-99599500D01*
X144922181Y-99580593D01*
X144886217Y-99531093D01*
X144886217Y-99469907D01*
X144889807Y-99460514D01*
X144893587Y-99451950D01*
X144897585Y-99442897D01*
X144900500Y-99417771D01*
X144900499Y-97628042D01*
X144897585Y-97602915D01*
X144864691Y-97528418D01*
X144858484Y-97467551D01*
X144885251Y-97418430D01*
X145193948Y-97109733D01*
X145899500Y-97109733D01*
X145899500Y-97690266D01*
X145902274Y-97719844D01*
X145902276Y-97719852D01*
X145945884Y-97844476D01*
X146019197Y-97943812D01*
X146024289Y-97950711D01*
X146024292Y-97950713D01*
X146024293Y-97950714D01*
X146130521Y-98029114D01*
X146130523Y-98029114D01*
X146130525Y-98029116D01*
X146170698Y-98043173D01*
X146194180Y-98061052D01*
X146218093Y-98078426D01*
X146218452Y-98079533D01*
X146219378Y-98080238D01*
X146237000Y-98136617D01*
X146237000Y-98264178D01*
X146218093Y-98322369D01*
X146208004Y-98334181D01*
X146159500Y-98382684D01*
X146159496Y-98382690D01*
X146093609Y-98496809D01*
X146083517Y-98534473D01*
X146059500Y-98624108D01*
X146059500Y-98755892D01*
X146084907Y-98850714D01*
X146093609Y-98883190D01*
X146159496Y-98997309D01*
X146159498Y-98997311D01*
X146159500Y-98997314D01*
X146252686Y-99090500D01*
X146252688Y-99090501D01*
X146252690Y-99090503D01*
X146366810Y-99156390D01*
X146366808Y-99156390D01*
X146366812Y-99156391D01*
X146366814Y-99156392D01*
X146494108Y-99190500D01*
X146494110Y-99190500D01*
X146625890Y-99190500D01*
X146625892Y-99190500D01*
X146753186Y-99156392D01*
X146753188Y-99156390D01*
X146753190Y-99156390D01*
X146867309Y-99090503D01*
X146867309Y-99090502D01*
X146867314Y-99090500D01*
X146960500Y-98997314D01*
X146968541Y-98983386D01*
X147026390Y-98883190D01*
X147026390Y-98883188D01*
X147026392Y-98883186D01*
X147060500Y-98755892D01*
X147060500Y-98624108D01*
X147026392Y-98496814D01*
X147026390Y-98496811D01*
X147026390Y-98496809D01*
X146960501Y-98382686D01*
X146958458Y-98380024D01*
X146958005Y-98378746D01*
X146956907Y-98377948D01*
X146947829Y-98350010D01*
X146938034Y-98322348D01*
X146938000Y-98319757D01*
X146938000Y-98136617D01*
X146956907Y-98078426D01*
X147004301Y-98043173D01*
X147044475Y-98029116D01*
X147150711Y-97950711D01*
X147229116Y-97844475D01*
X147272725Y-97719849D01*
X147275500Y-97690256D01*
X147275500Y-97109744D01*
X147275500Y-97109738D01*
X147275499Y-97109733D01*
X147272725Y-97080155D01*
X147272725Y-97080151D01*
X147229116Y-96955525D01*
X147227588Y-96953455D01*
X147150714Y-96849293D01*
X147150713Y-96849292D01*
X147150711Y-96849289D01*
X147150706Y-96849285D01*
X147044476Y-96770884D01*
X146919852Y-96727276D01*
X146919851Y-96727275D01*
X146919849Y-96727275D01*
X146919847Y-96727274D01*
X146919844Y-96727274D01*
X146890266Y-96724500D01*
X146890256Y-96724500D01*
X146284744Y-96724500D01*
X146284733Y-96724500D01*
X146255155Y-96727274D01*
X146255147Y-96727276D01*
X146130523Y-96770884D01*
X146024293Y-96849285D01*
X146024285Y-96849293D01*
X145945884Y-96955523D01*
X145902276Y-97080147D01*
X145902274Y-97080155D01*
X145899500Y-97109733D01*
X145193948Y-97109733D01*
X145923013Y-96380667D01*
X145977528Y-96352892D01*
X146037960Y-96362463D01*
X146051802Y-96371016D01*
X146130525Y-96429116D01*
X146255151Y-96472725D01*
X146282441Y-96475284D01*
X146284733Y-96475499D01*
X146284738Y-96475500D01*
X146284744Y-96475500D01*
X146890262Y-96475500D01*
X146890265Y-96475499D01*
X146919849Y-96472725D01*
X147044475Y-96429116D01*
X147150711Y-96350711D01*
X147229116Y-96244475D01*
X147272725Y-96119849D01*
X147275500Y-96090256D01*
X147275500Y-95509744D01*
X147275500Y-95509738D01*
X147275499Y-95509733D01*
X147724500Y-95509733D01*
X147724500Y-96090266D01*
X147727274Y-96119844D01*
X147727276Y-96119852D01*
X147770884Y-96244476D01*
X147849285Y-96350706D01*
X147849289Y-96350711D01*
X147849292Y-96350713D01*
X147849293Y-96350714D01*
X147955521Y-96429114D01*
X147955523Y-96429114D01*
X147955525Y-96429116D01*
X147995698Y-96443173D01*
X148019180Y-96461052D01*
X148043093Y-96478426D01*
X148043452Y-96479533D01*
X148044378Y-96480238D01*
X148062000Y-96536617D01*
X148062000Y-96663382D01*
X148043093Y-96721573D01*
X147995698Y-96756826D01*
X147955527Y-96770882D01*
X147955521Y-96770885D01*
X147849293Y-96849285D01*
X147849285Y-96849293D01*
X147770884Y-96955523D01*
X147727276Y-97080147D01*
X147727274Y-97080155D01*
X147724500Y-97109733D01*
X147724500Y-97690266D01*
X147727274Y-97719844D01*
X147727276Y-97719852D01*
X147770884Y-97844476D01*
X147844197Y-97943812D01*
X147849289Y-97950711D01*
X147849292Y-97950713D01*
X147849293Y-97950714D01*
X147955521Y-98029114D01*
X147955523Y-98029114D01*
X147955525Y-98029116D01*
X147995698Y-98043173D01*
X148019180Y-98061052D01*
X148043093Y-98078426D01*
X148043452Y-98079533D01*
X148044378Y-98080238D01*
X148062000Y-98136617D01*
X148062000Y-98299178D01*
X148043093Y-98357369D01*
X148033004Y-98369181D01*
X147969500Y-98432685D01*
X147969496Y-98432690D01*
X147903609Y-98546809D01*
X147885058Y-98616044D01*
X147869500Y-98674108D01*
X147869500Y-98805892D01*
X147877970Y-98837501D01*
X147903609Y-98933190D01*
X147969496Y-99047309D01*
X147969498Y-99047311D01*
X147969500Y-99047314D01*
X148062686Y-99140500D01*
X148062688Y-99140501D01*
X148062690Y-99140503D01*
X148176810Y-99206390D01*
X148176808Y-99206390D01*
X148176812Y-99206391D01*
X148176814Y-99206392D01*
X148304108Y-99240500D01*
X148304110Y-99240500D01*
X148435890Y-99240500D01*
X148435892Y-99240500D01*
X148563186Y-99206392D01*
X148563188Y-99206390D01*
X148563190Y-99206390D01*
X148677309Y-99140503D01*
X148677309Y-99140502D01*
X148677314Y-99140500D01*
X148770500Y-99047314D01*
X148770503Y-99047309D01*
X148782602Y-99026354D01*
X148836390Y-98933190D01*
X148836390Y-98933188D01*
X148836392Y-98933186D01*
X148870500Y-98805892D01*
X148870500Y-98674108D01*
X148836392Y-98546814D01*
X148836390Y-98546811D01*
X148836390Y-98546809D01*
X148776264Y-98442668D01*
X148763000Y-98393168D01*
X148763000Y-98200269D01*
X149250000Y-98200269D01*
X149250000Y-98407106D01*
X149290349Y-98609960D01*
X149369501Y-98801048D01*
X149369508Y-98801062D01*
X149484405Y-98973017D01*
X149486826Y-98975438D01*
X149882210Y-98580053D01*
X149899901Y-98610695D01*
X149992993Y-98703787D01*
X150023632Y-98721476D01*
X149628249Y-99116861D01*
X149630670Y-99119282D01*
X149802625Y-99234179D01*
X149802639Y-99234186D01*
X149993727Y-99313338D01*
X150196581Y-99353687D01*
X150196586Y-99353688D01*
X150403414Y-99353688D01*
X150403418Y-99353687D01*
X150606272Y-99313338D01*
X150797360Y-99234186D01*
X150797366Y-99234183D01*
X150969333Y-99119279D01*
X150971750Y-99116861D01*
X150576366Y-98721477D01*
X150607007Y-98703787D01*
X150700099Y-98610695D01*
X150717789Y-98580054D01*
X151113173Y-98975438D01*
X151115591Y-98973021D01*
X151230495Y-98801054D01*
X151230498Y-98801048D01*
X151309650Y-98609960D01*
X151349999Y-98407106D01*
X151350000Y-98407101D01*
X151350000Y-98200274D01*
X151349999Y-98200269D01*
X151309650Y-97997415D01*
X151230498Y-97806327D01*
X151230491Y-97806313D01*
X151115594Y-97634358D01*
X151113173Y-97631937D01*
X150717788Y-98027320D01*
X150700099Y-97996681D01*
X150607007Y-97903589D01*
X150576365Y-97885898D01*
X150971750Y-97490514D01*
X150969329Y-97488093D01*
X150797374Y-97373196D01*
X150797360Y-97373189D01*
X150606272Y-97294037D01*
X150403418Y-97253688D01*
X150196581Y-97253688D01*
X149993727Y-97294037D01*
X149802639Y-97373189D01*
X149802630Y-97373193D01*
X149630665Y-97488098D01*
X149628248Y-97490513D01*
X150023633Y-97885898D01*
X149992993Y-97903589D01*
X149899901Y-97996681D01*
X149882210Y-98027321D01*
X149486825Y-97631936D01*
X149484410Y-97634353D01*
X149369505Y-97806318D01*
X149369501Y-97806327D01*
X149290349Y-97997415D01*
X149250000Y-98200269D01*
X148763000Y-98200269D01*
X148763000Y-98136617D01*
X148781907Y-98078426D01*
X148829301Y-98043173D01*
X148869475Y-98029116D01*
X148975711Y-97950711D01*
X149054116Y-97844475D01*
X149097725Y-97719849D01*
X149100500Y-97690256D01*
X149100500Y-97109744D01*
X149100500Y-97109738D01*
X149100499Y-97109733D01*
X149097725Y-97080155D01*
X149097725Y-97080151D01*
X149054116Y-96955525D01*
X149052588Y-96953455D01*
X148975714Y-96849293D01*
X148975713Y-96849292D01*
X148975711Y-96849289D01*
X148975706Y-96849285D01*
X148869478Y-96770885D01*
X148869472Y-96770882D01*
X148829302Y-96756826D01*
X148805826Y-96738951D01*
X148781907Y-96721573D01*
X148781547Y-96720465D01*
X148780621Y-96719760D01*
X148763000Y-96663382D01*
X148763000Y-96536617D01*
X148781907Y-96478426D01*
X148829301Y-96443173D01*
X148869475Y-96429116D01*
X148885082Y-96417598D01*
X148908250Y-96400499D01*
X148975711Y-96350711D01*
X149054116Y-96244475D01*
X149097725Y-96119849D01*
X149100500Y-96090256D01*
X149100500Y-95509744D01*
X149100500Y-95509738D01*
X149100499Y-95509733D01*
X149098716Y-95490723D01*
X149097725Y-95480151D01*
X149054116Y-95355525D01*
X149054113Y-95355521D01*
X148975714Y-95249293D01*
X148975713Y-95249292D01*
X148975711Y-95249289D01*
X148975706Y-95249285D01*
X148869476Y-95170884D01*
X148744852Y-95127276D01*
X148744851Y-95127275D01*
X148744849Y-95127275D01*
X148744847Y-95127274D01*
X148744844Y-95127274D01*
X148715266Y-95124500D01*
X148715256Y-95124500D01*
X148109744Y-95124500D01*
X148109733Y-95124500D01*
X148080155Y-95127274D01*
X148080147Y-95127276D01*
X147955523Y-95170884D01*
X147849293Y-95249285D01*
X147849285Y-95249293D01*
X147770884Y-95355523D01*
X147727276Y-95480147D01*
X147727274Y-95480155D01*
X147724500Y-95509733D01*
X147275499Y-95509733D01*
X147273716Y-95490723D01*
X147272725Y-95480151D01*
X147229116Y-95355525D01*
X147229113Y-95355521D01*
X147150714Y-95249293D01*
X147150713Y-95249292D01*
X147150711Y-95249289D01*
X147150706Y-95249285D01*
X147044476Y-95170884D01*
X146974802Y-95146504D01*
X146951322Y-95128626D01*
X146927407Y-95111251D01*
X146927047Y-95110143D01*
X146926122Y-95109439D01*
X146908500Y-95053060D01*
X146908500Y-94937500D01*
X146927407Y-94879309D01*
X146976907Y-94843345D01*
X147007500Y-94838500D01*
X149673810Y-94838500D01*
X149732001Y-94857407D01*
X149743814Y-94867496D01*
X150312524Y-95436206D01*
X150340301Y-95490723D01*
X150338148Y-95531829D01*
X150330671Y-95559739D01*
X150329500Y-95564108D01*
X150329500Y-95695892D01*
X150354942Y-95790844D01*
X150363609Y-95823190D01*
X150429496Y-95937309D01*
X150429498Y-95937311D01*
X150429500Y-95937314D01*
X150522686Y-96030500D01*
X150522688Y-96030501D01*
X150522690Y-96030503D01*
X150636810Y-96096390D01*
X150636808Y-96096390D01*
X150636812Y-96096391D01*
X150636814Y-96096392D01*
X150764108Y-96130500D01*
X150764110Y-96130500D01*
X150895890Y-96130500D01*
X150895892Y-96130500D01*
X151023186Y-96096392D01*
X151023188Y-96096390D01*
X151023190Y-96096390D01*
X151137309Y-96030503D01*
X151137309Y-96030502D01*
X151137314Y-96030500D01*
X151230500Y-95937314D01*
X151232167Y-95934427D01*
X151296390Y-95823190D01*
X151296390Y-95823188D01*
X151296392Y-95823186D01*
X151330500Y-95695892D01*
X151330500Y-95564108D01*
X151296392Y-95436814D01*
X151296390Y-95436811D01*
X151296390Y-95436809D01*
X151230503Y-95322690D01*
X151230501Y-95322688D01*
X151230500Y-95322686D01*
X151137314Y-95229500D01*
X151053646Y-95181194D01*
X151033146Y-95165464D01*
X150555294Y-94687612D01*
X150075212Y-94207530D01*
X149995288Y-94161386D01*
X149906144Y-94137500D01*
X146765856Y-94137500D01*
X146676712Y-94161386D01*
X146676711Y-94161386D01*
X146676709Y-94161387D01*
X146596789Y-94207529D01*
X146596787Y-94207531D01*
X146277530Y-94526787D01*
X146240978Y-94590095D01*
X146240979Y-94590096D01*
X146231386Y-94606711D01*
X146220105Y-94648813D01*
X146209709Y-94687614D01*
X146207500Y-94695857D01*
X146207500Y-95073704D01*
X146188593Y-95131895D01*
X146141202Y-95167147D01*
X146130527Y-95170882D01*
X146130521Y-95170885D01*
X146024293Y-95249285D01*
X146024285Y-95249293D01*
X145945885Y-95355521D01*
X145945884Y-95355524D01*
X145932641Y-95393369D01*
X145895574Y-95442048D01*
X145888698Y-95446405D01*
X145834789Y-95477529D01*
X144493945Y-96818372D01*
X144439428Y-96846149D01*
X144378996Y-96836578D01*
X144335731Y-96793313D01*
X144328316Y-96773995D01*
X144326392Y-96766814D01*
X144307231Y-96733626D01*
X144260503Y-96652690D01*
X144260501Y-96652688D01*
X144260500Y-96652686D01*
X144167314Y-96559500D01*
X144167311Y-96559498D01*
X144167309Y-96559496D01*
X144053189Y-96493609D01*
X144053186Y-96493608D01*
X144046156Y-96491724D01*
X143994842Y-96458399D01*
X143972917Y-96401277D01*
X143988754Y-96342177D01*
X144001772Y-96326098D01*
X146476375Y-93851495D01*
X146530892Y-93823719D01*
X146546379Y-93822500D01*
X151285810Y-93822500D01*
X151344001Y-93841407D01*
G37*
%TD.AperFunction*%
%TA.AperFunction,Conductor*%
G36*
X170214501Y-96610183D02*
G01*
X172384788Y-98780470D01*
X172464712Y-98826614D01*
X172553856Y-98850500D01*
X172808548Y-98850500D01*
X172866739Y-98869407D01*
X172900012Y-98911615D01*
X172919057Y-98957595D01*
X173024883Y-99115977D01*
X173034023Y-99129655D01*
X173180345Y-99275977D01*
X173180348Y-99275979D01*
X173352402Y-99390941D01*
X173396087Y-99409036D01*
X173442612Y-99448773D01*
X173456896Y-99508267D01*
X173433481Y-99564795D01*
X173381312Y-99596765D01*
X173358201Y-99599500D01*
X171058986Y-99599500D01*
X171000795Y-99580593D01*
X170964831Y-99531093D01*
X170964831Y-99469907D01*
X170970045Y-99457021D01*
X170985087Y-99426250D01*
X170995000Y-99358215D01*
X170995000Y-98837501D01*
X170994999Y-98837500D01*
X169995002Y-98837500D01*
X169995001Y-98837501D01*
X169995001Y-99358216D01*
X170004912Y-99426250D01*
X170004914Y-99426255D01*
X170019954Y-99457019D01*
X170028526Y-99517601D01*
X169999851Y-99571651D01*
X169944883Y-99598524D01*
X169931014Y-99599500D01*
X169159542Y-99599500D01*
X169101351Y-99580593D01*
X169065387Y-99531093D01*
X169065387Y-99469907D01*
X169070601Y-99457020D01*
X169085572Y-99426395D01*
X169085571Y-99426395D01*
X169085573Y-99426393D01*
X169095500Y-99358260D01*
X169095500Y-98116784D01*
X169995000Y-98116784D01*
X169995000Y-98637499D01*
X169995001Y-98637500D01*
X170394999Y-98637500D01*
X170395000Y-98637499D01*
X170395000Y-97800001D01*
X170595000Y-97800001D01*
X170595000Y-98637499D01*
X170595001Y-98637500D01*
X170994998Y-98637500D01*
X170994999Y-98637499D01*
X170994999Y-98116786D01*
X170994998Y-98116783D01*
X170985087Y-98048749D01*
X170933785Y-97943811D01*
X170851187Y-97861213D01*
X170746248Y-97809912D01*
X170678216Y-97800000D01*
X170595001Y-97800000D01*
X170595000Y-97800001D01*
X170395000Y-97800001D01*
X170395000Y-97800000D01*
X170311785Y-97800000D01*
X170311782Y-97800001D01*
X170243750Y-97809912D01*
X170138811Y-97861214D01*
X170056213Y-97943812D01*
X170004912Y-98048751D01*
X169995000Y-98116784D01*
X169095500Y-98116784D01*
X169095500Y-98116740D01*
X169085573Y-98048607D01*
X169078663Y-98034473D01*
X169043430Y-97962402D01*
X169034198Y-97943517D01*
X168951483Y-97860802D01*
X168940689Y-97855525D01*
X168846395Y-97809427D01*
X168815528Y-97804930D01*
X168778260Y-97799500D01*
X168411740Y-97799500D01*
X168374472Y-97804930D01*
X168343605Y-97809427D01*
X168306206Y-97827711D01*
X168285541Y-97837813D01*
X168224961Y-97846384D01*
X168172058Y-97818876D01*
X167735186Y-97382004D01*
X167707409Y-97327487D01*
X167716980Y-97267055D01*
X167760245Y-97223790D01*
X167805190Y-97213000D01*
X167821144Y-97213000D01*
X168945500Y-97213000D01*
X169003691Y-97231907D01*
X169039655Y-97281407D01*
X169044500Y-97312000D01*
X169044500Y-97483260D01*
X169051080Y-97528420D01*
X169054427Y-97551395D01*
X169091999Y-97628248D01*
X169105802Y-97656483D01*
X169188517Y-97739198D01*
X169221688Y-97755414D01*
X169293604Y-97790572D01*
X169293605Y-97790572D01*
X169293607Y-97790573D01*
X169361740Y-97800500D01*
X169361743Y-97800500D01*
X169728257Y-97800500D01*
X169728260Y-97800500D01*
X169796393Y-97790573D01*
X169901483Y-97739198D01*
X169984198Y-97656483D01*
X170035573Y-97551393D01*
X170045500Y-97483260D01*
X170045500Y-96680189D01*
X170064407Y-96621998D01*
X170113907Y-96586034D01*
X170175093Y-96586034D01*
X170214501Y-96610183D01*
G37*
%TD.AperFunction*%
%TA.AperFunction,Conductor*%
G36*
X172758691Y-89919407D02*
G01*
X172794655Y-89968907D01*
X172799500Y-89999500D01*
X172799500Y-91709746D01*
X172799501Y-91709758D01*
X172811132Y-91768227D01*
X172811134Y-91768233D01*
X172855445Y-91834548D01*
X172855448Y-91834552D01*
X172921769Y-91878867D01*
X172966231Y-91887711D01*
X172980241Y-91890498D01*
X172980246Y-91890498D01*
X172980252Y-91890500D01*
X172980253Y-91890500D01*
X174719747Y-91890500D01*
X174719748Y-91890500D01*
X174778231Y-91878867D01*
X174844552Y-91834552D01*
X174888867Y-91768231D01*
X174900500Y-91709748D01*
X174900500Y-89999500D01*
X174919407Y-89941309D01*
X174968907Y-89905345D01*
X174999500Y-89900500D01*
X175597117Y-89900500D01*
X175655308Y-89919407D01*
X175691272Y-89968907D01*
X175696112Y-90000461D01*
X175603869Y-99501461D01*
X175584398Y-99559466D01*
X175534551Y-99594947D01*
X175504874Y-99599500D01*
X174341799Y-99599500D01*
X174283608Y-99580593D01*
X174247644Y-99531093D01*
X174247644Y-99469907D01*
X174283608Y-99420407D01*
X174303913Y-99409036D01*
X174316532Y-99403809D01*
X174347598Y-99390941D01*
X174519655Y-99275977D01*
X174665977Y-99129655D01*
X174780941Y-98957598D01*
X174860130Y-98766420D01*
X174900500Y-98563465D01*
X174900500Y-98356535D01*
X174860130Y-98153580D01*
X174780941Y-97962402D01*
X174665977Y-97790345D01*
X174519655Y-97644023D01*
X174518515Y-97643261D01*
X174347597Y-97529058D01*
X174156418Y-97449869D01*
X173953467Y-97409500D01*
X173953465Y-97409500D01*
X173746535Y-97409500D01*
X173746532Y-97409500D01*
X173543581Y-97449869D01*
X173352402Y-97529058D01*
X173180348Y-97644020D01*
X173034020Y-97790348D01*
X172919058Y-97962402D01*
X172870031Y-98080763D01*
X172830294Y-98127289D01*
X172770799Y-98141572D01*
X172714271Y-98118157D01*
X172708563Y-98112881D01*
X171165186Y-96569504D01*
X171137409Y-96514987D01*
X171146980Y-96454555D01*
X171190245Y-96411290D01*
X171235190Y-96400500D01*
X171640262Y-96400500D01*
X171640265Y-96400499D01*
X171669849Y-96397725D01*
X171794475Y-96354116D01*
X171900711Y-96275711D01*
X171970542Y-96181093D01*
X171979114Y-96169478D01*
X171979117Y-96169472D01*
X171993174Y-96129302D01*
X172030240Y-96080621D01*
X172086618Y-96063000D01*
X172726116Y-96063000D01*
X172784307Y-96081907D01*
X172820271Y-96131407D01*
X172823214Y-96142686D01*
X172839869Y-96226418D01*
X172919058Y-96417597D01*
X173034020Y-96589651D01*
X173034023Y-96589655D01*
X173180345Y-96735977D01*
X173352402Y-96850941D01*
X173543580Y-96930130D01*
X173746535Y-96970500D01*
X173746536Y-96970500D01*
X173953464Y-96970500D01*
X173953465Y-96970500D01*
X174156420Y-96930130D01*
X174347598Y-96850941D01*
X174519655Y-96735977D01*
X174665977Y-96589655D01*
X174780941Y-96417598D01*
X174860130Y-96226420D01*
X174900500Y-96023465D01*
X174900500Y-95816535D01*
X174860130Y-95613580D01*
X174780941Y-95422402D01*
X174665977Y-95250345D01*
X174519655Y-95104023D01*
X174519651Y-95104020D01*
X174347597Y-94989058D01*
X174156418Y-94909869D01*
X173953467Y-94869500D01*
X173953465Y-94869500D01*
X173746535Y-94869500D01*
X173746532Y-94869500D01*
X173543581Y-94909869D01*
X173352402Y-94989058D01*
X173180348Y-95104020D01*
X173034020Y-95250348D01*
X172988817Y-95318001D01*
X172940767Y-95355881D01*
X172906501Y-95362000D01*
X172086618Y-95362000D01*
X172028427Y-95343093D01*
X171993174Y-95295698D01*
X171979117Y-95255527D01*
X171979114Y-95255521D01*
X171900714Y-95149293D01*
X171900713Y-95149292D01*
X171900711Y-95149289D01*
X171900706Y-95149285D01*
X171794476Y-95070884D01*
X171669852Y-95027276D01*
X171669851Y-95027275D01*
X171669849Y-95027275D01*
X171669847Y-95027274D01*
X171669844Y-95027274D01*
X171640266Y-95024500D01*
X171640256Y-95024500D01*
X171059744Y-95024500D01*
X171059733Y-95024500D01*
X171030155Y-95027274D01*
X171030147Y-95027276D01*
X170905523Y-95070884D01*
X170799293Y-95149285D01*
X170799285Y-95149293D01*
X170720884Y-95255522D01*
X170712531Y-95279396D01*
X170675465Y-95328076D01*
X170616864Y-95345672D01*
X170559113Y-95325463D01*
X170524269Y-95275168D01*
X170520087Y-95246697D01*
X170520087Y-94841827D01*
X170520086Y-94841822D01*
X170518854Y-94828681D01*
X170517312Y-94812240D01*
X170473703Y-94687614D01*
X170447801Y-94652518D01*
X170395301Y-94581382D01*
X170395300Y-94581381D01*
X170395298Y-94581378D01*
X170395293Y-94581374D01*
X170289063Y-94502973D01*
X170164439Y-94459365D01*
X170164438Y-94459364D01*
X170164436Y-94459364D01*
X170164434Y-94459363D01*
X170164431Y-94459363D01*
X170134853Y-94456589D01*
X170134843Y-94456589D01*
X169529331Y-94456589D01*
X169529320Y-94456589D01*
X169499742Y-94459363D01*
X169499734Y-94459365D01*
X169375110Y-94502973D01*
X169268880Y-94581374D01*
X169268872Y-94581382D01*
X169190471Y-94687612D01*
X169146863Y-94812236D01*
X169146861Y-94812244D01*
X169144087Y-94841822D01*
X169144087Y-95422355D01*
X169146861Y-95451933D01*
X169146863Y-95451941D01*
X169190471Y-95576565D01*
X169258463Y-95668691D01*
X169268876Y-95682800D01*
X169364036Y-95753030D01*
X169399628Y-95802797D01*
X169399170Y-95863981D01*
X169362837Y-95913210D01*
X169319523Y-95930650D01*
X169293607Y-95934426D01*
X169188518Y-95985801D01*
X169105801Y-96068518D01*
X169054427Y-96173604D01*
X169050581Y-96200001D01*
X169045136Y-96237380D01*
X169044500Y-96241743D01*
X169044500Y-96413000D01*
X169025593Y-96471191D01*
X168976093Y-96507155D01*
X168945500Y-96512000D01*
X167961190Y-96512000D01*
X167902999Y-96493093D01*
X167891186Y-96483004D01*
X167229496Y-95821314D01*
X167201719Y-95766797D01*
X167200500Y-95751310D01*
X167200500Y-95653894D01*
X167219407Y-95595703D01*
X167268907Y-95559739D01*
X167330093Y-95559739D01*
X167379155Y-95595106D01*
X167433463Y-95668691D01*
X167443876Y-95682800D01*
X167443879Y-95682802D01*
X167443880Y-95682803D01*
X167550110Y-95761204D01*
X167550111Y-95761204D01*
X167550112Y-95761205D01*
X167674738Y-95804814D01*
X167702028Y-95807373D01*
X167704320Y-95807588D01*
X167704325Y-95807589D01*
X167704331Y-95807589D01*
X168309849Y-95807589D01*
X168309852Y-95807588D01*
X168339436Y-95804814D01*
X168464062Y-95761205D01*
X168570298Y-95682800D01*
X168648703Y-95576564D01*
X168692312Y-95451938D01*
X168695087Y-95422345D01*
X168695087Y-94841833D01*
X168695087Y-94841827D01*
X168695086Y-94841822D01*
X168693854Y-94828681D01*
X168692312Y-94812240D01*
X168648703Y-94687614D01*
X168622801Y-94652518D01*
X168570301Y-94581382D01*
X168570300Y-94581381D01*
X168570298Y-94581378D01*
X168570293Y-94581374D01*
X168464063Y-94502973D01*
X168339439Y-94459365D01*
X168339438Y-94459364D01*
X168339436Y-94459364D01*
X168339434Y-94459363D01*
X168339431Y-94459363D01*
X168309853Y-94456589D01*
X168309843Y-94456589D01*
X167868276Y-94456589D01*
X167810085Y-94437682D01*
X167798272Y-94427593D01*
X167379059Y-94008380D01*
X166922908Y-93552228D01*
X166842984Y-93506084D01*
X166753840Y-93482198D01*
X166753838Y-93482198D01*
X166583561Y-93482198D01*
X166525370Y-93463291D01*
X166489406Y-93413791D01*
X166484561Y-93383198D01*
X166484561Y-93211941D01*
X166483814Y-93206814D01*
X166474634Y-93143805D01*
X166470665Y-93135687D01*
X166441274Y-93075565D01*
X166423259Y-93038715D01*
X166340544Y-92956000D01*
X166304416Y-92938338D01*
X166235456Y-92904625D01*
X166204864Y-92900168D01*
X166167321Y-92894698D01*
X165800801Y-92894698D01*
X165767843Y-92899500D01*
X165732665Y-92904625D01*
X165627579Y-92955999D01*
X165544862Y-93038716D01*
X165493488Y-93143802D01*
X165490451Y-93164651D01*
X165484309Y-93206809D01*
X165483561Y-93211941D01*
X165483561Y-94087047D01*
X165464654Y-94145238D01*
X165415154Y-94181202D01*
X165353968Y-94181202D01*
X165335062Y-94172784D01*
X165293189Y-94148609D01*
X165293186Y-94148608D01*
X165165892Y-94114500D01*
X165034108Y-94114500D01*
X164967867Y-94132249D01*
X164906809Y-94148609D01*
X164792690Y-94214496D01*
X164699496Y-94307690D01*
X164633609Y-94421809D01*
X164614618Y-94492686D01*
X164608155Y-94516809D01*
X164599500Y-94549109D01*
X164599500Y-94578810D01*
X164580593Y-94637001D01*
X164570504Y-94648813D01*
X164407030Y-94812286D01*
X164365576Y-94884086D01*
X164365577Y-94884087D01*
X164357642Y-94897831D01*
X164355932Y-94896844D01*
X164322084Y-94936472D01*
X164303059Y-94945502D01*
X164230527Y-94970882D01*
X164230521Y-94970885D01*
X164124293Y-95049285D01*
X164124285Y-95049293D01*
X164045884Y-95155523D01*
X164002276Y-95280147D01*
X164002274Y-95280155D01*
X163999500Y-95309733D01*
X163999500Y-95890266D01*
X164002274Y-95919844D01*
X164002274Y-95919847D01*
X164002275Y-95919849D01*
X164007376Y-95934426D01*
X164013360Y-95951528D01*
X164014732Y-96012698D01*
X163979888Y-96062992D01*
X163922136Y-96083200D01*
X163863536Y-96065603D01*
X163849911Y-96054229D01*
X163442996Y-95647314D01*
X163032596Y-95236914D01*
X163004821Y-95182400D01*
X163014392Y-95121968D01*
X163043814Y-95087258D01*
X163072787Y-95065874D01*
X163072792Y-95065869D01*
X163153345Y-94956726D01*
X163198149Y-94828680D01*
X163200999Y-94798290D01*
X163201000Y-94798289D01*
X163201000Y-94386580D01*
X163200999Y-94386579D01*
X161411002Y-94386579D01*
X161411001Y-94386580D01*
X161411001Y-94798282D01*
X161413850Y-94828679D01*
X161413850Y-94828681D01*
X161458656Y-94956729D01*
X161462098Y-94963242D01*
X161472572Y-95023525D01*
X161445612Y-95078450D01*
X161391516Y-95107039D01*
X161374570Y-95108500D01*
X160864513Y-95108500D01*
X160806322Y-95089593D01*
X160770358Y-95040093D01*
X160768886Y-94983877D01*
X160800500Y-94865892D01*
X160800500Y-94734108D01*
X160766392Y-94606814D01*
X160766390Y-94606811D01*
X160766390Y-94606809D01*
X160700503Y-94492690D01*
X160700501Y-94492688D01*
X160700500Y-94492686D01*
X160607314Y-94399500D01*
X160607311Y-94399498D01*
X160607309Y-94399496D01*
X160493189Y-94333609D01*
X160493191Y-94333609D01*
X160441836Y-94319849D01*
X160365892Y-94299500D01*
X160234108Y-94299500D01*
X160158164Y-94319849D01*
X160106809Y-94333609D01*
X159992690Y-94399496D01*
X159899499Y-94492687D01*
X159897819Y-94495596D01*
X159895277Y-94499999D01*
X159849810Y-94540940D01*
X159809541Y-94549500D01*
X159249500Y-94549500D01*
X159191309Y-94530593D01*
X159155345Y-94481093D01*
X159150500Y-94450500D01*
X159150500Y-94231595D01*
X159158855Y-94205880D01*
X159158855Y-94182232D01*
X159358855Y-94182232D01*
X159358856Y-94182233D01*
X159359710Y-94182233D01*
X159359711Y-94182232D01*
X159436278Y-94167001D01*
X159523104Y-94108986D01*
X159523108Y-94108982D01*
X159581123Y-94022156D01*
X159594039Y-93957233D01*
X159358855Y-93957233D01*
X159358855Y-94182232D01*
X159158855Y-94182232D01*
X159158855Y-93956233D01*
X159163700Y-93941321D01*
X159163700Y-93925640D01*
X159172916Y-93912954D01*
X159177762Y-93898042D01*
X159190447Y-93888825D01*
X159199664Y-93876140D01*
X159214576Y-93871294D01*
X159227262Y-93862078D01*
X159257855Y-93857233D01*
X159258855Y-93857233D01*
X159258855Y-93856233D01*
X159277762Y-93798042D01*
X159309660Y-93774867D01*
X161411000Y-93774867D01*
X161411000Y-94186578D01*
X161411001Y-94186579D01*
X162205999Y-94186579D01*
X162206000Y-94186578D01*
X162206000Y-93379080D01*
X162406000Y-93379080D01*
X162406000Y-94186578D01*
X162406001Y-94186579D01*
X163200998Y-94186579D01*
X163200999Y-94186578D01*
X163200999Y-93774875D01*
X163198149Y-93744478D01*
X163198149Y-93744476D01*
X163153345Y-93616431D01*
X163072792Y-93507288D01*
X163072790Y-93507286D01*
X162963647Y-93426733D01*
X162835601Y-93381929D01*
X162805211Y-93379079D01*
X162406001Y-93379079D01*
X162406000Y-93379080D01*
X162206000Y-93379080D01*
X162205999Y-93379079D01*
X161806796Y-93379079D01*
X161776399Y-93381929D01*
X161776397Y-93381929D01*
X161648352Y-93426733D01*
X161539209Y-93507286D01*
X161539207Y-93507288D01*
X161458654Y-93616431D01*
X161413850Y-93744477D01*
X161411000Y-93774867D01*
X159309660Y-93774867D01*
X159327262Y-93762078D01*
X159357855Y-93757233D01*
X159594039Y-93757233D01*
X159604958Y-93743928D01*
X159656490Y-93710941D01*
X159681486Y-93707733D01*
X160491615Y-93707733D01*
X160517238Y-93711106D01*
X160520733Y-93712042D01*
X160520736Y-93712044D01*
X160648030Y-93746152D01*
X160648032Y-93746152D01*
X160779812Y-93746152D01*
X160779814Y-93746152D01*
X160907108Y-93712044D01*
X160907110Y-93712042D01*
X160907112Y-93712042D01*
X160950790Y-93686825D01*
X161021231Y-93646155D01*
X161021231Y-93646154D01*
X161021236Y-93646152D01*
X161114422Y-93552966D01*
X161119877Y-93543518D01*
X161180312Y-93438842D01*
X161180312Y-93438840D01*
X161180314Y-93438838D01*
X161214422Y-93311544D01*
X161214422Y-93179760D01*
X161180314Y-93052466D01*
X161180312Y-93052463D01*
X161180312Y-93052461D01*
X161114425Y-92938342D01*
X161114423Y-92938340D01*
X161114422Y-92938338D01*
X161034280Y-92858196D01*
X163490803Y-92858196D01*
X163490803Y-93020486D01*
X163493711Y-93045569D01*
X163539015Y-93148172D01*
X163618324Y-93227481D01*
X163720929Y-93272785D01*
X163746006Y-93275694D01*
X163790802Y-93275693D01*
X163790802Y-92858196D01*
X163990802Y-92858196D01*
X163990802Y-93275693D01*
X163990803Y-93275694D01*
X164035592Y-93275694D01*
X164035593Y-93275693D01*
X164060676Y-93272785D01*
X164163279Y-93227481D01*
X164242588Y-93148172D01*
X164287892Y-93045567D01*
X164290801Y-93020492D01*
X164290802Y-93020490D01*
X164290802Y-92858196D01*
X164290801Y-92858195D01*
X163990803Y-92858195D01*
X163990802Y-92858196D01*
X163790802Y-92858196D01*
X163790801Y-92858195D01*
X163490804Y-92858195D01*
X163490803Y-92858196D01*
X161034280Y-92858196D01*
X161021236Y-92845152D01*
X161021233Y-92845150D01*
X161021231Y-92845148D01*
X160907111Y-92779261D01*
X160907113Y-92779261D01*
X160837993Y-92760741D01*
X160779814Y-92745152D01*
X160648030Y-92745152D01*
X160589851Y-92760741D01*
X160520731Y-92779261D01*
X160406612Y-92845148D01*
X160313420Y-92938340D01*
X160302512Y-92957234D01*
X160257042Y-92998174D01*
X160216776Y-93006733D01*
X160203957Y-93006733D01*
X160145766Y-92987826D01*
X160109802Y-92938326D01*
X160109802Y-92877140D01*
X160133953Y-92837729D01*
X160771186Y-92200496D01*
X160825703Y-92172719D01*
X160841190Y-92171500D01*
X161359808Y-92171500D01*
X161417999Y-92190407D01*
X161453252Y-92237801D01*
X161458207Y-92251963D01*
X161538845Y-92361223D01*
X161538847Y-92361225D01*
X161538850Y-92361229D01*
X161538853Y-92361231D01*
X161538855Y-92361233D01*
X161648116Y-92441871D01*
X161648117Y-92441871D01*
X161648118Y-92441872D01*
X161776301Y-92486725D01*
X161806725Y-92489578D01*
X161806727Y-92489579D01*
X161806734Y-92489579D01*
X162805273Y-92489579D01*
X162805273Y-92489578D01*
X162835699Y-92486725D01*
X162963882Y-92441872D01*
X163073150Y-92361229D01*
X163153793Y-92251961D01*
X163198646Y-92123778D01*
X163200037Y-92108943D01*
X163207463Y-92091746D01*
X163210394Y-92073242D01*
X163219300Y-92064335D01*
X163224293Y-92052774D01*
X163240410Y-92043225D01*
X163253659Y-92029977D01*
X163266098Y-92028006D01*
X163276933Y-92021588D01*
X163295586Y-92023336D01*
X163314091Y-92020406D01*
X163325312Y-92026123D01*
X163337852Y-92027299D01*
X163368608Y-92048183D01*
X163461458Y-92141033D01*
X163489235Y-92195550D01*
X163490288Y-92205308D01*
X163490301Y-92205549D01*
X163493216Y-92230685D01*
X163502675Y-92252107D01*
X163528823Y-92311326D01*
X163535031Y-92372194D01*
X163528823Y-92391300D01*
X163493712Y-92470820D01*
X163493711Y-92470822D01*
X163490802Y-92495897D01*
X163490802Y-92658194D01*
X163490803Y-92658195D01*
X164290800Y-92658195D01*
X164290801Y-92658194D01*
X164290801Y-92495905D01*
X164290800Y-92495903D01*
X164287892Y-92470820D01*
X164287890Y-92470815D01*
X164252781Y-92391300D01*
X164246572Y-92330431D01*
X164252777Y-92311335D01*
X164288387Y-92230686D01*
X164291302Y-92205560D01*
X164291301Y-92057699D01*
X164534062Y-92057699D01*
X164534062Y-92578414D01*
X164543973Y-92646448D01*
X164595275Y-92751386D01*
X164677873Y-92833984D01*
X164782812Y-92885285D01*
X164850845Y-92895197D01*
X164934061Y-92895197D01*
X164934061Y-92057699D01*
X165134061Y-92057699D01*
X165134061Y-92895196D01*
X165134062Y-92895197D01*
X165217274Y-92895197D01*
X165217277Y-92895196D01*
X165285311Y-92885285D01*
X165390249Y-92833983D01*
X165472847Y-92751385D01*
X165524148Y-92646446D01*
X165534061Y-92578413D01*
X165534061Y-92057699D01*
X165534060Y-92057698D01*
X165134062Y-92057698D01*
X165134061Y-92057699D01*
X164934061Y-92057699D01*
X164934060Y-92057698D01*
X164534063Y-92057698D01*
X164534062Y-92057699D01*
X164291301Y-92057699D01*
X164291301Y-91939104D01*
X164291301Y-91680834D01*
X164291301Y-91680831D01*
X164288387Y-91655704D01*
X164243008Y-91552930D01*
X164243007Y-91552929D01*
X164239302Y-91544538D01*
X164241753Y-91543455D01*
X164228752Y-91501462D01*
X164228752Y-91458321D01*
X164247659Y-91400130D01*
X164257742Y-91388323D01*
X164278752Y-91367314D01*
X164287780Y-91351678D01*
X164296266Y-91336979D01*
X164534061Y-91336979D01*
X164534061Y-91857697D01*
X164534062Y-91857698D01*
X164934060Y-91857698D01*
X164934061Y-91857697D01*
X164934061Y-91020199D01*
X165134061Y-91020199D01*
X165134061Y-91857697D01*
X165134062Y-91857698D01*
X165534059Y-91857698D01*
X165534060Y-91857697D01*
X165534060Y-91336984D01*
X165534059Y-91336982D01*
X165534053Y-91336938D01*
X166433561Y-91336938D01*
X166433561Y-92578458D01*
X166439509Y-92619279D01*
X166443488Y-92646593D01*
X166489224Y-92740147D01*
X166494863Y-92751681D01*
X166577578Y-92834396D01*
X166626260Y-92858195D01*
X166682665Y-92885770D01*
X166682666Y-92885770D01*
X166682668Y-92885771D01*
X166750801Y-92895698D01*
X166750804Y-92895698D01*
X167117318Y-92895698D01*
X167117321Y-92895698D01*
X167185454Y-92885771D01*
X167290544Y-92834396D01*
X167373259Y-92751681D01*
X167424634Y-92646591D01*
X167434561Y-92578458D01*
X167434561Y-92536740D01*
X169039500Y-92536740D01*
X169039500Y-93778260D01*
X169042741Y-93800503D01*
X169049427Y-93846395D01*
X169100801Y-93951481D01*
X169100802Y-93951483D01*
X169183517Y-94034198D01*
X169206358Y-94045364D01*
X169288604Y-94085572D01*
X169288605Y-94085572D01*
X169288607Y-94085573D01*
X169356740Y-94095500D01*
X169356743Y-94095500D01*
X169723257Y-94095500D01*
X169723260Y-94095500D01*
X169791393Y-94085573D01*
X169849458Y-94057186D01*
X169910038Y-94048615D01*
X169962939Y-94076121D01*
X170054788Y-94167970D01*
X170103298Y-94195977D01*
X170134712Y-94214114D01*
X170223856Y-94238000D01*
X170613382Y-94238000D01*
X170671573Y-94256907D01*
X170706826Y-94304302D01*
X170720882Y-94344472D01*
X170720885Y-94344478D01*
X170799133Y-94450500D01*
X170799289Y-94450711D01*
X170799292Y-94450713D01*
X170799293Y-94450714D01*
X170905523Y-94529115D01*
X170905524Y-94529115D01*
X170905525Y-94529116D01*
X171030151Y-94572725D01*
X171057441Y-94575284D01*
X171059733Y-94575499D01*
X171059738Y-94575500D01*
X171059744Y-94575500D01*
X171640262Y-94575500D01*
X171640265Y-94575499D01*
X171669849Y-94572725D01*
X171794475Y-94529116D01*
X171900711Y-94450711D01*
X171979116Y-94344475D01*
X172022725Y-94219849D01*
X172025500Y-94190256D01*
X172025500Y-93584744D01*
X172025500Y-93584738D01*
X172025499Y-93584733D01*
X172022760Y-93555523D01*
X172022725Y-93555151D01*
X171979116Y-93430525D01*
X171979113Y-93430521D01*
X171905265Y-93330459D01*
X171900715Y-93324294D01*
X171900713Y-93324292D01*
X171900711Y-93324289D01*
X171900707Y-93324286D01*
X171900705Y-93324284D01*
X171836003Y-93276532D01*
X172799500Y-93276532D01*
X172799500Y-93483467D01*
X172839869Y-93686418D01*
X172919058Y-93877597D01*
X173023695Y-94034198D01*
X173034023Y-94049655D01*
X173180345Y-94195977D01*
X173352402Y-94310941D01*
X173543580Y-94390130D01*
X173746535Y-94430500D01*
X173746536Y-94430500D01*
X173953464Y-94430500D01*
X173953465Y-94430500D01*
X174156420Y-94390130D01*
X174347598Y-94310941D01*
X174519655Y-94195977D01*
X174665977Y-94049655D01*
X174780941Y-93877598D01*
X174860130Y-93686420D01*
X174900500Y-93483465D01*
X174900500Y-93276535D01*
X174860130Y-93073580D01*
X174780941Y-92882402D01*
X174665977Y-92710345D01*
X174519655Y-92564023D01*
X174517898Y-92562849D01*
X174347597Y-92449058D01*
X174156418Y-92369869D01*
X173953467Y-92329500D01*
X173953465Y-92329500D01*
X173746535Y-92329500D01*
X173746532Y-92329500D01*
X173543581Y-92369869D01*
X173352402Y-92449058D01*
X173180348Y-92564020D01*
X173034020Y-92710348D01*
X172919058Y-92882402D01*
X172839869Y-93073581D01*
X172799500Y-93276532D01*
X171836003Y-93276532D01*
X171794476Y-93245884D01*
X171669852Y-93202276D01*
X171669851Y-93202275D01*
X171669849Y-93202275D01*
X171669847Y-93202274D01*
X171669844Y-93202274D01*
X171640266Y-93199500D01*
X171640256Y-93199500D01*
X171059744Y-93199500D01*
X171059733Y-93199500D01*
X171030155Y-93202274D01*
X171030147Y-93202276D01*
X170905523Y-93245884D01*
X170799295Y-93324284D01*
X170799285Y-93324293D01*
X170720885Y-93430521D01*
X170720882Y-93430527D01*
X170706826Y-93470698D01*
X170688951Y-93494173D01*
X170671573Y-93518093D01*
X170670465Y-93518452D01*
X170669760Y-93519379D01*
X170613382Y-93537000D01*
X170456190Y-93537000D01*
X170397999Y-93518093D01*
X170386186Y-93508004D01*
X170069496Y-93191314D01*
X170041719Y-93136797D01*
X170040500Y-93121310D01*
X170040500Y-92536743D01*
X170040374Y-92535875D01*
X170030573Y-92468607D01*
X170025524Y-92458280D01*
X170003340Y-92412901D01*
X169979198Y-92363517D01*
X169896483Y-92280802D01*
X169896481Y-92280801D01*
X169791395Y-92229427D01*
X169764139Y-92225456D01*
X169723260Y-92219500D01*
X169356740Y-92219500D01*
X169322673Y-92224463D01*
X169288604Y-92229427D01*
X169183518Y-92280801D01*
X169100801Y-92363518D01*
X169049427Y-92468604D01*
X169046030Y-92491921D01*
X169039500Y-92536740D01*
X167434561Y-92536740D01*
X167434561Y-91382501D01*
X168090001Y-91382501D01*
X168090001Y-91903216D01*
X168099912Y-91971250D01*
X168151214Y-92076188D01*
X168233812Y-92158786D01*
X168338751Y-92210087D01*
X168406784Y-92219999D01*
X168490000Y-92219999D01*
X168490000Y-91382501D01*
X168690000Y-91382501D01*
X168690000Y-92219998D01*
X168690001Y-92219999D01*
X168773213Y-92219999D01*
X168773216Y-92219998D01*
X168841250Y-92210087D01*
X168946188Y-92158785D01*
X169028786Y-92076187D01*
X169080087Y-91971248D01*
X169090000Y-91903215D01*
X169090000Y-91382501D01*
X169089999Y-91382500D01*
X168690001Y-91382500D01*
X168690000Y-91382501D01*
X168490000Y-91382501D01*
X168489999Y-91382500D01*
X168090002Y-91382500D01*
X168090001Y-91382501D01*
X167434561Y-91382501D01*
X167434561Y-91336938D01*
X167424634Y-91268805D01*
X167411913Y-91242785D01*
X167409384Y-91230621D01*
X167411428Y-91211955D01*
X167408798Y-91193361D01*
X167414680Y-91182273D01*
X167416047Y-91169800D01*
X167428672Y-91155901D01*
X167437474Y-91139311D01*
X167450383Y-91132000D01*
X167457187Y-91124510D01*
X167467336Y-91122399D01*
X167477249Y-91116785D01*
X167477193Y-91116650D01*
X167478292Y-91116194D01*
X167480690Y-91114836D01*
X167483186Y-91114168D01*
X167597314Y-91048276D01*
X167690500Y-90955090D01*
X167707908Y-90924939D01*
X167756390Y-90840966D01*
X167756390Y-90840964D01*
X167756392Y-90840962D01*
X167790500Y-90713668D01*
X167790500Y-90661784D01*
X168090000Y-90661784D01*
X168090000Y-91182499D01*
X168090001Y-91182500D01*
X168489999Y-91182500D01*
X168490000Y-91182499D01*
X168490000Y-90345001D01*
X168690000Y-90345001D01*
X168690000Y-91182499D01*
X168690001Y-91182500D01*
X169089998Y-91182500D01*
X169089999Y-91182499D01*
X169089999Y-90661786D01*
X169089998Y-90661784D01*
X169089992Y-90661740D01*
X169989500Y-90661740D01*
X169989500Y-91903260D01*
X169995598Y-91945110D01*
X169999427Y-91971395D01*
X170041619Y-92057699D01*
X170050802Y-92076483D01*
X170133517Y-92159198D01*
X170161175Y-92172719D01*
X170238604Y-92210572D01*
X170238605Y-92210572D01*
X170238607Y-92210573D01*
X170306740Y-92220500D01*
X170306743Y-92220500D01*
X170673257Y-92220500D01*
X170673260Y-92220500D01*
X170741393Y-92210573D01*
X170846483Y-92159198D01*
X170929198Y-92076483D01*
X170980573Y-91971393D01*
X170990500Y-91903260D01*
X170990500Y-91732000D01*
X171009407Y-91673809D01*
X171058907Y-91637845D01*
X171089500Y-91633000D01*
X171433642Y-91633000D01*
X171433644Y-91633000D01*
X171522788Y-91609114D01*
X171522794Y-91609110D01*
X171525394Y-91608034D01*
X171563276Y-91600500D01*
X171635890Y-91600500D01*
X171635892Y-91600500D01*
X171763186Y-91566392D01*
X171763188Y-91566390D01*
X171763190Y-91566390D01*
X171877309Y-91500503D01*
X171877309Y-91500502D01*
X171877314Y-91500500D01*
X171970500Y-91407314D01*
X171984826Y-91382501D01*
X172036390Y-91293190D01*
X172036390Y-91293188D01*
X172036392Y-91293186D01*
X172070500Y-91165892D01*
X172070500Y-91034108D01*
X172036392Y-90906814D01*
X172036390Y-90906811D01*
X172036390Y-90906809D01*
X171970503Y-90792690D01*
X171970501Y-90792688D01*
X171970500Y-90792686D01*
X171877314Y-90699500D01*
X171877311Y-90699498D01*
X171877309Y-90699496D01*
X171763189Y-90633609D01*
X171763191Y-90633609D01*
X171713799Y-90620375D01*
X171635892Y-90599500D01*
X171504108Y-90599500D01*
X171426200Y-90620375D01*
X171376809Y-90633609D01*
X171262690Y-90699496D01*
X171169493Y-90792693D01*
X171168038Y-90794590D01*
X171166628Y-90795558D01*
X171164912Y-90797275D01*
X171164593Y-90796956D01*
X171117612Y-90829243D01*
X171056448Y-90827638D01*
X171007908Y-90790388D01*
X170990500Y-90734318D01*
X170990500Y-90661743D01*
X170990500Y-90661740D01*
X170980573Y-90593607D01*
X170976108Y-90584474D01*
X170942113Y-90514935D01*
X170929198Y-90488517D01*
X170846483Y-90405802D01*
X170841009Y-90403126D01*
X170741395Y-90354427D01*
X170714139Y-90350456D01*
X170673260Y-90344500D01*
X170306740Y-90344500D01*
X170272673Y-90349463D01*
X170238604Y-90354427D01*
X170133518Y-90405801D01*
X170050801Y-90488518D01*
X169999427Y-90593604D01*
X169994990Y-90624058D01*
X169989500Y-90661740D01*
X169089992Y-90661740D01*
X169080087Y-90593749D01*
X169028785Y-90488811D01*
X168946187Y-90406213D01*
X168841248Y-90354912D01*
X168773216Y-90345000D01*
X168690001Y-90345000D01*
X168690000Y-90345001D01*
X168490000Y-90345001D01*
X168490000Y-90345000D01*
X168406785Y-90345000D01*
X168406782Y-90345001D01*
X168338750Y-90354912D01*
X168233811Y-90406214D01*
X168151213Y-90488812D01*
X168099912Y-90593751D01*
X168090000Y-90661784D01*
X167790500Y-90661784D01*
X167790500Y-90581884D01*
X167756392Y-90454590D01*
X167756390Y-90454587D01*
X167756390Y-90454585D01*
X167690503Y-90340466D01*
X167690501Y-90340464D01*
X167690500Y-90340462D01*
X167597314Y-90247276D01*
X167597311Y-90247274D01*
X167597309Y-90247272D01*
X167483189Y-90181385D01*
X167483191Y-90181385D01*
X167421386Y-90164825D01*
X167355892Y-90147276D01*
X167224108Y-90147276D01*
X167158614Y-90164825D01*
X167096809Y-90181385D01*
X166982690Y-90247272D01*
X166889496Y-90340466D01*
X166823609Y-90454585D01*
X166807635Y-90514202D01*
X166796487Y-90555810D01*
X166789500Y-90581885D01*
X166789500Y-90611586D01*
X166770593Y-90669777D01*
X166760504Y-90681589D01*
X166653593Y-90788500D01*
X166653591Y-90788502D01*
X166653591Y-90788503D01*
X166615860Y-90853856D01*
X166607449Y-90868422D01*
X166607447Y-90868425D01*
X166607447Y-90868427D01*
X166584813Y-90952901D01*
X166583561Y-90957572D01*
X166583561Y-91034010D01*
X166564654Y-91092201D01*
X166554570Y-91104007D01*
X166524545Y-91134033D01*
X166494862Y-91163716D01*
X166443488Y-91268802D01*
X166441324Y-91283657D01*
X166433561Y-91336938D01*
X165534053Y-91336938D01*
X165524148Y-91268947D01*
X165472846Y-91164009D01*
X165390248Y-91081411D01*
X165285309Y-91030110D01*
X165217277Y-91020198D01*
X165134062Y-91020198D01*
X165134061Y-91020199D01*
X164934061Y-91020199D01*
X164934061Y-91020198D01*
X164850846Y-91020198D01*
X164850843Y-91020199D01*
X164782811Y-91030110D01*
X164677872Y-91081412D01*
X164595274Y-91164010D01*
X164547139Y-91262471D01*
X164542265Y-91280660D01*
X164534061Y-91336979D01*
X164296266Y-91336979D01*
X164323821Y-91289253D01*
X164344644Y-91253186D01*
X164378752Y-91125892D01*
X164378752Y-90994108D01*
X164344644Y-90866814D01*
X164344642Y-90866811D01*
X164344642Y-90866809D01*
X164278755Y-90752690D01*
X164278753Y-90752688D01*
X164278752Y-90752686D01*
X164185566Y-90659500D01*
X164185563Y-90659498D01*
X164185561Y-90659496D01*
X164071441Y-90593609D01*
X164071443Y-90593609D01*
X164022051Y-90580375D01*
X163944144Y-90559500D01*
X163812360Y-90559500D01*
X163734452Y-90580375D01*
X163685061Y-90593609D01*
X163570942Y-90659496D01*
X163477748Y-90752690D01*
X163411861Y-90866809D01*
X163376277Y-90999612D01*
X163342953Y-91050927D01*
X163285831Y-91072853D01*
X163226731Y-91057017D01*
X163188225Y-91009467D01*
X163187224Y-91006740D01*
X163153793Y-90911197D01*
X163153791Y-90911195D01*
X163153791Y-90911193D01*
X163073154Y-90801934D01*
X163073152Y-90801932D01*
X163073150Y-90801929D01*
X163073146Y-90801926D01*
X163073144Y-90801924D01*
X162963883Y-90721286D01*
X162835703Y-90676434D01*
X162835694Y-90676432D01*
X162805274Y-90673579D01*
X162805266Y-90673579D01*
X161899335Y-90673579D01*
X161841144Y-90654672D01*
X161829332Y-90644583D01*
X161500516Y-90315768D01*
X161500511Y-90315764D01*
X161426296Y-90272916D01*
X161426298Y-90272916D01*
X161394175Y-90264309D01*
X161343507Y-90250733D01*
X157479907Y-90250733D01*
X157394201Y-90250733D01*
X157343532Y-90264309D01*
X157311410Y-90272916D01*
X157237196Y-90315764D01*
X156809883Y-90743077D01*
X156767036Y-90817290D01*
X156767032Y-90817299D01*
X156759173Y-90846634D01*
X156744852Y-90900082D01*
X156744852Y-91087989D01*
X156725945Y-91146180D01*
X156715856Y-91157993D01*
X156019504Y-91854345D01*
X155964987Y-91882122D01*
X155904555Y-91872551D01*
X155861290Y-91829286D01*
X155850500Y-91784341D01*
X155850500Y-91700224D01*
X155850499Y-91700220D01*
X155848517Y-91690258D01*
X155810130Y-91497268D01*
X155730941Y-91306090D01*
X155615977Y-91134033D01*
X155469655Y-90987711D01*
X155469651Y-90987708D01*
X155297597Y-90872746D01*
X155106418Y-90793557D01*
X154903467Y-90753188D01*
X154903465Y-90753188D01*
X154696535Y-90753188D01*
X154696532Y-90753188D01*
X154493581Y-90793557D01*
X154302402Y-90872746D01*
X154130348Y-90987708D01*
X153984020Y-91134036D01*
X153869058Y-91306090D01*
X153789869Y-91497269D01*
X153749500Y-91700220D01*
X153749500Y-91907155D01*
X153789869Y-92110106D01*
X153869058Y-92301285D01*
X153983805Y-92473017D01*
X153984023Y-92473343D01*
X154130345Y-92619665D01*
X154302402Y-92734629D01*
X154302403Y-92734629D01*
X154302404Y-92734630D01*
X154327807Y-92745152D01*
X154388385Y-92770244D01*
X154434911Y-92809980D01*
X154449500Y-92861708D01*
X154449500Y-93443810D01*
X154430593Y-93502001D01*
X154420504Y-93513814D01*
X153333814Y-94600504D01*
X153332747Y-94601047D01*
X153332181Y-94602099D01*
X153325164Y-94604910D01*
X153279297Y-94628281D01*
X153277038Y-94628612D01*
X153270452Y-94629500D01*
X153234108Y-94629500D01*
X153197296Y-94639363D01*
X153191016Y-94640210D01*
X153166844Y-94635808D01*
X153142308Y-94634522D01*
X153135498Y-94630099D01*
X153130821Y-94629248D01*
X153125326Y-94623494D01*
X153107784Y-94612102D01*
X152407731Y-93912049D01*
X151687212Y-93191530D01*
X151686838Y-93191314D01*
X151607291Y-93145387D01*
X151607286Y-93145385D01*
X151604183Y-93144553D01*
X151604183Y-93144554D01*
X151518144Y-93121500D01*
X146314046Y-93121500D01*
X146228007Y-93144554D01*
X146228006Y-93144553D01*
X146224903Y-93145385D01*
X146224902Y-93145385D01*
X146144980Y-93191529D01*
X144301304Y-95035204D01*
X144246787Y-95062981D01*
X144186355Y-95053410D01*
X144143090Y-95010145D01*
X144133519Y-94949713D01*
X144145562Y-94915703D01*
X144183258Y-94850413D01*
X144217366Y-94723119D01*
X144217366Y-94591335D01*
X144183258Y-94464041D01*
X144183256Y-94464038D01*
X144183256Y-94464036D01*
X144117369Y-94349917D01*
X144117367Y-94349915D01*
X144117366Y-94349913D01*
X144024180Y-94256727D01*
X144024177Y-94256725D01*
X144024175Y-94256723D01*
X143910055Y-94190836D01*
X143910057Y-94190836D01*
X143849842Y-94174702D01*
X143782758Y-94156727D01*
X143650974Y-94156727D01*
X143583890Y-94174702D01*
X143523675Y-94190836D01*
X143409556Y-94256723D01*
X143316362Y-94349917D01*
X143250475Y-94464036D01*
X143241548Y-94497354D01*
X143216366Y-94591335D01*
X143216366Y-94723119D01*
X143239517Y-94809520D01*
X143250475Y-94850417D01*
X143272310Y-94888235D01*
X143285032Y-94948083D01*
X143260146Y-95003979D01*
X143256578Y-95007739D01*
X141997047Y-96267270D01*
X141942530Y-96295047D01*
X141882098Y-96285476D01*
X141838833Y-96242211D01*
X141831418Y-96222895D01*
X141816392Y-96166814D01*
X141816389Y-96166809D01*
X141750503Y-96052690D01*
X141750501Y-96052688D01*
X141750500Y-96052686D01*
X141657314Y-95959500D01*
X141657311Y-95959498D01*
X141657309Y-95959496D01*
X141543189Y-95893609D01*
X141543191Y-95893609D01*
X141456840Y-95870472D01*
X141415892Y-95859500D01*
X141284108Y-95859500D01*
X141243160Y-95870472D01*
X141156809Y-95893609D01*
X141042690Y-95959496D01*
X140949496Y-96052690D01*
X140883609Y-96166809D01*
X140868708Y-96222421D01*
X140854430Y-96275711D01*
X140849500Y-96294109D01*
X140849500Y-96323810D01*
X140830593Y-96382001D01*
X140820503Y-96393814D01*
X140496592Y-96717724D01*
X140442076Y-96745501D01*
X140381644Y-96735930D01*
X140340853Y-96697221D01*
X140280500Y-96592686D01*
X140187314Y-96499500D01*
X140187311Y-96499498D01*
X140187309Y-96499496D01*
X140073189Y-96433609D01*
X140073191Y-96433609D01*
X140018212Y-96418878D01*
X139945892Y-96399500D01*
X139814108Y-96399500D01*
X139741788Y-96418878D01*
X139686809Y-96433609D01*
X139572690Y-96499496D01*
X139479496Y-96592690D01*
X139413609Y-96706809D01*
X139397531Y-96766814D01*
X139379562Y-96833879D01*
X139379500Y-96834109D01*
X139379500Y-96863810D01*
X139360593Y-96922001D01*
X139350504Y-96933813D01*
X139019530Y-97264787D01*
X138972574Y-97346117D01*
X138927104Y-97387057D01*
X138866254Y-97393452D01*
X138846855Y-97387182D01*
X138819991Y-97375321D01*
X138819990Y-97375320D01*
X138819988Y-97375320D01*
X138794868Y-97372406D01*
X138505140Y-97372406D01*
X138505135Y-97372407D01*
X138480009Y-97375320D01*
X138377235Y-97420700D01*
X138297794Y-97500141D01*
X138252414Y-97602917D01*
X138249500Y-97628036D01*
X138249500Y-98386716D01*
X138230593Y-98444907D01*
X138220504Y-98456719D01*
X138044221Y-98633003D01*
X137989704Y-98660781D01*
X137974217Y-98662000D01*
X137236618Y-98662000D01*
X137178427Y-98643093D01*
X137143174Y-98595698D01*
X137129117Y-98555527D01*
X137129114Y-98555521D01*
X137050714Y-98449293D01*
X137050713Y-98449292D01*
X137050711Y-98449289D01*
X137050706Y-98449285D01*
X136944476Y-98370884D01*
X136819852Y-98327276D01*
X136819851Y-98327275D01*
X136819849Y-98327275D01*
X136819847Y-98327274D01*
X136819844Y-98327274D01*
X136790266Y-98324500D01*
X136790256Y-98324500D01*
X136209744Y-98324500D01*
X136209733Y-98324500D01*
X136180155Y-98327274D01*
X136180147Y-98327276D01*
X136055523Y-98370884D01*
X135949293Y-98449285D01*
X135949285Y-98449293D01*
X135870885Y-98555521D01*
X135870882Y-98555527D01*
X135856826Y-98595698D01*
X135819760Y-98644379D01*
X135763382Y-98662000D01*
X135368341Y-98662000D01*
X135310150Y-98643093D01*
X135286026Y-98618002D01*
X135244230Y-98555451D01*
X135244228Y-98555448D01*
X135231307Y-98546814D01*
X135177909Y-98511134D01*
X135177907Y-98511133D01*
X135177904Y-98511132D01*
X135177903Y-98511132D01*
X135119434Y-98499501D01*
X135119424Y-98499500D01*
X134229928Y-98499500D01*
X134225064Y-98499500D01*
X134225064Y-98497187D01*
X134213946Y-98494742D01*
X134193583Y-98494742D01*
X134184742Y-98488318D01*
X134174072Y-98485972D01*
X134160556Y-98470746D01*
X134144083Y-98458778D01*
X134140706Y-98448386D01*
X134133453Y-98440215D01*
X134125176Y-98400587D01*
X134125176Y-98327935D01*
X134144083Y-98269744D01*
X134154172Y-98257931D01*
X134332607Y-98079496D01*
X134387124Y-98051719D01*
X134402611Y-98050500D01*
X136146809Y-98050500D01*
X136237169Y-98026287D01*
X136237172Y-98026287D01*
X136250403Y-98022741D01*
X136261387Y-98019799D01*
X136349640Y-97968845D01*
X136364109Y-97960492D01*
X136364109Y-97960491D01*
X136364114Y-97960489D01*
X136398167Y-97926436D01*
X136420108Y-97904496D01*
X136474625Y-97876719D01*
X136490111Y-97875500D01*
X136790262Y-97875500D01*
X136790265Y-97875499D01*
X136819849Y-97872725D01*
X136944475Y-97829116D01*
X137050711Y-97750711D01*
X137129116Y-97644475D01*
X137172725Y-97519849D01*
X137175500Y-97490256D01*
X137175500Y-97190110D01*
X137194407Y-97131919D01*
X137204490Y-97120112D01*
X138713705Y-95610896D01*
X138768222Y-95583120D01*
X138828654Y-95592691D01*
X138871919Y-95635956D01*
X138879336Y-95655278D01*
X138879500Y-95655890D01*
X138879500Y-95655892D01*
X138897550Y-95723255D01*
X138913609Y-95783190D01*
X138979496Y-95897309D01*
X138979498Y-95897311D01*
X138979500Y-95897314D01*
X139072686Y-95990500D01*
X139072688Y-95990501D01*
X139072690Y-95990503D01*
X139186810Y-96056390D01*
X139186808Y-96056390D01*
X139186812Y-96056391D01*
X139186814Y-96056392D01*
X139314108Y-96090500D01*
X139314110Y-96090500D01*
X139445890Y-96090500D01*
X139445892Y-96090500D01*
X139573186Y-96056392D01*
X139573188Y-96056390D01*
X139573190Y-96056390D01*
X139687309Y-95990503D01*
X139687309Y-95990502D01*
X139687314Y-95990500D01*
X139773725Y-95904088D01*
X139794223Y-95888360D01*
X139825212Y-95870470D01*
X141238276Y-94457404D01*
X141292789Y-94429630D01*
X141353221Y-94439201D01*
X141396486Y-94482466D01*
X141406057Y-94542898D01*
X141403903Y-94553033D01*
X141383741Y-94628281D01*
X141379500Y-94644108D01*
X141379500Y-94775892D01*
X141409320Y-94887181D01*
X141413609Y-94903190D01*
X141479496Y-95017309D01*
X141479498Y-95017311D01*
X141479500Y-95017314D01*
X141572686Y-95110500D01*
X141572688Y-95110501D01*
X141572690Y-95110503D01*
X141686810Y-95176390D01*
X141686808Y-95176390D01*
X141686812Y-95176391D01*
X141686814Y-95176392D01*
X141814108Y-95210500D01*
X141814110Y-95210500D01*
X141945890Y-95210500D01*
X141945892Y-95210500D01*
X142073186Y-95176392D01*
X142073188Y-95176390D01*
X142073190Y-95176390D01*
X142187309Y-95110503D01*
X142187309Y-95110502D01*
X142187314Y-95110500D01*
X142280500Y-95017314D01*
X142286028Y-95007739D01*
X142346390Y-94903190D01*
X142346390Y-94903188D01*
X142346392Y-94903186D01*
X142380500Y-94775892D01*
X142380500Y-94644108D01*
X142346392Y-94516814D01*
X142346390Y-94516811D01*
X142346390Y-94516809D01*
X142280503Y-94402690D01*
X142280496Y-94402681D01*
X142279490Y-94401675D01*
X142279027Y-94400767D01*
X142276551Y-94397540D01*
X142277149Y-94397080D01*
X142251717Y-94347156D01*
X142250500Y-94331678D01*
X142250500Y-93645507D01*
X142269407Y-93587316D01*
X142318907Y-93551352D01*
X142380093Y-93551352D01*
X142429593Y-93587316D01*
X142435236Y-93596007D01*
X142499496Y-93707309D01*
X142499498Y-93707311D01*
X142499500Y-93707314D01*
X142592686Y-93800500D01*
X142592688Y-93800501D01*
X142592690Y-93800503D01*
X142706810Y-93866390D01*
X142706808Y-93866390D01*
X142706812Y-93866391D01*
X142706814Y-93866392D01*
X142834108Y-93900500D01*
X142834110Y-93900500D01*
X142965890Y-93900500D01*
X142965892Y-93900500D01*
X143093186Y-93866392D01*
X143093188Y-93866390D01*
X143093190Y-93866390D01*
X143207309Y-93800503D01*
X143207309Y-93800502D01*
X143207314Y-93800500D01*
X143300500Y-93707314D01*
X143309275Y-93692116D01*
X143366390Y-93593190D01*
X143366390Y-93593188D01*
X143366392Y-93593186D01*
X143400500Y-93465892D01*
X143400500Y-93334108D01*
X143366392Y-93206814D01*
X143366390Y-93206811D01*
X143366390Y-93206809D01*
X143300503Y-93092690D01*
X143300501Y-93092688D01*
X143300500Y-93092686D01*
X143207314Y-92999500D01*
X143207311Y-92999498D01*
X143207309Y-92999496D01*
X143093189Y-92933609D01*
X143093191Y-92933609D01*
X143041605Y-92919787D01*
X142973875Y-92901639D01*
X142971610Y-92900168D01*
X142968907Y-92900168D01*
X142946146Y-92883631D01*
X142922563Y-92868316D01*
X142921594Y-92865793D01*
X142919407Y-92864204D01*
X142910712Y-92837442D01*
X142900636Y-92811194D01*
X142900500Y-92806013D01*
X142900500Y-92764788D01*
X142919407Y-92706597D01*
X142968907Y-92670633D01*
X143025498Y-92669262D01*
X143030000Y-92670487D01*
X143030009Y-92670491D01*
X143055135Y-92673406D01*
X143344864Y-92673405D01*
X143369991Y-92670491D01*
X143472765Y-92625112D01*
X143472766Y-92625110D01*
X143481157Y-92621406D01*
X143482205Y-92623781D01*
X143527739Y-92610368D01*
X143567948Y-92623432D01*
X143568843Y-92621406D01*
X143577233Y-92625110D01*
X143577235Y-92625112D01*
X143680009Y-92670491D01*
X143705135Y-92673406D01*
X143994864Y-92673405D01*
X144019991Y-92670491D01*
X144122765Y-92625112D01*
X144122766Y-92625110D01*
X144131157Y-92621406D01*
X144132205Y-92623781D01*
X144177739Y-92610368D01*
X144217948Y-92623432D01*
X144218843Y-92621406D01*
X144227233Y-92625110D01*
X144227235Y-92625112D01*
X144330009Y-92670491D01*
X144355135Y-92673406D01*
X144644864Y-92673405D01*
X144669991Y-92670491D01*
X144772765Y-92625112D01*
X144852206Y-92545671D01*
X144897585Y-92442897D01*
X144900500Y-92417771D01*
X144900499Y-91700269D01*
X149250000Y-91700269D01*
X149250000Y-91907106D01*
X149290349Y-92109960D01*
X149369501Y-92301048D01*
X149369508Y-92301062D01*
X149484405Y-92473017D01*
X149486826Y-92475438D01*
X149882210Y-92080053D01*
X149899901Y-92110695D01*
X149992993Y-92203787D01*
X150023632Y-92221476D01*
X149628249Y-92616861D01*
X149630670Y-92619282D01*
X149802625Y-92734179D01*
X149802639Y-92734186D01*
X149993727Y-92813338D01*
X150196581Y-92853687D01*
X150196586Y-92853688D01*
X150403414Y-92853688D01*
X150403418Y-92853687D01*
X150606272Y-92813338D01*
X150797360Y-92734186D01*
X150797366Y-92734183D01*
X150969333Y-92619279D01*
X150971750Y-92616861D01*
X150576366Y-92221477D01*
X150607007Y-92203787D01*
X150700099Y-92110695D01*
X150717789Y-92080054D01*
X151113173Y-92475438D01*
X151115591Y-92473021D01*
X151230495Y-92301054D01*
X151230498Y-92301048D01*
X151309650Y-92109960D01*
X151349999Y-91907106D01*
X151350000Y-91907098D01*
X151350000Y-91700274D01*
X151349999Y-91700269D01*
X151309650Y-91497415D01*
X151230498Y-91306327D01*
X151230491Y-91306313D01*
X151115594Y-91134358D01*
X151113173Y-91131937D01*
X150717788Y-91527320D01*
X150700099Y-91496681D01*
X150607007Y-91403589D01*
X150576365Y-91385898D01*
X150971750Y-90990514D01*
X150969329Y-90988093D01*
X150797374Y-90873196D01*
X150797360Y-90873189D01*
X150606272Y-90794037D01*
X150403418Y-90753688D01*
X150196581Y-90753688D01*
X149993727Y-90794037D01*
X149802639Y-90873189D01*
X149802630Y-90873193D01*
X149630665Y-90988098D01*
X149628248Y-90990513D01*
X150023633Y-91385898D01*
X149992993Y-91403589D01*
X149899901Y-91496681D01*
X149882210Y-91527321D01*
X149486825Y-91131936D01*
X149484410Y-91134353D01*
X149369505Y-91306318D01*
X149369501Y-91306327D01*
X149290349Y-91497415D01*
X149250000Y-91700269D01*
X144900499Y-91700269D01*
X144900499Y-91517895D01*
X144900499Y-91031517D01*
X144900499Y-90628045D01*
X144900499Y-90628042D01*
X144897585Y-90602915D01*
X144852206Y-90500141D01*
X144772765Y-90420700D01*
X144669991Y-90375321D01*
X144669990Y-90375320D01*
X144669988Y-90375320D01*
X144644868Y-90372406D01*
X144355140Y-90372406D01*
X144355135Y-90372407D01*
X144330009Y-90375320D01*
X144267036Y-90403126D01*
X144227235Y-90420700D01*
X144227234Y-90420700D01*
X144218843Y-90424406D01*
X144217794Y-90422032D01*
X144172243Y-90435443D01*
X144132050Y-90422383D01*
X144131157Y-90424406D01*
X144122766Y-90420701D01*
X144122765Y-90420700D01*
X144019991Y-90375321D01*
X144019990Y-90375320D01*
X144019988Y-90375320D01*
X143994868Y-90372406D01*
X143705140Y-90372406D01*
X143705135Y-90372407D01*
X143680009Y-90375320D01*
X143617036Y-90403126D01*
X143577235Y-90420700D01*
X143577234Y-90420700D01*
X143568843Y-90424406D01*
X143567794Y-90422032D01*
X143522243Y-90435443D01*
X143482050Y-90422383D01*
X143481157Y-90424406D01*
X143472766Y-90420701D01*
X143472765Y-90420700D01*
X143369991Y-90375321D01*
X143369990Y-90375320D01*
X143369988Y-90375320D01*
X143344868Y-90372406D01*
X143055140Y-90372406D01*
X143055135Y-90372407D01*
X143030009Y-90375320D01*
X142967036Y-90403126D01*
X142927235Y-90420700D01*
X142927234Y-90420700D01*
X142918843Y-90424406D01*
X142917794Y-90422032D01*
X142872243Y-90435443D01*
X142832050Y-90422383D01*
X142831157Y-90424406D01*
X142822766Y-90420701D01*
X142822765Y-90420700D01*
X142719991Y-90375321D01*
X142719990Y-90375320D01*
X142719988Y-90375320D01*
X142694868Y-90372406D01*
X142405140Y-90372406D01*
X142405135Y-90372407D01*
X142380009Y-90375320D01*
X142317036Y-90403126D01*
X142277235Y-90420700D01*
X142277234Y-90420700D01*
X142268843Y-90424406D01*
X142267794Y-90422032D01*
X142222243Y-90435443D01*
X142182050Y-90422383D01*
X142181157Y-90424406D01*
X142172766Y-90420701D01*
X142172765Y-90420700D01*
X142069991Y-90375321D01*
X142069990Y-90375320D01*
X142069988Y-90375320D01*
X142044868Y-90372406D01*
X141755140Y-90372406D01*
X141755135Y-90372407D01*
X141730009Y-90375320D01*
X141667036Y-90403126D01*
X141627235Y-90420700D01*
X141627234Y-90420700D01*
X141618843Y-90424406D01*
X141617794Y-90422032D01*
X141572243Y-90435443D01*
X141532050Y-90422383D01*
X141531157Y-90424406D01*
X141522766Y-90420701D01*
X141522765Y-90420700D01*
X141419991Y-90375321D01*
X141419990Y-90375320D01*
X141419988Y-90375320D01*
X141394868Y-90372406D01*
X141105140Y-90372406D01*
X141105135Y-90372407D01*
X141080009Y-90375320D01*
X141017036Y-90403126D01*
X140977235Y-90420700D01*
X140977234Y-90420700D01*
X140968843Y-90424406D01*
X140967863Y-90422188D01*
X140921791Y-90435751D01*
X140881786Y-90422749D01*
X140880870Y-90424825D01*
X140769872Y-90375815D01*
X140744797Y-90372906D01*
X140700001Y-90372906D01*
X140700000Y-90372907D01*
X140700000Y-92672904D01*
X140700001Y-92672905D01*
X140744790Y-92672905D01*
X140744791Y-92672904D01*
X140769874Y-92669996D01*
X140774505Y-92668736D01*
X140835619Y-92671700D01*
X140883318Y-92710020D01*
X140899500Y-92764262D01*
X140899500Y-93763810D01*
X140880593Y-93822001D01*
X140870504Y-93833814D01*
X139619536Y-95084781D01*
X139565019Y-95112558D01*
X139523910Y-95110404D01*
X139466911Y-95095132D01*
X139445892Y-95089500D01*
X139314108Y-95089500D01*
X139186814Y-95123608D01*
X139186812Y-95123608D01*
X139180546Y-95125288D01*
X139180184Y-95123939D01*
X139126385Y-95128171D01*
X139074217Y-95096199D01*
X139050805Y-95039670D01*
X139050500Y-95031907D01*
X139050500Y-94251428D01*
X139069407Y-94193237D01*
X139117650Y-94157692D01*
X139157000Y-94144322D01*
X139209100Y-94112240D01*
X139209106Y-94112234D01*
X139209110Y-94112232D01*
X139257890Y-94070387D01*
X139257890Y-94070386D01*
X139257898Y-94070380D01*
X140245898Y-92908526D01*
X140269275Y-92874682D01*
X140288327Y-92840154D01*
X140291471Y-92833984D01*
X140294471Y-92828097D01*
X140294471Y-92828095D01*
X140294473Y-92828092D01*
X140312340Y-92745851D01*
X140343170Y-92693001D01*
X140399177Y-92668366D01*
X140422592Y-92670310D01*
X140422729Y-92669138D01*
X140455204Y-92672905D01*
X140500000Y-92672904D01*
X140500000Y-90372905D01*
X140455212Y-90372906D01*
X140455207Y-90372907D01*
X140430125Y-90375815D01*
X140319130Y-90424825D01*
X140318057Y-90422395D01*
X140272691Y-90435751D01*
X140231988Y-90422523D01*
X140231157Y-90424406D01*
X140222766Y-90420701D01*
X140222765Y-90420700D01*
X140119991Y-90375321D01*
X140119990Y-90375320D01*
X140119988Y-90375320D01*
X140094868Y-90372406D01*
X139805140Y-90372406D01*
X139805135Y-90372407D01*
X139780009Y-90375320D01*
X139717036Y-90403126D01*
X139677235Y-90420700D01*
X139677234Y-90420700D01*
X139668843Y-90424406D01*
X139667794Y-90422032D01*
X139622243Y-90435443D01*
X139582050Y-90422383D01*
X139581157Y-90424406D01*
X139572766Y-90420701D01*
X139572765Y-90420700D01*
X139469991Y-90375321D01*
X139469990Y-90375320D01*
X139469988Y-90375320D01*
X139444868Y-90372406D01*
X139155140Y-90372406D01*
X139155135Y-90372407D01*
X139130009Y-90375320D01*
X139067036Y-90403126D01*
X139027235Y-90420700D01*
X139027234Y-90420700D01*
X139018843Y-90424406D01*
X139017794Y-90422032D01*
X138972243Y-90435443D01*
X138942377Y-90429951D01*
X138926460Y-90424395D01*
X138922765Y-90420700D01*
X138819991Y-90375321D01*
X138794865Y-90372406D01*
X138777501Y-90372406D01*
X138761657Y-90366876D01*
X138750008Y-90358021D01*
X138736089Y-90353499D01*
X138726258Y-90339968D01*
X138712947Y-90329850D01*
X138708727Y-90315839D01*
X138700125Y-90303999D01*
X138696701Y-90275909D01*
X138695303Y-90271264D01*
X138695920Y-90269495D01*
X138695534Y-90266325D01*
X138696652Y-90250733D01*
X138697451Y-90239589D01*
X138696604Y-90201179D01*
X138692351Y-90164567D01*
X138690822Y-90153864D01*
X138680325Y-90128521D01*
X138680329Y-90128521D01*
X138677266Y-90116141D01*
X138665243Y-90081306D01*
X138649425Y-90060347D01*
X138648446Y-90058967D01*
X138648405Y-90058995D01*
X138644192Y-90053413D01*
X138639855Y-90044258D01*
X138637656Y-90027212D01*
X138628647Y-89998372D01*
X138632473Y-89987036D01*
X138632027Y-89983575D01*
X138636253Y-89975839D01*
X138648216Y-89940401D01*
X138660295Y-89931833D01*
X138661362Y-89929881D01*
X138666439Y-89927475D01*
X138698123Y-89905003D01*
X138727641Y-89900500D01*
X172700500Y-89900500D01*
X172758691Y-89919407D01*
G37*
%TD.AperFunction*%
%TA.AperFunction,Conductor*%
G36*
X118652985Y-91737675D02*
G01*
X118585640Y-93221385D01*
X120612640Y-93155385D01*
X120824529Y-93124028D01*
X120811693Y-93126346D01*
X120799455Y-93128960D01*
X120799447Y-93128963D01*
X120728377Y-93158944D01*
X120677473Y-93192880D01*
X120677462Y-93192888D01*
X120648775Y-93215979D01*
X120648771Y-93215983D01*
X120634102Y-93238427D01*
X120634103Y-93238428D01*
X120598738Y-93292539D01*
X120598737Y-93292542D01*
X120577499Y-93349923D01*
X120577497Y-93349929D01*
X120567860Y-93385479D01*
X120567860Y-93385480D01*
X120567860Y-93385481D01*
X120568746Y-93403377D01*
X120572380Y-93476827D01*
X120588926Y-93535729D01*
X120597853Y-93555147D01*
X120615783Y-93594145D01*
X120697513Y-93716740D01*
X120801824Y-93873207D01*
X120802098Y-93873617D01*
X120819891Y-93896601D01*
X120838513Y-93917428D01*
X120839474Y-93918495D01*
X120914443Y-93970876D01*
X120971139Y-93993880D01*
X121033762Y-94008435D01*
X121060127Y-94010318D01*
X121179905Y-94018873D01*
X121179906Y-94018872D01*
X121179908Y-94018873D01*
X121195592Y-94018095D01*
X121254649Y-94034094D01*
X121293022Y-94081750D01*
X121299500Y-94116973D01*
X121299500Y-94354219D01*
X121299501Y-94354231D01*
X121311132Y-94412703D01*
X121314814Y-94421592D01*
X121319611Y-94482589D01*
X121314814Y-94497354D01*
X121311132Y-94506242D01*
X121299501Y-94564714D01*
X121299500Y-94564726D01*
X121299500Y-95004219D01*
X121299501Y-95004231D01*
X121311132Y-95062703D01*
X121314814Y-95071592D01*
X121319611Y-95132589D01*
X121314814Y-95147354D01*
X121311132Y-95156242D01*
X121299501Y-95214714D01*
X121299500Y-95214726D01*
X121299500Y-95654219D01*
X121299501Y-95654231D01*
X121309677Y-95705385D01*
X121262640Y-95705385D01*
X121262640Y-97205385D01*
X118712640Y-97205385D01*
X118712640Y-97781883D01*
X118679504Y-97815020D01*
X118624987Y-97842797D01*
X118564555Y-97833226D01*
X118521290Y-97789961D01*
X118510500Y-97745016D01*
X118510500Y-91823930D01*
X118529407Y-91765739D01*
X118578907Y-91729775D01*
X118640093Y-91729775D01*
X118652985Y-91737675D01*
G37*
%TD.AperFunction*%
%TA.AperFunction,Conductor*%
G36*
X158439166Y-90920640D02*
G01*
X158475130Y-90970140D01*
X158475130Y-91031326D01*
X158472438Y-91038621D01*
X158472253Y-91039065D01*
X158458016Y-91092201D01*
X158442516Y-91150050D01*
X158438145Y-91166362D01*
X158438145Y-91230851D01*
X158424882Y-91280349D01*
X158419741Y-91289255D01*
X158398216Y-91369587D01*
X158395855Y-91378400D01*
X158395855Y-91922102D01*
X158376948Y-91980293D01*
X158359660Y-91998630D01*
X158346355Y-92009549D01*
X158346355Y-92679916D01*
X158411274Y-92667004D01*
X158411279Y-92667002D01*
X158440902Y-92647208D01*
X158499789Y-92630598D01*
X158530894Y-92636911D01*
X158541489Y-92640913D01*
X158581238Y-92667473D01*
X158640899Y-92679340D01*
X158700211Y-92695233D01*
X158700212Y-92695233D01*
X158792499Y-92695233D01*
X158796227Y-92694234D01*
X158857329Y-92697433D01*
X158904881Y-92735936D01*
X158920855Y-92789858D01*
X158920855Y-92945630D01*
X158920856Y-92945637D01*
X158936114Y-93022348D01*
X158936114Y-93022349D01*
X158936115Y-93022350D01*
X158956081Y-93052232D01*
X158972689Y-93111120D01*
X158966408Y-93142135D01*
X158962396Y-93152781D01*
X158936115Y-93192116D01*
X158924247Y-93251777D01*
X158922147Y-93259612D01*
X158922144Y-93259622D01*
X158908355Y-93311089D01*
X158908355Y-93403376D01*
X158909080Y-93408884D01*
X158897930Y-93469045D01*
X158853547Y-93511162D01*
X158798004Y-93519959D01*
X158792500Y-93519234D01*
X158792499Y-93519234D01*
X158700211Y-93519234D01*
X158700207Y-93519234D01*
X158648745Y-93533022D01*
X158648738Y-93533024D01*
X158640891Y-93535127D01*
X158581238Y-93546993D01*
X158541902Y-93573275D01*
X158531258Y-93577286D01*
X158511502Y-93578198D01*
X158492467Y-93583567D01*
X158480370Y-93579636D01*
X158470138Y-93580109D01*
X158458747Y-93572610D01*
X158441354Y-93566959D01*
X158411474Y-93546994D01*
X158411472Y-93546993D01*
X158411469Y-93546992D01*
X158411468Y-93546992D01*
X158334765Y-93531734D01*
X158334757Y-93531733D01*
X158334756Y-93531733D01*
X158334755Y-93531733D01*
X158174852Y-93531733D01*
X158116661Y-93512826D01*
X158101139Y-93491462D01*
X158098744Y-93493428D01*
X158069040Y-93457233D01*
X157398671Y-93457233D01*
X157411586Y-93522157D01*
X157411586Y-93522158D01*
X157431380Y-93551781D01*
X157447989Y-93610669D01*
X157441676Y-93641773D01*
X157437672Y-93652370D01*
X157411115Y-93692116D01*
X157399247Y-93751777D01*
X157386326Y-93800000D01*
X157383355Y-93811089D01*
X157383355Y-94204240D01*
X157364448Y-94262431D01*
X157314948Y-94298395D01*
X157284355Y-94303240D01*
X156780573Y-94303240D01*
X156722382Y-94284333D01*
X156710569Y-94274243D01*
X156564496Y-94128169D01*
X156536719Y-94073653D01*
X156535500Y-94058166D01*
X156535500Y-93257233D01*
X157398671Y-93257233D01*
X157633854Y-93257233D01*
X157633855Y-93257232D01*
X157633855Y-92957234D01*
X157833855Y-92957234D01*
X157833855Y-93257232D01*
X157833856Y-93257233D01*
X158069038Y-93257233D01*
X158056123Y-93192308D01*
X158036029Y-93162235D01*
X158019420Y-93103347D01*
X158036029Y-93052231D01*
X158056123Y-93022157D01*
X158069039Y-92957233D01*
X157833856Y-92957233D01*
X157833855Y-92957234D01*
X157633855Y-92957234D01*
X157633854Y-92957233D01*
X157405031Y-92957233D01*
X157443591Y-93076861D01*
X157443550Y-93094317D01*
X157448289Y-93111120D01*
X157443476Y-93125931D01*
X157443448Y-93138046D01*
X157436406Y-93147689D01*
X157431681Y-93162234D01*
X157411586Y-93192307D01*
X157411586Y-93192308D01*
X157398671Y-93257233D01*
X156535500Y-93257233D01*
X156535500Y-92300011D01*
X156554407Y-92241820D01*
X156564496Y-92230007D01*
X156785395Y-92009108D01*
X156839912Y-91981331D01*
X156900344Y-91990902D01*
X156925403Y-92009108D01*
X157383044Y-92466749D01*
X157401307Y-92491921D01*
X157407479Y-92504073D01*
X157411115Y-92522350D01*
X157434658Y-92557586D01*
X157437332Y-92562849D01*
X157441207Y-92587522D01*
X157447989Y-92611567D01*
X157445963Y-92617801D01*
X157446826Y-92623294D01*
X157439559Y-92637510D01*
X157431381Y-92662681D01*
X157411587Y-92692304D01*
X157411586Y-92692308D01*
X157398671Y-92757233D01*
X158069039Y-92757233D01*
X158097707Y-92722301D01*
X158111430Y-92708578D01*
X158146355Y-92679915D01*
X158146355Y-92009549D01*
X158081430Y-92022464D01*
X158081429Y-92022464D01*
X158033096Y-92054759D01*
X157974208Y-92071367D01*
X157937433Y-92062707D01*
X157929933Y-92059328D01*
X157911472Y-92046993D01*
X157895497Y-92043815D01*
X157885212Y-92039182D01*
X157872971Y-92028062D01*
X157855871Y-92018922D01*
X157424848Y-91587899D01*
X157397071Y-91533382D01*
X157395852Y-91517895D01*
X157395852Y-91118770D01*
X157414759Y-91060579D01*
X157424848Y-91048766D01*
X157542885Y-90930729D01*
X157597402Y-90902952D01*
X157612889Y-90901733D01*
X158380975Y-90901733D01*
X158439166Y-90920640D01*
G37*
%TD.AperFunction*%
%TA.AperFunction,Conductor*%
G36*
X129697872Y-93313673D02*
G01*
X130697872Y-93313673D01*
X130741715Y-93361169D01*
X130707781Y-93349296D01*
X130707778Y-93349295D01*
X130644849Y-93327275D01*
X130615256Y-93324500D01*
X130009744Y-93324500D01*
X130009733Y-93324500D01*
X129980155Y-93327274D01*
X129980147Y-93327276D01*
X129855523Y-93370884D01*
X129749293Y-93449285D01*
X129749283Y-93449295D01*
X129738002Y-93464581D01*
X129688234Y-93500173D01*
X129627051Y-93499715D01*
X129577822Y-93463381D01*
X129559573Y-93412457D01*
X129518917Y-92809980D01*
X129518361Y-92801740D01*
X129515858Y-92780769D01*
X129512416Y-92760741D01*
X129507774Y-92740139D01*
X129477269Y-92631192D01*
X129479786Y-92570060D01*
X129517755Y-92522081D01*
X129521697Y-92520889D01*
X129697872Y-93313673D01*
G37*
%TD.AperFunction*%
%TA.AperFunction,Conductor*%
G36*
X121719109Y-93029918D02*
G01*
X121675844Y-93073183D01*
X121630899Y-93083973D01*
X121480249Y-93083973D01*
X121421769Y-93095605D01*
X121421073Y-93096071D01*
X121419734Y-93096448D01*
X121412764Y-93099336D01*
X121412422Y-93098510D01*
X121362185Y-93112678D01*
X121328285Y-93105258D01*
X121281048Y-93085750D01*
X121220718Y-93075565D01*
X121220719Y-93075565D01*
X121211533Y-93075471D01*
X121156428Y-93074912D01*
X121662640Y-93000000D01*
X121724261Y-92997381D01*
X121719109Y-93029918D01*
G37*
%TD.AperFunction*%
%TA.AperFunction,Conductor*%
G36*
X123043712Y-92891735D02*
G01*
X123014815Y-92902414D01*
X123010578Y-92904033D01*
X123010574Y-92904035D01*
X122935110Y-92955694D01*
X122893566Y-93000636D01*
X122871101Y-93029802D01*
X122869700Y-93032372D01*
X122867573Y-93034382D01*
X122866343Y-93035980D01*
X122866089Y-93035785D01*
X122853821Y-93047384D01*
X122840975Y-93065066D01*
X122832054Y-93067964D01*
X122825240Y-93074407D01*
X122782784Y-93083973D01*
X122719101Y-93083973D01*
X122660910Y-93065066D01*
X122624946Y-93015566D01*
X122624946Y-92959111D01*
X122712640Y-92955385D01*
X123074648Y-92882983D01*
X123043712Y-92891735D01*
G37*
%TD.AperFunction*%
%TA.AperFunction,Conductor*%
G36*
X161183010Y-90920640D02*
G01*
X161194823Y-90930729D01*
X161381504Y-91117410D01*
X161385130Y-91124527D01*
X161391593Y-91129223D01*
X161398756Y-91151271D01*
X161409281Y-91171927D01*
X161410500Y-91187414D01*
X161410500Y-91371500D01*
X161391593Y-91429691D01*
X161342093Y-91465655D01*
X161311500Y-91470500D01*
X160608856Y-91470500D01*
X160596206Y-91473889D01*
X160527081Y-91492410D01*
X160527082Y-91492411D01*
X160519714Y-91494385D01*
X160519712Y-91494385D01*
X160519712Y-91494386D01*
X160450280Y-91534473D01*
X160439785Y-91540532D01*
X159746415Y-92233901D01*
X159691899Y-92261678D01*
X159631467Y-92252107D01*
X159588202Y-92208842D01*
X159585503Y-92201050D01*
X159584856Y-92201319D01*
X159581124Y-92192309D01*
X159523108Y-92105483D01*
X159523104Y-92105479D01*
X159436278Y-92047464D01*
X159359711Y-92032233D01*
X159358856Y-92032233D01*
X159358855Y-92032234D01*
X159358855Y-92258233D01*
X159354010Y-92273144D01*
X159354010Y-92288826D01*
X159344793Y-92301511D01*
X159339948Y-92316424D01*
X159327262Y-92325640D01*
X159318046Y-92338326D01*
X159303133Y-92343171D01*
X159290448Y-92352388D01*
X159259855Y-92357233D01*
X159257855Y-92357233D01*
X159199664Y-92338326D01*
X159163700Y-92288826D01*
X159158855Y-92258233D01*
X159158855Y-92032234D01*
X159141045Y-92014424D01*
X159137664Y-92013326D01*
X159131598Y-92004977D01*
X159129858Y-92003237D01*
X159130133Y-92002961D01*
X159128447Y-92000640D01*
X159115762Y-91991424D01*
X159110916Y-91976511D01*
X159101700Y-91963826D01*
X159096855Y-91933233D01*
X159096855Y-91775995D01*
X159115762Y-91717804D01*
X159146353Y-91690260D01*
X159245959Y-91632753D01*
X159339145Y-91539567D01*
X159347555Y-91525000D01*
X159405035Y-91425443D01*
X159405035Y-91425441D01*
X159405037Y-91425439D01*
X159439145Y-91298145D01*
X159439145Y-91166361D01*
X159405037Y-91039067D01*
X159405036Y-91039065D01*
X159404852Y-91038621D01*
X159404824Y-91038277D01*
X159403357Y-91032799D01*
X159404372Y-91032526D01*
X159400050Y-90977625D01*
X159432017Y-90925455D01*
X159488545Y-90902038D01*
X159496315Y-90901733D01*
X161124819Y-90901733D01*
X161183010Y-90920640D01*
G37*
%TD.AperFunction*%
%TA.AperFunction,Conductor*%
G36*
X125074615Y-89919407D02*
G01*
X125110579Y-89968907D01*
X125115273Y-90004965D01*
X125115128Y-90007579D01*
X125124224Y-90398698D01*
X125106675Y-90457313D01*
X125058024Y-90494418D01*
X125025251Y-90500000D01*
X124800001Y-90500000D01*
X124800000Y-90500001D01*
X124800000Y-90890330D01*
X124742787Y-90875000D01*
X124657213Y-90875000D01*
X124600000Y-90890330D01*
X124600000Y-90500001D01*
X124599999Y-90500000D01*
X124180299Y-90500000D01*
X124121963Y-90511603D01*
X124055810Y-90555806D01*
X124055806Y-90555810D01*
X124011603Y-90621963D01*
X124000000Y-90680299D01*
X124000000Y-91099999D01*
X124000001Y-91100000D01*
X124390331Y-91100000D01*
X124375000Y-91157213D01*
X124375000Y-91242787D01*
X124390331Y-91300000D01*
X124000001Y-91300000D01*
X124000000Y-91300001D01*
X124000000Y-91719700D01*
X124011603Y-91778036D01*
X124055806Y-91844189D01*
X124055810Y-91844193D01*
X124121963Y-91888396D01*
X124175992Y-91899143D01*
X124229376Y-91929040D01*
X124254992Y-91984605D01*
X124243055Y-92044614D01*
X124198125Y-92086147D01*
X124156518Y-92095240D01*
X123828730Y-92094708D01*
X123828729Y-92094708D01*
X123828719Y-92094708D01*
X123810892Y-92095455D01*
X123810883Y-92095455D01*
X123810877Y-92095456D01*
X123793767Y-92096920D01*
X123715218Y-92120009D01*
X123715215Y-92120010D01*
X123661144Y-92148604D01*
X123661140Y-92148606D01*
X123630239Y-92168683D01*
X123572701Y-92239767D01*
X123545756Y-92294694D01*
X123526819Y-92356130D01*
X123562640Y-92105385D01*
X123612640Y-90355385D01*
X118717855Y-90308509D01*
X118695594Y-90798928D01*
X118679504Y-90815020D01*
X118624987Y-90842797D01*
X118564555Y-90833226D01*
X118521290Y-90789961D01*
X118510500Y-90745016D01*
X118510500Y-89999500D01*
X118529407Y-89941309D01*
X118578907Y-89905345D01*
X118609500Y-89900500D01*
X125016424Y-89900500D01*
X125074615Y-89919407D01*
G37*
%TD.AperFunction*%
%TA.AperFunction,Conductor*%
G36*
X137445253Y-89919407D02*
G01*
X137481217Y-89968907D01*
X137481217Y-90030093D01*
X137475252Y-90043222D01*
X137468383Y-90060347D01*
X137445314Y-90117857D01*
X137406104Y-90164825D01*
X137353432Y-90180000D01*
X137317501Y-90180000D01*
X137317500Y-90180001D01*
X137317500Y-90958923D01*
X137346056Y-90979999D01*
X137479790Y-90979999D01*
X137479791Y-90979998D01*
X137504874Y-90977090D01*
X137607478Y-90931786D01*
X137664540Y-90874724D01*
X137664878Y-90874551D01*
X137665055Y-90874212D01*
X137692129Y-90860666D01*
X137719056Y-90846946D01*
X137719432Y-90847005D01*
X137719774Y-90846835D01*
X137749623Y-90851787D01*
X137779488Y-90856517D01*
X137780098Y-90856843D01*
X137780134Y-90856849D01*
X137781535Y-90857576D01*
X137814498Y-90876036D01*
X137821160Y-90878200D01*
X137827404Y-90881382D01*
X137827485Y-90881414D01*
X137827488Y-90881416D01*
X137861609Y-90895101D01*
X137861612Y-90895102D01*
X137878214Y-90896220D01*
X137887026Y-90897212D01*
X137936188Y-90905000D01*
X137936194Y-90905000D01*
X137937539Y-90905213D01*
X137947664Y-90907365D01*
X138011031Y-90924343D01*
X138025669Y-90929527D01*
X138036319Y-90934269D01*
X138092044Y-90946114D01*
X138119906Y-90952037D01*
X138150500Y-90952037D01*
X138208691Y-90970944D01*
X138244655Y-91020444D01*
X138249500Y-91051037D01*
X138249500Y-91349623D01*
X138230593Y-91407814D01*
X138181093Y-91443778D01*
X138167091Y-91447223D01*
X138158118Y-91448748D01*
X138118114Y-91448151D01*
X138058266Y-91460874D01*
X138039929Y-91467912D01*
X138030469Y-91470446D01*
X138030450Y-91470450D01*
X137951425Y-91491626D01*
X137925801Y-91495000D01*
X137874201Y-91495000D01*
X137848577Y-91491627D01*
X137798718Y-91478267D01*
X137774841Y-91468376D01*
X137730152Y-91442574D01*
X137711586Y-91428331D01*
X137711490Y-91428440D01*
X137709980Y-91427098D01*
X137709664Y-91426856D01*
X137709318Y-91426510D01*
X137709300Y-91426494D01*
X137671378Y-91396599D01*
X137631970Y-91372450D01*
X137631960Y-91372444D01*
X137613753Y-91362515D01*
X137524592Y-91342165D01*
X137463406Y-91342165D01*
X137463400Y-91342165D01*
X137450224Y-91343351D01*
X137390573Y-91329734D01*
X137350318Y-91283657D01*
X137347907Y-91277444D01*
X137347792Y-91277116D01*
X137267154Y-91167855D01*
X137267152Y-91167853D01*
X137267150Y-91167850D01*
X137197776Y-91116650D01*
X137159711Y-91088556D01*
X137159709Y-91088553D01*
X137157714Y-91087081D01*
X137122120Y-91037315D01*
X137117500Y-91007425D01*
X137117500Y-90180001D01*
X137117499Y-90180000D01*
X136955210Y-90180000D01*
X136955207Y-90180001D01*
X136930125Y-90182909D01*
X136850605Y-90218021D01*
X136789735Y-90224229D01*
X136770637Y-90218023D01*
X136689991Y-90182415D01*
X136689988Y-90182414D01*
X136664869Y-90179500D01*
X136664865Y-90179500D01*
X136296303Y-90179500D01*
X136270720Y-90171187D01*
X136244572Y-90164909D01*
X136241951Y-90161840D01*
X136238112Y-90160593D01*
X136204838Y-90118383D01*
X136172963Y-90041420D01*
X136172961Y-90041417D01*
X136171290Y-90037382D01*
X136166492Y-89976385D01*
X136198464Y-89924217D01*
X136254993Y-89900805D01*
X136262756Y-89900500D01*
X137387062Y-89900500D01*
X137445253Y-89919407D01*
G37*
%TD.AperFunction*%
%TD*%
%TA.AperFunction,Conductor*%
%TO.N,GND*%
G36*
X121311133Y-95712704D02*
G01*
X121311134Y-95712706D01*
X121314866Y-95721716D01*
X121313216Y-95722399D01*
X121317295Y-95727816D01*
X121317609Y-95746251D01*
X121322596Y-95764002D01*
X121318118Y-95776098D01*
X121318339Y-95788993D01*
X121315141Y-95797895D01*
X121311604Y-95806433D01*
X121300000Y-95864772D01*
X121300000Y-95984472D01*
X121300001Y-95984473D01*
X122076000Y-95984473D01*
X122090912Y-95989318D01*
X122106593Y-95989318D01*
X122119278Y-95998534D01*
X122134191Y-96003380D01*
X122143407Y-96016065D01*
X122156093Y-96025282D01*
X122160938Y-96040194D01*
X122170155Y-96052880D01*
X122175000Y-96083473D01*
X122175000Y-96084473D01*
X122176000Y-96084473D01*
X122234191Y-96103380D01*
X122270155Y-96152880D01*
X122275000Y-96183473D01*
X122275000Y-96878236D01*
X122229701Y-96859473D01*
X122120299Y-96859473D01*
X122075000Y-96878236D01*
X122075000Y-96184473D01*
X121300001Y-96184473D01*
X121300000Y-96184474D01*
X121300000Y-96304173D01*
X121311603Y-96362509D01*
X121355806Y-96428662D01*
X121355810Y-96428666D01*
X121421963Y-96472869D01*
X121480299Y-96484472D01*
X121480303Y-96484473D01*
X121631399Y-96484473D01*
X121689590Y-96503380D01*
X121725554Y-96552880D01*
X121725554Y-96614066D01*
X121701403Y-96653477D01*
X121650690Y-96704189D01*
X121576821Y-96814743D01*
X121525940Y-96937581D01*
X121525940Y-96937583D01*
X121500000Y-97067988D01*
X121500000Y-97184472D01*
X121500001Y-97184473D01*
X121900000Y-97184473D01*
X121900000Y-97384473D01*
X121500001Y-97384473D01*
X121500000Y-97384474D01*
X121500000Y-97500957D01*
X121525940Y-97631362D01*
X121525940Y-97631364D01*
X121576821Y-97754202D01*
X121650690Y-97864756D01*
X121744716Y-97958782D01*
X121855270Y-98032651D01*
X121978108Y-98083532D01*
X121978111Y-98083533D01*
X122074999Y-98102804D01*
X122075000Y-98102804D01*
X122075000Y-97690709D01*
X122120299Y-97709473D01*
X122229701Y-97709473D01*
X122275000Y-97690709D01*
X122275000Y-98102804D01*
X122371888Y-98083533D01*
X122371891Y-98083532D01*
X122494729Y-98032651D01*
X122605283Y-97958782D01*
X122699309Y-97864756D01*
X122773178Y-97754202D01*
X122824059Y-97631364D01*
X122824059Y-97631362D01*
X122849999Y-97500957D01*
X122850000Y-97500953D01*
X122850000Y-97384474D01*
X122849999Y-97384473D01*
X122450000Y-97384473D01*
X122450000Y-97184473D01*
X122849999Y-97184473D01*
X122850000Y-97184472D01*
X122850000Y-97067992D01*
X122849999Y-97067988D01*
X122824059Y-96937583D01*
X122824059Y-96937581D01*
X122773178Y-96814743D01*
X122699309Y-96704189D01*
X122648597Y-96653477D01*
X122620820Y-96598960D01*
X122630391Y-96538528D01*
X122673656Y-96495263D01*
X122718601Y-96484473D01*
X122869697Y-96484473D01*
X122869698Y-96484472D01*
X122931185Y-96472242D01*
X122991947Y-96479434D01*
X123036877Y-96520966D01*
X123049500Y-96569340D01*
X123049500Y-97658644D01*
X123062640Y-97707683D01*
X123062640Y-99255385D01*
X118712640Y-99305385D01*
X118712640Y-98787062D01*
X118753779Y-98828201D01*
X118868428Y-98904806D01*
X118995816Y-98957571D01*
X119131055Y-98984472D01*
X119131057Y-98984473D01*
X119374999Y-98984473D01*
X119375000Y-98984472D01*
X119375000Y-98534473D01*
X119575000Y-98534473D01*
X119575000Y-98984472D01*
X119575001Y-98984473D01*
X119818943Y-98984473D01*
X119818944Y-98984472D01*
X119954183Y-98957571D01*
X120081571Y-98904806D01*
X120196220Y-98828201D01*
X120293728Y-98730693D01*
X120370333Y-98616044D01*
X120423098Y-98488656D01*
X120423098Y-98488654D01*
X120443822Y-98384473D01*
X120029177Y-98384473D01*
X120050000Y-98334201D01*
X120050000Y-98234745D01*
X120029177Y-98184473D01*
X120443822Y-98184473D01*
X120423098Y-98080291D01*
X120423098Y-98080289D01*
X120370333Y-97952901D01*
X120293728Y-97838252D01*
X120196220Y-97740744D01*
X120081571Y-97664139D01*
X119954183Y-97611374D01*
X119818944Y-97584473D01*
X119575001Y-97584473D01*
X119575000Y-97584474D01*
X119575000Y-98034473D01*
X119375000Y-98034473D01*
X119375000Y-97584474D01*
X119374999Y-97584473D01*
X119131055Y-97584473D01*
X118995816Y-97611374D01*
X118868428Y-97664139D01*
X118753779Y-97740744D01*
X118712640Y-97781883D01*
X118712640Y-97205385D01*
X121262640Y-97205385D01*
X121262640Y-95705385D01*
X121309677Y-95705385D01*
X121311133Y-95712704D01*
G37*
%TD.AperFunction*%
%TD*%
%TA.AperFunction,Conductor*%
%TO.N,+5V_USB*%
G36*
X127390039Y-91574292D02*
G01*
X127426003Y-91623792D01*
X127426003Y-91684978D01*
X127401852Y-91724389D01*
X127320746Y-91805494D01*
X127274173Y-91905368D01*
X127274173Y-91905369D01*
X127268182Y-91950878D01*
X127268182Y-91999999D01*
X127268183Y-92000000D01*
X128368180Y-92000000D01*
X128368181Y-91999999D01*
X128368181Y-91950883D01*
X128368180Y-91950872D01*
X128362191Y-91905374D01*
X128362190Y-91905369D01*
X128315617Y-91805494D01*
X128234512Y-91724389D01*
X128206735Y-91669872D01*
X128216306Y-91609440D01*
X128259571Y-91566175D01*
X128304516Y-91555385D01*
X128887553Y-91555385D01*
X128945744Y-91574292D01*
X128981708Y-91623792D01*
X128982886Y-91627692D01*
X129309885Y-92795548D01*
X129313327Y-92815576D01*
X129399775Y-94096665D01*
X129400000Y-94103330D01*
X129400000Y-95358992D01*
X129381093Y-95417183D01*
X129371004Y-95428995D01*
X129100000Y-95699998D01*
X129099998Y-95700003D01*
X128998789Y-95960707D01*
X128960104Y-96008111D01*
X128900944Y-96023723D01*
X128843906Y-96001580D01*
X128810777Y-95950140D01*
X128807500Y-95924879D01*
X128807500Y-95900001D01*
X128807499Y-95900000D01*
X128000001Y-95900000D01*
X128000000Y-95900001D01*
X128000000Y-96694998D01*
X128000001Y-96694999D01*
X128411703Y-96694999D01*
X128442100Y-96692149D01*
X128442106Y-96692148D01*
X128554994Y-96652647D01*
X128616164Y-96651274D01*
X128666459Y-96686118D01*
X128686667Y-96743869D01*
X128679982Y-96781919D01*
X128618071Y-96941396D01*
X128579386Y-96988800D01*
X128525440Y-97004567D01*
X127200001Y-96999999D01*
X127199999Y-97000000D01*
X127185435Y-97087388D01*
X127121814Y-97469121D01*
X127113788Y-97517275D01*
X127085571Y-97571566D01*
X127030833Y-97598903D01*
X127016135Y-97600000D01*
X126899988Y-97600000D01*
X126516674Y-97620174D01*
X126457570Y-97604351D01*
X126419054Y-97556810D01*
X126415839Y-97495709D01*
X126449151Y-97444387D01*
X126478774Y-97427866D01*
X126569242Y-97396210D01*
X126675348Y-97317900D01*
X126675358Y-97317890D01*
X126753669Y-97211782D01*
X126797227Y-97087301D01*
X126797228Y-97087300D01*
X126800000Y-97057743D01*
X126800000Y-96867543D01*
X126799999Y-96867542D01*
X125425001Y-96867542D01*
X125425000Y-96867543D01*
X125425000Y-97057743D01*
X125427771Y-97087300D01*
X125427772Y-97087301D01*
X125471330Y-97211782D01*
X125549641Y-97317890D01*
X125549651Y-97317900D01*
X125655759Y-97396211D01*
X125758196Y-97432056D01*
X125806876Y-97469121D01*
X125824473Y-97527722D01*
X125804265Y-97585473D01*
X125753970Y-97620317D01*
X125725498Y-97624500D01*
X125609733Y-97624500D01*
X125580155Y-97627274D01*
X125580151Y-97627275D01*
X125451591Y-97672260D01*
X125424098Y-97677678D01*
X125093282Y-97695090D01*
X125034177Y-97679268D01*
X124995662Y-97631726D01*
X124989684Y-97607160D01*
X124989372Y-97604351D01*
X124944249Y-97198246D01*
X124949198Y-97154626D01*
X124972725Y-97087391D01*
X124975500Y-97057798D01*
X124975500Y-96477340D01*
X125425000Y-96477340D01*
X125425000Y-96667541D01*
X125425001Y-96667542D01*
X126012499Y-96667542D01*
X126012500Y-96667541D01*
X126012500Y-96092543D01*
X126212500Y-96092543D01*
X126212500Y-96667541D01*
X126212501Y-96667542D01*
X126799999Y-96667542D01*
X126800000Y-96667541D01*
X126800000Y-96477340D01*
X126797228Y-96447783D01*
X126797227Y-96447782D01*
X126753669Y-96323301D01*
X126675358Y-96217193D01*
X126675348Y-96217183D01*
X126569240Y-96138872D01*
X126444759Y-96095314D01*
X126444758Y-96095313D01*
X126415201Y-96092542D01*
X126212501Y-96092542D01*
X126212500Y-96092543D01*
X126012500Y-96092543D01*
X126012499Y-96092542D01*
X125809799Y-96092542D01*
X125780241Y-96095313D01*
X125780240Y-96095314D01*
X125655759Y-96138872D01*
X125549651Y-96217183D01*
X125549641Y-96217193D01*
X125471330Y-96323301D01*
X125427772Y-96447782D01*
X125427771Y-96447783D01*
X125425000Y-96477340D01*
X124975500Y-96477340D01*
X124975500Y-96477286D01*
X124975500Y-96477280D01*
X124975499Y-96477275D01*
X124972725Y-96447697D01*
X124972725Y-96447693D01*
X124929116Y-96323067D01*
X124850711Y-96216831D01*
X124848255Y-96213503D01*
X124829517Y-96165653D01*
X124806928Y-95962358D01*
X124811903Y-95938253D01*
X124813788Y-95913715D01*
X124817984Y-95908782D01*
X124819294Y-95902439D01*
X124821650Y-95900001D01*
X126992501Y-95900001D01*
X126992501Y-96299203D01*
X126995350Y-96329600D01*
X126995350Y-96329602D01*
X127040154Y-96457647D01*
X127120707Y-96566790D01*
X127120709Y-96566792D01*
X127229852Y-96647345D01*
X127357898Y-96692149D01*
X127388289Y-96694999D01*
X127799998Y-96694999D01*
X127800000Y-96694998D01*
X127800000Y-95900001D01*
X127799999Y-95900000D01*
X126992502Y-95900000D01*
X126992501Y-95900001D01*
X124821650Y-95900001D01*
X124853435Y-95867116D01*
X125773719Y-95300788D01*
X126992500Y-95300788D01*
X126992500Y-95699999D01*
X126992501Y-95700000D01*
X127799999Y-95700000D01*
X127800000Y-95699999D01*
X127800000Y-94905001D01*
X128000000Y-94905001D01*
X128000000Y-95699999D01*
X128000001Y-95700000D01*
X128807498Y-95700000D01*
X128807499Y-95699999D01*
X128807499Y-95300796D01*
X128804649Y-95270399D01*
X128804649Y-95270397D01*
X128759845Y-95142352D01*
X128679292Y-95033209D01*
X128679290Y-95033207D01*
X128570147Y-94952654D01*
X128442101Y-94907850D01*
X128411711Y-94905000D01*
X128000001Y-94905000D01*
X128000000Y-94905001D01*
X127800000Y-94905001D01*
X127799999Y-94905000D01*
X127388296Y-94905000D01*
X127357899Y-94907850D01*
X127357897Y-94907850D01*
X127229852Y-94952654D01*
X127120709Y-95033207D01*
X127120707Y-95033209D01*
X127040154Y-95142352D01*
X126995350Y-95270398D01*
X126992500Y-95300788D01*
X125773719Y-95300788D01*
X127400000Y-94300000D01*
X127492307Y-94100001D01*
X127800000Y-94100001D01*
X127800000Y-94290201D01*
X127802771Y-94319758D01*
X127802772Y-94319759D01*
X127846330Y-94444240D01*
X127924641Y-94550348D01*
X127924651Y-94550358D01*
X128030759Y-94628669D01*
X128155240Y-94672227D01*
X128155241Y-94672228D01*
X128184799Y-94675000D01*
X128387499Y-94675000D01*
X128387500Y-94674999D01*
X128387500Y-94100001D01*
X128587500Y-94100001D01*
X128587500Y-94674999D01*
X128587501Y-94675000D01*
X128790201Y-94675000D01*
X128819758Y-94672228D01*
X128819759Y-94672227D01*
X128944240Y-94628669D01*
X129050348Y-94550358D01*
X129050358Y-94550348D01*
X129128669Y-94444240D01*
X129172227Y-94319759D01*
X129172228Y-94319758D01*
X129175000Y-94290201D01*
X129175000Y-94100001D01*
X129174999Y-94100000D01*
X128587501Y-94100000D01*
X128587500Y-94100001D01*
X128387500Y-94100001D01*
X128387499Y-94100000D01*
X127800001Y-94100000D01*
X127800000Y-94100001D01*
X127492307Y-94100001D01*
X127519287Y-94041543D01*
X127559674Y-93997294D01*
X127651242Y-93944428D01*
X127677833Y-93917836D01*
X127732348Y-93890061D01*
X127792780Y-93899632D01*
X127793287Y-93900000D01*
X128387499Y-93900000D01*
X128387500Y-93899999D01*
X128387500Y-93325001D01*
X128587500Y-93325001D01*
X128587500Y-93899999D01*
X128587501Y-93900000D01*
X129174999Y-93900000D01*
X129175000Y-93899999D01*
X129175000Y-93709798D01*
X129172228Y-93680241D01*
X129172227Y-93680240D01*
X129128669Y-93555759D01*
X129050358Y-93449651D01*
X129050348Y-93449641D01*
X128944240Y-93371330D01*
X128819759Y-93327772D01*
X128819758Y-93327771D01*
X128790201Y-93325000D01*
X128587501Y-93325000D01*
X128587500Y-93325001D01*
X128387500Y-93325001D01*
X128387499Y-93325000D01*
X128184799Y-93325000D01*
X128155241Y-93327771D01*
X128155240Y-93327772D01*
X128030759Y-93371330D01*
X128024198Y-93374798D01*
X128022949Y-93372436D01*
X127976393Y-93387936D01*
X127918067Y-93369450D01*
X127881747Y-93320211D01*
X127881305Y-93259027D01*
X127885782Y-93247470D01*
X128000000Y-93000000D01*
X127999998Y-92999999D01*
X127999999Y-92999999D01*
X128000000Y-92999999D01*
X126717466Y-92946560D01*
X126662801Y-92927303D01*
X126645875Y-92914812D01*
X126521252Y-92871204D01*
X126521251Y-92871203D01*
X126521249Y-92871203D01*
X126521247Y-92871202D01*
X126521244Y-92871202D01*
X126491666Y-92868428D01*
X126491656Y-92868428D01*
X125886144Y-92868428D01*
X125886133Y-92868428D01*
X125856555Y-92871202D01*
X125856546Y-92871204D01*
X125773599Y-92900229D01*
X125736780Y-92905699D01*
X125600001Y-92900000D01*
X125600000Y-92900000D01*
X125238817Y-93983548D01*
X125214900Y-94022246D01*
X125180488Y-94056657D01*
X125125971Y-94084433D01*
X125065539Y-94074861D01*
X125022275Y-94031596D01*
X125012704Y-93971164D01*
X125017041Y-93953953D01*
X125048628Y-93863685D01*
X125051400Y-93834129D01*
X125051400Y-93643929D01*
X125051399Y-93643928D01*
X123676401Y-93643928D01*
X123676400Y-93643929D01*
X123676400Y-93684973D01*
X123657493Y-93743164D01*
X123607993Y-93779128D01*
X123577400Y-93783973D01*
X123149000Y-93783973D01*
X123090809Y-93765066D01*
X123054845Y-93715566D01*
X123050000Y-93684973D01*
X123050000Y-93584474D01*
X123049999Y-93584473D01*
X121300001Y-93584473D01*
X121300000Y-93584474D01*
X121300000Y-93704179D01*
X121300126Y-93705461D01*
X121300000Y-93706034D01*
X121300000Y-93709034D01*
X121299341Y-93709034D01*
X121295029Y-93728668D01*
X121293337Y-93752370D01*
X121288585Y-93758015D01*
X121287003Y-93765222D01*
X121269239Y-93781001D01*
X121253938Y-93799182D01*
X121246775Y-93800956D01*
X121241259Y-93805857D01*
X121194548Y-93813895D01*
X121048402Y-93803457D01*
X120991706Y-93780453D01*
X120973084Y-93759626D01*
X120786769Y-93480154D01*
X120770223Y-93421251D01*
X120791461Y-93363869D01*
X120842370Y-93329930D01*
X120854637Y-93327310D01*
X121186509Y-93278198D01*
X121246839Y-93288383D01*
X121289662Y-93332084D01*
X121300000Y-93376131D01*
X121300000Y-93384472D01*
X121300001Y-93384473D01*
X123049999Y-93384473D01*
X123050000Y-93384472D01*
X123050000Y-93264775D01*
X123049999Y-93264772D01*
X123047802Y-93253726D01*
X123676400Y-93253726D01*
X123676400Y-93443927D01*
X123676401Y-93443928D01*
X124263899Y-93443928D01*
X124263900Y-93443927D01*
X124263900Y-92868929D01*
X124463900Y-92868929D01*
X124463900Y-93443927D01*
X124463901Y-93443928D01*
X125051399Y-93443928D01*
X125051400Y-93443927D01*
X125051400Y-93253726D01*
X125048628Y-93224169D01*
X125048627Y-93224168D01*
X125005069Y-93099687D01*
X124926758Y-92993579D01*
X124926748Y-92993569D01*
X124820640Y-92915258D01*
X124696159Y-92871700D01*
X124696158Y-92871699D01*
X124666601Y-92868928D01*
X124463901Y-92868928D01*
X124463900Y-92868929D01*
X124263900Y-92868929D01*
X124263899Y-92868928D01*
X124061199Y-92868928D01*
X124031641Y-92871699D01*
X124031640Y-92871700D01*
X123907159Y-92915258D01*
X123811533Y-92985832D01*
X123721031Y-93104542D01*
X123679172Y-93224168D01*
X123679171Y-93224169D01*
X123676400Y-93253726D01*
X123047802Y-93253726D01*
X123037290Y-93200878D01*
X123044482Y-93140117D01*
X123086014Y-93095187D01*
X123114962Y-93084489D01*
X123502942Y-93006894D01*
X123566758Y-92982557D01*
X123633319Y-92919836D01*
X123666075Y-92834447D01*
X123730252Y-92385203D01*
X123757197Y-92330275D01*
X123811286Y-92301672D01*
X123828396Y-92300208D01*
X127009689Y-92305380D01*
X127012639Y-92305385D01*
X127012639Y-92305384D01*
X127012640Y-92305385D01*
X127019666Y-92200001D01*
X127268183Y-92200001D01*
X127268183Y-92249127D01*
X127274172Y-92294625D01*
X127274173Y-92294630D01*
X127320746Y-92394505D01*
X127398676Y-92472435D01*
X127498551Y-92519008D01*
X127544061Y-92524999D01*
X127718182Y-92524999D01*
X127718182Y-92200001D01*
X127918182Y-92200001D01*
X127918182Y-92524998D01*
X127918183Y-92524999D01*
X128092299Y-92524999D01*
X128092309Y-92524998D01*
X128137807Y-92519009D01*
X128137812Y-92519008D01*
X128237687Y-92472435D01*
X128315617Y-92394505D01*
X128362190Y-92294631D01*
X128362190Y-92294630D01*
X128368181Y-92249121D01*
X128368182Y-92249120D01*
X128368182Y-92200001D01*
X128368181Y-92200000D01*
X127918183Y-92200000D01*
X127918182Y-92200001D01*
X127718182Y-92200001D01*
X127718181Y-92200000D01*
X127268184Y-92200000D01*
X127268183Y-92200001D01*
X127019666Y-92200001D01*
X127056479Y-91647800D01*
X127079216Y-91590995D01*
X127130998Y-91558404D01*
X127155260Y-91555385D01*
X127331848Y-91555385D01*
X127390039Y-91574292D01*
G37*
%TD.AperFunction*%
%TD*%
M02*
