%TF.GenerationSoftware,KiCad,Pcbnew,9.0.6*%
%TF.CreationDate,2026-01-30T22:56:41+01:00*%
%TF.ProjectId,fed_training_1,6665645f-7472-4616-996e-696e675f312e,rev?*%
%TF.SameCoordinates,Original*%
%TF.FileFunction,Soldermask,Top*%
%TF.FilePolarity,Negative*%
%FSLAX46Y46*%
G04 Gerber Fmt 4.6, Leading zero omitted, Abs format (unit mm)*
G04 Created by KiCad (PCBNEW 9.0.6) date 2026-01-30 22:56:41*
%MOMM*%
%LPD*%
G01*
G04 APERTURE LIST*
G04 Aperture macros list*
%AMRoundRect*
0 Rectangle with rounded corners*
0 $1 Rounding radius*
0 $2 $3 $4 $5 $6 $7 $8 $9 X,Y pos of 4 corners*
0 Add a 4 corners polygon primitive as box body*
4,1,4,$2,$3,$4,$5,$6,$7,$8,$9,$2,$3,0*
0 Add four circle primitives for the rounded corners*
1,1,$1+$1,$2,$3*
1,1,$1+$1,$4,$5*
1,1,$1+$1,$6,$7*
1,1,$1+$1,$8,$9*
0 Add four rect primitives between the rounded corners*
20,1,$1+$1,$2,$3,$4,$5,0*
20,1,$1+$1,$4,$5,$6,$7,0*
20,1,$1+$1,$6,$7,$8,$9,0*
20,1,$1+$1,$8,$9,$2,$3,0*%
G04 Aperture macros list end*
%ADD10RoundRect,0.150000X-0.150000X0.587500X-0.150000X-0.587500X0.150000X-0.587500X0.150000X0.587500X0*%
%ADD11RoundRect,0.237500X-0.250000X-0.237500X0.250000X-0.237500X0.250000X0.237500X-0.250000X0.237500X0*%
%ADD12RoundRect,0.237500X0.250000X0.237500X-0.250000X0.237500X-0.250000X-0.237500X0.250000X-0.237500X0*%
%ADD13RoundRect,0.112500X-0.237500X0.112500X-0.237500X-0.112500X0.237500X-0.112500X0.237500X0.112500X0*%
%ADD14RoundRect,0.100000X-0.217500X-0.100000X0.217500X-0.100000X0.217500X0.100000X-0.217500X0.100000X0*%
%ADD15R,1.700000X1.700000*%
%ADD16C,1.700000*%
%ADD17R,1.000000X1.000000*%
%ADD18C,1.000000*%
%ADD19RoundRect,0.094250X0.106750X0.094250X-0.106750X0.094250X-0.106750X-0.094250X0.106750X-0.094250X0*%
%ADD20RoundRect,0.094250X0.094250X0.106750X-0.094250X0.106750X-0.094250X-0.106750X0.094250X-0.106750X0*%
%ADD21R,0.900000X1.500000*%
%ADD22RoundRect,0.237500X-0.237500X0.250000X-0.237500X-0.250000X0.237500X-0.250000X0.237500X0.250000X0*%
%ADD23RoundRect,0.150000X-0.512500X-0.150000X0.512500X-0.150000X0.512500X0.150000X-0.512500X0.150000X0*%
%ADD24RoundRect,0.250000X-0.457500X-0.445000X0.457500X-0.445000X0.457500X0.445000X-0.457500X0.445000X0*%
%ADD25R,0.850000X0.850000*%
%ADD26C,0.850000*%
%ADD27RoundRect,0.100000X0.100000X-0.217500X0.100000X0.217500X-0.100000X0.217500X-0.100000X-0.217500X0*%
%ADD28R,1.350000X0.400000*%
%ADD29O,1.550000X1.000000*%
%ADD30O,0.950000X1.250000*%
%ADD31RoundRect,0.243750X0.243750X0.456250X-0.243750X0.456250X-0.243750X-0.456250X0.243750X-0.456250X0*%
%ADD32RoundRect,0.250000X-0.445000X0.457500X-0.445000X-0.457500X0.445000X-0.457500X0.445000X0.457500X0*%
%ADD33RoundRect,0.100000X0.100000X-0.850000X0.100000X0.850000X-0.100000X0.850000X-0.100000X-0.850000X0*%
%ADD34RoundRect,0.150000X0.150000X-0.587500X0.150000X0.587500X-0.150000X0.587500X-0.150000X-0.587500X0*%
G04 APERTURE END LIST*
D10*
%TO.C,Q2*%
X170490000Y-91282500D03*
X168590000Y-91282500D03*
X169540000Y-93157500D03*
%TD*%
D11*
%TO.C,R2*%
X124363900Y-93543928D03*
X126188900Y-93543928D03*
%TD*%
D12*
%TO.C,R6*%
X130312500Y-94000000D03*
X128487500Y-94000000D03*
%TD*%
D13*
%TO.C,D2*%
X127818182Y-90800000D03*
X127818182Y-92100000D03*
X129818182Y-91450000D03*
%TD*%
D14*
%TO.C,C5*%
X136402500Y-90580000D03*
X137217500Y-90580000D03*
%TD*%
D15*
%TO.C,J4*%
X157898454Y-98300000D03*
D16*
X160438454Y-98300000D03*
X162978454Y-98300000D03*
X165518454Y-98300000D03*
%TD*%
D12*
%TO.C,R3*%
X126112500Y-96767542D03*
X124287500Y-96767542D03*
%TD*%
D17*
%TO.C,J7*%
X178030000Y-98990000D03*
D18*
X176760000Y-98990000D03*
%TD*%
D19*
%TO.C,U2*%
X159258855Y-93857233D03*
X159258855Y-93357233D03*
X159258855Y-92857233D03*
X159258855Y-92357233D03*
D20*
X158746355Y-92344733D03*
X158246355Y-92344733D03*
D19*
X157733855Y-92357233D03*
X157733855Y-92857233D03*
X157733855Y-93357233D03*
X157733855Y-93857233D03*
D20*
X158246355Y-93869733D03*
X158746355Y-93869733D03*
%TD*%
D11*
%TO.C,R5*%
X124087500Y-98300000D03*
X125912500Y-98300000D03*
%TD*%
D21*
%TO.C,D1*%
X176650000Y-93310000D03*
X178050000Y-93310000D03*
X176650000Y-96410000D03*
X178050000Y-96410000D03*
%TD*%
D22*
%TO.C,R8*%
X171350000Y-93887500D03*
X171350000Y-95712500D03*
%TD*%
D16*
%TO.C,SW1*%
X154800000Y-91803688D03*
X150300000Y-91803688D03*
X150300000Y-98303688D03*
X154800000Y-98303688D03*
%TD*%
D22*
%TO.C,R12*%
X136500000Y-97187500D03*
X136500000Y-99012500D03*
%TD*%
D12*
%TO.C,R11*%
X148412500Y-97400000D03*
X146587500Y-97400000D03*
%TD*%
%TO.C,R7*%
X166512500Y-95600000D03*
X164687500Y-95600000D03*
%TD*%
D23*
%TO.C,U3*%
X132225000Y-92000000D03*
X132225000Y-92950000D03*
X132225000Y-93900000D03*
X134500000Y-93900000D03*
X134500000Y-92000000D03*
%TD*%
D24*
%TO.C,C4*%
X127900000Y-95800000D03*
X130605000Y-95800000D03*
%TD*%
D10*
%TO.C,Q1*%
X166934061Y-91957698D03*
X165034061Y-91957698D03*
X165984061Y-93832698D03*
%TD*%
D25*
%TO.C,J3*%
X134674676Y-99125000D03*
D26*
X133674676Y-99125000D03*
X132674676Y-99125000D03*
X131674676Y-99125000D03*
X130674676Y-99125000D03*
%TD*%
D17*
%TO.C,J6*%
X176810000Y-90680000D03*
D18*
X178080000Y-90680000D03*
%TD*%
D27*
%TO.C,C1*%
X130900000Y-92640000D03*
X130900000Y-91825000D03*
%TD*%
D28*
%TO.C,J2*%
X122175000Y-93484473D03*
X122175000Y-94134473D03*
X122175000Y-94784473D03*
X122175000Y-95434473D03*
X122175000Y-96084473D03*
D29*
X119475000Y-91284473D03*
D30*
X122175000Y-92284473D03*
X122175000Y-97284473D03*
D29*
X119475000Y-98284473D03*
%TD*%
D31*
%TO.C,D3*%
X134237500Y-96100000D03*
X132362500Y-96100000D03*
%TD*%
D32*
%TO.C,C2*%
X136500000Y-91947500D03*
X136500000Y-94652500D03*
%TD*%
D33*
%TO.C,U1*%
X138650000Y-98522906D03*
X139300000Y-98522906D03*
X139950000Y-98522906D03*
X140600000Y-98522906D03*
X141250000Y-98522906D03*
X141900000Y-98522906D03*
X142550000Y-98522906D03*
X143200000Y-98522906D03*
X143850000Y-98522906D03*
X144500000Y-98522906D03*
X144500000Y-91522906D03*
X143850000Y-91522906D03*
X143200000Y-91522906D03*
X142550000Y-91522906D03*
X141900000Y-91522906D03*
X141250000Y-91522906D03*
X140600000Y-91522906D03*
X139950000Y-91522906D03*
X139300000Y-91522906D03*
X138650000Y-91522906D03*
%TD*%
D11*
%TO.C,R9*%
X168007087Y-95132089D03*
X169832087Y-95132089D03*
%TD*%
D34*
%TO.C,Q3*%
X168595000Y-98737500D03*
X170495000Y-98737500D03*
X169545000Y-96862500D03*
%TD*%
D27*
%TO.C,C3*%
X163890802Y-92758195D03*
X163890802Y-91943195D03*
%TD*%
D32*
%TO.C,C6*%
X162306000Y-91581579D03*
X162306000Y-94286579D03*
%TD*%
D15*
%TO.C,J5*%
X173850000Y-90840000D03*
D16*
X173850000Y-93380000D03*
X173850000Y-95920000D03*
X173850000Y-98460000D03*
%TD*%
D11*
%TO.C,R10*%
X146587500Y-95800000D03*
X148412500Y-95800000D03*
%TD*%
D17*
%TO.C,J1*%
X124700000Y-91200000D03*
D18*
X125970000Y-91200000D03*
%TD*%
M02*
