M48
; DRILL file {KiCad 9.0.6} date 2026-01-30T22:56:40+0100
; FORMAT={-:-/ absolute / metric / decimal}
; #@! TF.CreationDate,2026-01-30T22:56:40+01:00
; #@! TF.GenerationSoftware,Kicad,Pcbnew,9.0.6
; #@! TF.FileFunction,Plated,1,4,PTH
FMAT,2
METRIC
; #@! TA.AperFunction,Plated,PTH,ViaDrill
T1C0.300
; #@! TA.AperFunction,Plated,PTH,ComponentDrill
T2C0.500
; #@! TA.AperFunction,Plated,PTH,ComponentDrill
T3C0.550
; #@! TA.AperFunction,Plated,PTH,ComponentDrill
T4C0.650
; #@! TA.AperFunction,Plated,PTH,ComponentDrill
T5C1.000
%
G90
G05
T1
X119.978Y-92.796
X121.1Y-98.5
X122.166Y-98.511
X122.391Y-90.764
X123.9Y-95.3
X124.7Y-90.2
X127.2Y-98.5
X127.344Y-93.544
X129.7Y-97.5
X130.2Y-93.0
X130.9Y-90.9
X131.9Y-90.9
X132.5Y-97.6
X132.9Y-94.8
X133.76Y-90.74
X135.21Y-90.81
X137.9Y-91.2
X138.6Y-93.4
X139.38Y-95.59
X139.88Y-96.9
X140.3Y-93.35
X141.35Y-96.36
X141.88Y-94.71
X142.9Y-93.4
X143.717Y-94.657
X143.86Y-96.96
X146.56Y-98.69
X148.37Y-98.74
X150.83Y-95.63
X152.146Y-92.0
X152.178Y-97.822
X153.3Y-95.13
X155.0Y-95.34
X155.448Y-96.612
X156.9Y-92.9
X157.9Y-91.3
X157.996Y-94.629
X158.939Y-91.232
X160.3Y-94.8
X160.528Y-93.972
X160.62Y-91.222
X160.714Y-93.246
X162.052Y-97.028
X163.83Y-94.3
X163.878Y-91.06
X163.891Y-93.42
X165.026Y-90.631
X165.1Y-94.615
X167.29Y-90.648
X171.45Y-98.298
X171.57Y-91.1
T2
X130.675Y-99.125
X131.675Y-99.125
X132.675Y-99.125
X133.675Y-99.125
X134.675Y-99.125
T4
X124.7Y-91.2
X125.97Y-91.2
X176.76Y-98.99
X176.81Y-90.68
X178.03Y-98.99
X178.08Y-90.68
T5
X150.3Y-91.804
X150.3Y-98.304
X154.8Y-91.804
X154.8Y-98.304
X157.898Y-98.3
X160.438Y-98.3
X162.978Y-98.3
X165.518Y-98.3
X173.85Y-90.84
X173.85Y-93.38
X173.85Y-95.92
X173.85Y-98.46
T2
G00X119.8Y-91.284
M15
G01X119.15Y-91.284
M16
G05
G00X119.8Y-98.284
M15
G01X119.15Y-98.284
M16
G05
T3
G00X122.175Y-92.134
M15
G01X122.175Y-92.434
M16
G05
G00X122.175Y-97.134
M15
G01X122.175Y-97.434
M16
G05
M30
